<svg width="24" height="25" viewBox="0 0 24 25" fill="none" xmlns="http://www.w3.org/2000/svg">
<g clip-path="url(#clip0_3908_5694)">
<path d="M21.8571 10.822H14.5714C14.3348 10.822 14.1429 10.6301 14.1429 10.3934V3.1077C14.1429 1.92432 13.1834 0.964844 12 0.964844C10.8166 0.964844 9.85714 1.92432 9.85714 3.1077V10.3934C9.85714 10.6301 9.66525 10.822 9.42857 10.822H2.14286C0.959473 10.822 0 11.7815 0 12.9648C0 14.1482 0.959473 15.1077 2.14286 15.1077H9.42857C9.66525 15.1077 9.85714 15.2996 9.85714 15.5363V22.822C9.85714 24.0054 10.8166 24.9648 12 24.9648C13.1834 24.9648 14.1429 24.0054 14.1429 22.822V15.5363C14.1429 15.2996 14.3348 15.1077 14.5714 15.1077H21.8571C23.0405 15.1077 24 14.1482 24 12.9648C24 11.7815 23.0405 10.822 21.8571 10.822Z" fill="#333333"/>
</g>
<defs>
<clipPath id="clip0_3908_5694">
<rect width="24" height="24" fill="white" transform="translate(0 0.964844)"/>
</clipPath>
</defs>
</svg>
