<svg width="24" height="25" viewBox="0 0 24 25" fill="none" xmlns="http://www.w3.org/2000/svg">
<path d="M19 11.9649H7.14L10.77 7.60488C10.9397 7.40066 11.0214 7.13738 10.997 6.87295C10.9726 6.60853 10.8442 6.36461 10.64 6.19488C10.4358 6.02514 10.1725 5.94347 9.90808 5.96785C9.64365 5.99223 9.39974 6.12066 9.23 6.32488L4.23 12.3249C4.19636 12.3726 4.16628 12.4227 4.14 12.4749C4.14 12.5249 4.14 12.5549 4.07 12.6049C4.02467 12.7195 4.00094 12.8416 4 12.9649C4.00094 13.0882 4.02467 13.2102 4.07 13.3249C4.07 13.3749 4.07 13.4049 4.14 13.4549C4.16628 13.507 4.19636 13.5572 4.23 13.6049L9.23 19.6049C9.32402 19.7178 9.44176 19.8085 9.57485 19.8708C9.70793 19.933 9.85309 19.9651 10 19.9649C10.2337 19.9653 10.4601 19.884 10.64 19.7349C10.7413 19.6509 10.825 19.5478 10.8863 19.4315C10.9477 19.3151 10.9855 19.1878 10.9975 19.0568C11.0096 18.9259 10.9957 18.7938 10.9567 18.6682C10.9176 18.5426 10.8542 18.4259 10.77 18.3249L7.14 13.9649H19C19.2652 13.9649 19.5196 13.8595 19.7071 13.672C19.8946 13.4844 20 13.2301 20 12.9649C20 12.6997 19.8946 12.4453 19.7071 12.2578C19.5196 12.0702 19.2652 11.9649 19 11.9649Z" fill="#333333"/>
</svg>
