<svg width="25" height="25" viewBox="0 0 25 25" fill="none" xmlns="http://www.w3.org/2000/svg">
<path d="M16.5293 14.1649C16.211 14.1649 15.9058 14.0385 15.6808 13.8135C15.4557 13.5884 15.3293 13.2832 15.3293 12.9649C15.3293 12.6467 15.4557 12.3415 15.6808 12.1164C15.9058 11.8914 16.211 11.7649 16.5293 11.7649C16.8476 11.7649 17.1528 11.8914 17.3778 12.1164C17.6029 12.3415 17.7293 12.6467 17.7293 12.9649C17.7293 13.2832 17.6029 13.5884 17.3778 13.8135C17.1528 14.0385 16.8476 14.1649 16.5293 14.1649ZM15.3293 16.5649C15.3293 16.8832 15.4557 17.1884 15.6808 17.4135C15.9058 17.6385 16.211 17.7649 16.5293 17.7649C16.8476 17.7649 17.1528 17.6385 17.3778 17.4135C17.6029 17.1884 17.7293 16.8832 17.7293 16.5649C17.7293 16.2467 17.6029 15.9415 17.3778 15.7164C17.1528 15.4914 16.8476 15.3649 16.5293 15.3649C16.211 15.3649 15.9058 15.4914 15.6808 15.7164C15.4557 15.9415 15.3293 16.2467 15.3293 16.5649ZM12.9293 14.1649C12.611 14.1649 12.3058 14.0385 12.0808 13.8135C11.8557 13.5884 11.7293 13.2832 11.7293 12.9649C11.7293 12.6467 11.8557 12.3415 12.0808 12.1164C12.3058 11.8914 12.611 11.7649 12.9293 11.7649C13.2476 11.7649 13.5528 11.8914 13.7778 12.1164C14.0029 12.3415 14.1293 12.6467 14.1293 12.9649C14.1293 13.2832 14.0029 13.5884 13.7778 13.8135C13.5528 14.0385 13.2476 14.1649 12.9293 14.1649ZM11.7293 16.5649C11.7293 16.8832 11.8557 17.1884 12.0808 17.4135C12.3058 17.6385 12.611 17.7649 12.9293 17.7649C13.2476 17.7649 13.5528 17.6385 13.7778 17.4135C14.0029 17.1884 14.1293 16.8832 14.1293 16.5649C14.1293 16.2467 14.0029 15.9415 13.7778 15.7164C13.5528 15.4914 13.2476 15.3649 12.9293 15.3649C12.611 15.3649 12.3058 15.4914 12.0808 15.7164C11.8557 15.9415 11.7293 16.2467 11.7293 16.5649ZM9.3293 14.1649C9.01104 14.1649 8.70581 14.0385 8.48077 13.8135C8.25573 13.5884 8.1293 13.2832 8.1293 12.9649C8.1293 12.6467 8.25573 12.3415 8.48077 12.1164C8.70581 11.8914 9.01104 11.7649 9.3293 11.7649C9.64756 11.7649 9.95278 11.8914 10.1778 12.1164C10.4029 12.3415 10.5293 12.6467 10.5293 12.9649C10.5293 13.2832 10.4029 13.5884 10.1778 13.8135C9.95278 14.0385 9.64756 14.1649 9.3293 14.1649ZM4.5293 7.56494C4.5293 6.76929 4.84537 6.00623 5.40798 5.44362C5.97059 4.88101 6.73365 4.56494 7.5293 4.56494H18.3293C19.1249 4.56494 19.888 4.88101 20.4506 5.44362C21.0132 6.00623 21.3293 6.76929 21.3293 7.56494V18.3649C21.3293 19.1606 21.0132 19.9237 20.4506 20.4863C19.888 21.0489 19.1249 21.3649 18.3293 21.3649H7.5293C6.73365 21.3649 5.97059 21.0489 5.40798 20.4863C4.84537 19.9237 4.5293 19.1606 4.5293 18.3649V7.56494ZM20.1293 9.36494H5.7293V18.3649C5.7293 18.8423 5.91894 19.3002 6.2565 19.6377C6.59407 19.9753 7.05191 20.1649 7.5293 20.1649H18.3293C18.8067 20.1649 19.2645 19.9753 19.6021 19.6377C19.9397 19.3002 20.1293 18.8423 20.1293 18.3649V9.36494ZM18.3293 5.76494H7.5293C7.05191 5.76494 6.59407 5.95458 6.2565 6.29215C5.91894 6.62971 5.7293 7.08755 5.7293 7.56494V8.16494H20.1293V7.56494C20.1293 7.08755 19.9397 6.62971 19.6021 6.29215C19.2645 5.95458 18.8067 5.76494 18.3293 5.76494Z" fill="#292424"/>
</svg>
