<svg width="26" height="27" viewBox="0 0 26 27" fill="none" xmlns="http://www.w3.org/2000/svg">
<path d="M9.62695 24.0759C10.5244 24.0759 11.252 23.3484 11.252 22.4509C11.252 21.5535 10.5244 20.8259 9.62695 20.8259C8.72949 20.8259 8.00195 21.5535 8.00195 22.4509C8.00195 23.3484 8.72949 24.0759 9.62695 24.0759Z" fill="#333333"/>
<path d="M19.5 24.0759C20.3975 24.0759 21.125 23.3484 21.125 22.4509C21.125 21.5535 20.3975 20.8259 19.5 20.8259C18.6025 20.8259 17.875 21.5535 17.875 22.4509C17.875 23.3484 18.6025 24.0759 19.5 24.0759Z" fill="#333333"/>
<path d="M2.43317 4.33923L4.97575 5.11829L8.25443 15.4758L7.12253 16.4006L7.12221 16.4002L7.11509 16.4073L7.0212 16.5012L7.02103 16.5011L7.01639 16.5064C6.70816 16.8616 6.53345 17.3132 6.52235 17.7834C6.51126 18.2535 6.66447 18.7128 6.9556 19.0822L6.95558 19.0822L6.9569 19.0838C7.16366 19.3352 7.42639 19.5348 7.72408 19.6665C8.02102 19.7979 8.34451 19.8582 8.6688 19.8425H20.7202C20.9383 19.8425 21.1474 19.7559 21.3016 19.6017C21.4558 19.4475 21.5425 19.2383 21.5425 19.0203C21.5425 18.8022 21.4558 18.5931 21.3016 18.4389C21.1474 18.2847 20.9383 18.1981 20.7202 18.1981H8.55259C8.48718 18.1955 8.42349 18.1763 8.36758 18.1423C8.3112 18.1079 8.26463 18.0596 8.23238 18.002C8.20012 17.9444 8.18326 17.8795 8.18344 17.8135C8.18359 17.7532 8.19792 17.6939 8.22516 17.6404L9.923 16.2314H21.0369C21.2265 16.2357 21.4118 16.1744 21.5614 16.0577C21.7113 15.9408 21.816 15.7755 21.8578 15.59L24.1472 5.47903L24.1472 5.47904L24.1477 5.47693C24.1727 5.35436 24.1694 5.22769 24.138 5.10658C24.1068 4.98588 24.0485 4.87388 23.9676 4.77903C23.8912 4.68519 23.7951 4.60935 23.686 4.55694C23.5766 4.50434 23.4568 4.47664 23.3354 4.47581L23.3331 4.47585L6.59088 4.74189L6.42172 4.20628L6.42155 4.20575C6.3809 4.0795 6.31032 3.96496 6.21583 3.8719C6.12136 3.77886 6.00578 3.71005 5.87897 3.67133C5.87894 3.67132 5.87891 3.67131 5.87888 3.6713L2.91796 2.76136L2.91796 2.76136C2.81435 2.72952 2.70549 2.7184 2.59759 2.72864C2.48969 2.73887 2.38487 2.77026 2.2891 2.82101C2.09568 2.92349 1.9509 3.09862 1.8866 3.30785C1.82231 3.51709 1.84376 3.74329 1.94625 3.93671C2.04874 4.13013 2.22386 4.27491 2.4331 4.3392L2.43317 4.33923Z" fill="#292424" stroke="#292424" stroke-width="0.2"/>
</svg>
