<svg width="31" height="30" viewBox="0 0 31 30" fill="none" xmlns="http://www.w3.org/2000/svg">
<path d="M25.7292 11.25H14.4792C13.0985 11.25 11.9792 12.3693 11.9792 13.75V25C11.9792 26.3807 13.0985 27.5 14.4792 27.5H25.7292C27.1099 27.5 28.2292 26.3807 28.2292 25V13.75C28.2292 12.3693 27.1099 11.25 25.7292 11.25Z" stroke="#333333" stroke-width="2" stroke-linecap="round" stroke-linejoin="round"/>
<path d="M6.97919 18.75H5.72919C5.06615 18.75 4.43026 18.4866 3.96142 18.0178C3.49258 17.5489 3.22919 16.913 3.22919 16.25V5C3.22919 4.33696 3.49258 3.70107 3.96142 3.23223C4.43026 2.76339 5.06615 2.5 5.72919 2.5H16.9792C17.6422 2.5 18.2781 2.76339 18.747 3.23223C19.2158 3.70107 19.4792 4.33696 19.4792 5V6.25" stroke="#333333" stroke-width="2" stroke-linecap="round" stroke-linejoin="round"/>
</svg>
