<svg width="34" height="34" viewBox="0 0 34 34" fill="none" xmlns="http://www.w3.org/2000/svg">
<path d="M22.7304 21.0597L14.13 12.8932L19.7645 12.231C20.0282 12.1998 20.2687 12.0651 20.4331 11.8566C20.5975 11.648 20.6724 11.3827 20.6412 11.119C20.61 10.8553 20.4753 10.6148 20.2667 10.4504C20.0582 10.286 19.7929 10.2112 19.5292 10.2424L11.7719 11.1504C11.7146 11.1619 11.6583 11.1775 11.6033 11.1972C11.5689 11.2335 11.5482 11.2552 11.4631 11.2433C11.3512 11.2952 11.25 11.3674 11.1644 11.4562C11.0802 11.5462 11.0134 11.6511 10.9673 11.7654C10.9329 11.8017 10.9122 11.8234 10.9285 11.9079C10.9117 11.9638 10.899 12.0209 10.8905 12.0786L10.3848 19.8725C10.3752 20.0191 10.3981 20.166 10.4518 20.3028C10.5054 20.4395 10.5886 20.5628 10.6953 20.6638C10.8644 20.825 11.0846 20.9219 11.3177 20.9377C11.449 20.9465 11.5807 20.9294 11.7053 20.8873C11.8299 20.8451 11.945 20.7788 12.0439 20.6922C12.1428 20.6055 12.2237 20.5002 12.2819 20.3822C12.3401 20.2643 12.3744 20.136 12.3829 20.0047L12.7528 14.3435L21.3532 22.5101C21.5455 22.6927 21.8025 22.7914 22.0676 22.7846C22.3328 22.7777 22.5843 22.6658 22.7669 22.4735C22.9496 22.2812 23.0483 22.0242 23.0414 21.759C23.0346 21.4939 22.9227 21.2424 22.7304 21.0597Z" fill="#333333"/>
</svg>
