<svg width="29" height="28" viewBox="0 0 29 28" fill="none" xmlns="http://www.w3.org/2000/svg">
<path d="M13.0583 2.95397C13.5317 2.555 14.1309 2.33618 14.75 2.33618C15.3691 2.33618 15.9683 2.555 16.4417 2.95397L24.3167 9.59464C24.9082 10.094 25.25 10.8278 25.25 11.6013V23.0381C25.25 23.5796 25.0349 24.0989 24.652 24.4818C24.2691 24.8647 23.7498 25.0798 23.2083 25.0798H19.125C18.5835 25.0798 18.0642 24.8647 17.6813 24.4818C17.2984 24.0989 17.0833 23.5796 17.0833 23.0381V16.6215C17.0833 16.5441 17.0526 16.4699 16.9979 16.4152C16.9432 16.3605 16.869 16.3298 16.7917 16.3298H12.7083C12.631 16.3298 12.5568 16.3605 12.5021 16.4152C12.4474 16.4699 12.4167 16.5441 12.4167 16.6215V23.0381C12.4167 23.5796 12.2016 24.0989 11.8187 24.4818C11.4358 24.8647 10.9165 25.0798 10.375 25.0798H6.29167C6.02355 25.0798 5.75806 25.027 5.51035 24.9244C5.26265 24.8218 5.03758 24.6714 4.84799 24.4818C4.6584 24.2922 4.50802 24.0672 4.40541 23.8195C4.30281 23.5717 4.25 23.3063 4.25 23.0381V11.6013C4.25 10.8278 4.59183 10.094 5.18333 9.59464L13.0583 2.95397ZM15.3135 4.29214C15.1558 4.15935 14.9562 4.08654 14.75 4.08654C14.5438 4.08654 14.3442 4.15935 14.1865 4.29214L6.3115 10.9316C6.21405 11.0137 6.13568 11.116 6.08188 11.2315C6.02807 11.3469 6.00013 11.4728 6 11.6001V23.037C6 23.198 6.13067 23.3286 6.29167 23.3286H10.375C10.4524 23.3286 10.5265 23.2979 10.5812 23.2432C10.6359 23.1885 10.6667 23.1143 10.6667 23.037V16.6203C10.6667 15.4921 11.5813 14.5786 12.7083 14.5786H16.7917C17.9187 14.5786 18.8333 15.4921 18.8333 16.6203V23.037C18.8333 23.198 18.964 23.3286 19.125 23.3286H23.2083C23.2857 23.3286 23.3599 23.2979 23.4146 23.2432C23.4693 23.1885 23.5 23.1143 23.5 23.037V11.6013C23.4999 11.4739 23.4719 11.3481 23.4181 11.2326C23.3643 11.1172 23.286 11.0148 23.1885 10.9328L15.3135 4.29214Z" fill="#292424"/>
</svg>
