<svg width="26" height="27" viewBox="0 0 26 27" fill="none" xmlns="http://www.w3.org/2000/svg">
<path d="M14.303 4.06929C13.9451 3.74772 13.4809 3.56982 12.9997 3.56982C12.5186 3.56982 12.0544 3.74772 11.6965 4.06929L4.54649 10.4939C4.3432 10.6767 4.18062 10.9002 4.06932 11.1499C3.95801 11.3997 3.90045 11.67 3.90039 11.9434V21.1149C3.90039 21.6321 4.10584 22.1281 4.47153 22.4938C4.83723 22.8594 5.33322 23.0649 5.85039 23.0649H8.45039C8.96756 23.0649 9.46355 22.8594 9.82925 22.4938C10.1949 22.1281 10.4004 21.6321 10.4004 21.1149V15.9149C10.4004 15.7425 10.4689 15.5772 10.5908 15.4553C10.7127 15.3334 10.878 15.2649 11.0504 15.2649H14.9504C15.1228 15.2649 15.2881 15.3334 15.41 15.4553C15.5319 15.5772 15.6004 15.7425 15.6004 15.9149V21.1149C15.6004 21.6321 15.8058 22.1281 16.1715 22.4938C16.5372 22.8594 17.0332 23.0649 17.5504 23.0649H20.1504C20.6676 23.0649 21.1636 22.8594 21.5292 22.4938C21.8949 22.1281 22.1004 21.6321 22.1004 21.1149V11.9434C22.1003 11.67 22.0428 11.3997 21.9315 11.1499C21.8202 10.9002 21.6576 10.6767 21.4543 10.4939L14.3043 4.06929H14.303Z" fill="#333333"/>
</svg>
