<svg width="27" height="27" viewBox="0 0 27 27" fill="none" xmlns="http://www.w3.org/2000/svg">
<g clip-path="url(#clip0_4237_7465)">
<path d="M5.2627 8.71484C5.2627 8.02449 5.85956 7.46484 6.59582 7.46484H7.92895C8.6652 7.46484 9.26207 8.02449 9.26207 8.71484C9.26207 9.40519 8.6652 9.96484 7.92895 9.96484H6.59582C5.85956 9.96484 5.2627 9.40519 5.2627 8.71484ZM11.9283 8.71484C11.9283 8.02449 12.5252 7.46484 13.2614 7.46484H25.2596C25.9959 7.46484 26.5927 8.02449 26.5927 8.71484C26.5927 9.40519 25.9959 9.96484 25.2596 9.96484H13.2614C12.5252 9.96484 11.9283 9.40519 11.9283 8.71484ZM5.2627 14.9648C5.2627 14.2745 5.85956 13.7148 6.59582 13.7148H7.92895C8.6652 13.7148 9.26207 14.2745 9.26207 14.9648C9.26207 15.6552 8.6652 16.2148 7.92895 16.2148H6.59582C5.85956 16.2148 5.2627 15.6552 5.2627 14.9648ZM11.9283 14.9648C11.9283 14.2745 12.5252 13.7148 13.2614 13.7148H25.2596C25.9959 13.7148 26.5927 14.2745 26.5927 14.9648C26.5927 15.6552 25.9959 16.2148 25.2596 16.2148H13.2614C12.5252 16.2148 11.9283 15.6552 11.9283 14.9648ZM5.2627 21.2148C5.2627 20.5245 5.85956 19.9648 6.59582 19.9648H7.92895C8.6652 19.9648 9.26207 20.5245 9.26207 21.2148C9.26207 21.9052 8.6652 22.4648 7.92895 22.4648H6.59582C5.85956 22.4648 5.2627 21.9052 5.2627 21.2148ZM11.9283 21.2148C11.9283 20.5245 12.5252 19.9648 13.2614 19.9648H25.2596C25.9959 19.9648 26.5927 20.5245 26.5927 21.2148C26.5927 21.9052 25.9959 22.4648 25.2596 22.4648H13.2614C12.5252 22.4648 11.9283 21.9052 11.9283 21.2148Z" fill="#292424"/>
</g>
<defs>
<clipPath id="clip0_4237_7465">
<rect width="26" height="26" fill="white" transform="translate(0.929688 0.964844)"/>
</clipPath>
</defs>
</svg>
