<svg width="20" height="21" viewBox="0 0 20 21" fill="none" xmlns="http://www.w3.org/2000/svg">
<path d="M9.99967 10.9649C9.08301 10.9649 8.33301 10.2149 8.33301 9.29826C8.33301 8.38159 9.08301 7.63159 9.99967 7.63159C10.9163 7.63159 11.6663 8.38159 11.6663 9.29826C11.6663 10.2149 10.9163 10.9649 9.99967 10.9649ZM14.9997 9.46493C14.9997 6.43992 12.7913 4.29826 9.99967 4.29826C7.20801 4.29826 4.99967 6.43992 4.99967 9.46493C4.99967 11.4149 6.62467 13.9983 9.99967 17.0816C13.3747 13.9983 14.9997 11.4149 14.9997 9.46493ZM9.99967 2.63159C13.4997 2.63159 16.6663 5.31493 16.6663 9.46493C16.6663 12.2316 14.4413 15.5066 9.99967 19.2983C5.55801 15.5066 3.33301 12.2316 3.33301 9.46493C3.33301 5.31493 6.49967 2.63159 9.99967 2.63159Z" fill="#333333"/>
</svg>
