<svg width="331" height="172" viewBox="0 0 331 172" fill="none" xmlns="http://www.w3.org/2000/svg">
    <defs>
        <linearGradient id="paint0_linear_4028_8778" x1="204.489" y1="38.4805" x2="191.714" y2="34.0417" gradientUnits="userSpaceOnUse">
            <stop stop-color="#4486D0"/>
            <stop offset="0.27948" stop-color="#3380C6"/>
            <stop offset="0.71661" stop-color="#1D78BA"/>
            <stop offset="1" stop-color="#1575B5"/>
        </linearGradient>
        <linearGradient id="paint1_linear_4028_8778" x1="8570.96" y1="3002.55" x2="9122.64" y2="3002.55" gradientUnits="userSpaceOnUse">
            <stop stop-color="#4486D0"/>
            <stop offset="0.27948" stop-color="#3380C6"/>
            <stop offset="0.71661" stop-color="#1D78BA"/>
            <stop offset="1" stop-color="#1575B5"/>
        </linearGradient>
        <linearGradient id="paint2_linear_4028_8778" x1="156.756" y1="94.1366" x2="144.769" y2="99.3307" gradientUnits="userSpaceOnUse">
            <stop stop-color="#D03532"/>
            <stop offset="0.27948" stop-color="#C62427"/>
            <stop offset="0.71661" stop-color="#BA0E19"/>
            <stop offset="1" stop-color="#B50614"/>
        </linearGradient>
        <linearGradient id="paint3_linear_4028_8778" x1="6417.42" y1="4685.41" x2="6942.81" y2="4685.41" gradientUnits="userSpaceOnUse">
            <stop stop-color="#D03532"/>
            <stop offset="0.27948" stop-color="#C62427"/>
            <stop offset="0.71661" stop-color="#BA0E19"/>
            <stop offset="1" stop-color="#B50614"/>
        </linearGradient>
        <linearGradient id="paint4_linear_4028_8778" x1="160.699" y1="168.265" x2="153.229" y2="168.265" gradientUnits="userSpaceOnUse">
            <stop stop-color="#343A44"/>
            <stop offset="0.3009" stop-color="#232D3E"/>
            <stop offset="0.6391" stop-color="#182439"/>
            <stop offset="1" stop-color="#142138"/>
        </linearGradient>
        <linearGradient id="paint5_linear_4028_8778" x1="158.713" y1="168.265" x2="155.215" y2="168.265" gradientUnits="userSpaceOnUse">
            <stop stop-color="#EEF4FB"/>
            <stop offset="0.31145" stop-color="#E3EDF8"/>
            <stop offset="1" stop-color="#CFE1F3"/>
        </linearGradient>
        <linearGradient id="paint6_linear_4028_8778" x1="2594.68" y1="2761.71" x2="2686.26" y2="2761.71" gradientUnits="userSpaceOnUse">
            <stop stop-color="#343A44"/>
            <stop offset="0.3009" stop-color="#232D3E"/>
            <stop offset="0.6391" stop-color="#182439"/>
            <stop offset="1" stop-color="#142138"/>
        </linearGradient>
        <linearGradient id="paint7_linear_4028_8778" x1="1290.06" y1="1382.94" x2="1310.15" y2="1382.94" gradientUnits="userSpaceOnUse">
            <stop stop-color="#EEF4FB"/>
            <stop offset="0.31145" stop-color="#E3EDF8"/>
            <stop offset="1" stop-color="#CFE1F3"/>
        </linearGradient>
    </defs>
<path d="M138.819 40.042C138.594 39.5707 138.492 39.0498 138.523 38.5282C138.555 38.0067 138.718 37.5017 138.999 37.061C140.34 35.0597 143.692 35.4928 143.692 35.4928L144.718 33.447C142.927 33.2434 141.125 33.7281 139.678 34.8028C138.785 35.4314 138.078 36.2901 137.632 37.2879C137.187 38.2856 137.02 39.3853 137.149 40.4702L138.819 40.042Z" fill="#FFBB23"/>
<path d="M139.364 43.1621C139.364 43.1621 132.649 38.1478 131.152 40.5506C129.655 42.9534 133.397 46.9597 134.903 46.7948C136.638 46.6049 139.216 44.1703 139.216 44.1703L138.824 47.2464C138.824 47.2464 137.608 48.0587 134.43 47.6478C131.017 47.2065 128.666 42.7334 130.291 40.6219C132.168 38.1827 139.238 38.5662 139.238 38.5662L139.364 43.1621Z" fill="#FFBB23"/>
<path d="M133.847 37.8171C131.53 36.9931 129.034 37.0009 127.628 37.9747L127.418 36.2324C127.418 36.2324 131.745 32.057 137.426 39.2779L136.431 39.91C136.431 39.91 136.613 38.8009 133.847 37.8171Z" fill="#FFBB23"/>
<path d="M137.688 37.9838C137.301 34.6359 136.655 31.3937 137.609 30.7795C138.562 30.1653 141.008 34.312 138.702 39.5839L142.003 41.7676C141.873 38.4929 141.1 35.2758 139.725 32.3006C137.482 27.6231 134.431 31.4092 136.782 39.1015L137.688 37.9838Z" fill="#FFBB23"/>
<path d="M152.228 37.9658L127.008 51.3952L138.837 72.5845L164.059 59.1552L152.228 37.9658Z" fill="#4FAE86"/>
<path d="M152.98 37.71L126.617 51.7162L123.395 46.1717L150.295 31.9377L152.98 37.71Z" fill="#4FAE86"/>
<path d="M153.94 64.5833L150.55 66.3761L135.313 39.8347L138.704 38.042L153.94 64.5833Z" fill="#FFBB23"/>
<path d="M322.41 170.884L225.464 171.53C224.382 171.537 223.309 171.331 222.307 170.924C221.305 170.516 220.392 169.915 219.622 169.156C218.852 168.396 218.239 167.492 217.819 166.495C217.398 165.498 217.178 164.428 217.171 163.346L216.23 8.93852C216.223 7.85669 216.429 6.78403 216.837 5.7818C217.244 4.77957 217.845 3.86738 218.604 3.09733C219.364 2.32727 220.268 1.71443 221.265 1.29379C222.262 0.873149 223.332 0.652948 224.414 0.645762L321.36 0.000182885C322.442 -0.00702546 323.515 0.198917 324.517 0.606254C325.519 1.01359 326.431 1.61434 327.201 2.37421C327.972 3.13408 328.584 4.03818 329.005 5.03489C329.426 6.0316 329.646 7.10141 329.653 8.18322L330.593 162.591C330.601 163.673 330.395 164.746 329.987 165.748C329.58 166.75 328.979 167.662 328.219 168.432C327.459 169.202 326.555 169.815 325.559 170.236C324.562 170.657 323.492 170.877 322.41 170.884Z" fill="#FFC60B"/>
<path d="M276.937 160.95C276.943 161.782 276.701 162.596 276.244 163.291C275.786 163.986 275.133 164.529 274.366 164.853C273.6 165.176 272.755 165.265 271.938 165.108C271.121 164.951 270.369 164.556 269.777 163.972C269.185 163.387 268.779 162.641 268.611 161.826C268.444 161.011 268.521 160.165 268.834 159.394C269.148 158.623 269.682 157.963 270.371 157.496C271.06 157.029 271.871 156.777 272.703 156.772C273.255 156.768 273.803 156.873 274.315 157.081C274.826 157.289 275.292 157.596 275.685 157.984C276.078 158.372 276.391 158.833 276.606 159.342C276.821 159.851 276.933 160.397 276.937 160.95Z" fill="#E7E8EB"/>
<g style="mix-blend-mode:multiply">
<path d="M288.486 12.4785L256.764 12.6897C256.42 12.692 256.089 12.5574 255.844 12.3155C255.599 12.0736 255.46 11.7442 255.457 11.3998C255.456 11.2293 255.489 11.0602 255.553 10.9023C255.617 10.7443 255.712 10.6005 255.831 10.4791C255.951 10.3577 256.094 10.2611 256.251 10.1948C256.408 10.1285 256.577 10.0938 256.747 10.0926L288.468 9.88135C288.639 9.88022 288.808 9.91268 288.966 9.97689C289.124 10.0411 289.268 10.1358 289.389 10.2556C289.511 10.3753 289.607 10.5179 289.673 10.675C289.74 10.8321 289.774 11.0007 289.776 11.1712C289.777 11.3418 289.744 11.5109 289.68 11.6688C289.616 11.8268 289.521 11.9706 289.401 12.092C289.282 12.2134 289.139 12.31 288.982 12.3763C288.825 12.4426 288.656 12.4773 288.486 12.4785Z" fill="#CFCFCF"/>
</g>
<path d="M326.217 18.6156L220.128 19.322L221.009 151.609L327.098 150.903L326.217 18.6156Z" fill="white"/>
<path d="M254.24 70.2427L305.102 69.9039L305.079 66.5504L254.218 66.8891L254.24 70.2427Z" fill="#C9CDD8"/>
<path d="M309.153 69.877L312.539 69.8545L312.517 66.501L309.131 66.5235L309.153 69.877Z" fill="#42B2FC"/>
<path d="M309.201 76.9822L312.587 76.9596L312.564 73.6062L309.179 73.6288L309.201 76.9822Z" fill="#42B2FC"/>
<path d="M309.248 84.0874L312.634 84.0648L312.611 80.7114L309.226 80.734L309.248 84.0874Z" fill="#42B2FC"/>
<path d="M262.112 77.2958L305.149 77.0092L305.126 73.6558L262.09 73.9424L262.112 77.2958Z" fill="#C9CDD8"/>
<path d="M279.477 105.432L305.337 105.259L305.315 101.906L279.455 102.078L279.477 105.432Z" fill="#C9CDD8"/>
<path d="M251.72 84.5349L305.196 84.1146L305.173 80.7612L251.698 81.1815L251.72 84.5349Z" fill="#C9CDD8"/>
<path d="M247.674 91.603L305.243 91.2197L305.221 87.8662L247.652 88.2495L247.674 91.603Z" fill="#C9CDD8"/>
<path d="M253.151 52.5199L293.486 52.2513L293.405 40.138L253.071 40.4066L253.151 52.5199Z" fill="#42B2FC"/>
<path d="M293.425 130.406L250.864 130.689C250.765 130.69 250.666 130.671 250.573 130.633C250.481 130.596 250.397 130.54 250.326 130.47C250.255 130.4 250.199 130.317 250.16 130.225C250.121 130.133 250.101 130.035 250.1 129.935L250.047 121.982C250.046 121.78 250.124 121.587 250.266 121.443C250.407 121.3 250.6 121.219 250.801 121.217L293.361 120.934C293.563 120.933 293.756 121.012 293.9 121.153C294.043 121.294 294.124 121.487 294.126 121.688L294.179 129.641C294.18 129.843 294.101 130.036 293.96 130.18C293.818 130.323 293.626 130.404 293.425 130.406Z" fill="#00B76C"/>
<path d="M275.571 127.841C275.568 127.397 275.652 126.996 275.823 126.64C275.997 126.284 276.238 126.009 276.547 125.814C276.859 125.619 277.215 125.52 277.614 125.517C278.232 125.513 278.732 125.724 279.115 126.149C279.501 126.574 279.696 127.141 279.701 127.851L279.701 127.906C279.704 128.347 279.621 128.745 279.453 129.098C279.288 129.448 279.048 129.722 278.734 129.92C278.422 130.118 278.062 130.218 277.654 130.221C277.039 130.225 276.539 130.014 276.153 129.589C275.77 129.164 275.576 128.6 275.572 127.895L275.571 127.841ZM276.352 127.928C276.355 128.431 276.474 128.834 276.708 129.137C276.944 129.44 277.258 129.59 277.65 129.588C278.044 129.585 278.356 129.429 278.586 129.12C278.816 128.809 278.929 128.375 278.925 127.819C278.922 127.321 278.8 126.919 278.561 126.614C278.324 126.305 278.01 126.152 277.618 126.155C277.236 126.157 276.928 126.311 276.695 126.618C276.462 126.924 276.348 127.361 276.352 127.928ZM279.868 139.053L280.716 135.581L281.492 135.576L280.202 140.12L279.573 140.124L278.447 136.694L277.397 140.139L276.768 140.143L275.422 135.616L276.193 135.611L277.109 139.001L278.142 135.598L278.767 135.594L279.868 139.053Z" fill="white"/>
<path d="M219.722 49.6317L200.144 72.3366L227.043 95.8152L246.985 73.4167L219.722 49.6317Z" fill="#FF5E69"/>
<path d="M211.847 58.6313L208.633 62.4909L235.878 86.1546L239.243 82.4254L211.847 58.6313Z" fill="#FFBB23"/>
<path d="M211.665 82.3858L215.719 85.9311L235.345 63.2597L231.181 59.6194L211.665 82.3858Z" fill="#FFBB23"/>
<path d="M196.821 55.0099L175.324 45.6107L188.171 13.6058L209.668 23.005L196.821 55.0099Z" fill="url(#paint0_linear_4028_8778)"/>
<path d="M178.765 37.0381L175.324 45.6107L196.821 55.0099L200.262 46.4373L178.765 37.0381Z" fill="url(#paint1_linear_4028_8778)"/>
<path d="M188.96 51.573L167.463 42.1732L182.556 11.1509L204.053 20.5501L188.96 51.573Z" fill="#42B2FC"/>
<path d="M171.506 33.8638L167.463 42.1732L188.96 51.573L193.003 43.263L171.506 33.8638Z" fill="#42B2FC"/>
<path d="M196.581 20.8111L195.866 22.4475C195.395 23.5245 194.515 24.3703 193.421 24.7989C192.326 25.2274 191.106 25.2037 190.029 24.7328V24.7328C188.952 24.2619 188.107 23.3825 187.678 22.2879C187.25 21.1934 187.273 19.9735 187.744 18.8966L188.46 17.26" stroke="white" stroke-linecap="round" stroke-linejoin="round"/>
<path d="M145.524 123.205C145.524 123.205 156.351 107.344 158.241 104.556C160.131 101.767 162.374 99.8435 165.676 100.689C168.979 101.535 186.21 109.75 192.993 112.135C195.949 113.148 199.021 113.784 202.137 114.027C203.688 114.108 205.222 113.666 206.492 112.772L200.846 119.024C200.846 119.024 186.599 115.994 180.69 114.645C174.782 113.296 166.082 109.536 166.082 109.536L157.028 131.111L145.524 123.205Z" fill="#F0AE95"/>
<path d="M198.652 118.311L203.086 122.351L204.108 122.09L202.892 119.992L207.334 119.267L212.552 109.32L206.492 112.772C206.492 112.772 202.743 117.811 198.652 118.311Z" fill="#FF5E69"/>
<path d="M118.032 77.2103C118.793 79.016 119.016 81.3412 119.24 83.9111C119.464 86.481 120.168 91.291 118.758 92.5148C118.233 92.9703 115.33 93.174 114.341 94.6245C113.552 95.7814 112.142 93.3552 110.431 92.0188C106.038 88.5863 100.448 85.6244 104.475 80.7294C108.502 75.8341 118.032 77.2103 118.032 77.2103Z" fill="#FEC4AD"/>
<path d="M108.798 72.4074C106.564 72.7427 104.473 73.7147 102.777 75.2071C99.2093 78.3214 98.5424 83.2013 98.9357 89.5919C99.6389 101.02 94.349 98.4138 91.2001 104.712C87.5081 112.096 95.0569 120.235 104.386 116.842C110.188 114.733 112.901 110.016 109.085 96.4485C104.338 79.5707 114.008 78.1643 114.008 78.1643L108.798 72.4074Z" fill="#471A16"/>
<path d="M116.517 74.8239C117.591 76.3284 119.477 77.3023 118.65 79.2603C117.823 81.2184 113.337 80.4846 113.113 82.4426C112.889 84.4006 112.685 85.3902 112.685 85.3902C112.293 84.857 111.076 83.4621 109.638 84.5807C108.218 85.6857 109.98 88.5003 112.929 88.7451L110.431 92.0188C110.431 92.0188 110.222 97.128 107.204 95.4148C104.186 93.7014 101.287 90.1709 101.119 83.7888C100.903 75.5894 105.962 73.0194 108.798 72.4074C111.634 71.7956 115.198 72.9779 116.517 74.8239Z" fill="#471A16"/>
<path d="M114.542 92.4777C114.542 95.7661 114.416 97.3116 115.685 98.2294C114.288 98.6877 112.829 98.9251 111.36 98.9331C109.964 98.9389 108.572 98.801 107.204 98.5215L108.883 89.5573L116.46 90.03L114.542 92.4777Z" fill="#FEC4AD"/>
<path d="M108.981 99.1844C108.981 99.1844 110.252 105.36 113.65 105.86C117.048 106.36 118.193 102.607 118.193 102.607C118.193 102.607 110.99 100.485 110.286 98.2721L108.981 99.1844Z" fill="white"/>
<path d="M149.136 117.675C149.136 117.675 165.213 106.647 167.734 104.413C170.255 102.178 172.904 100.869 175.894 102.506C178.885 104.142 191.887 114.7 197.869 118.688C200.483 120.401 203.302 121.777 206.261 122.783C207.744 123.245 209.339 123.197 210.791 122.644L203.775 127.305C203.775 127.305 191.55 121.678 186.159 118.909C180.768 116.141 174.099 111.177 174.099 111.177L158.328 128.18L149.136 117.675Z" fill="#FEC4AD"/>
<path d="M201.825 126.072L205.121 131.083H206.176L205.517 128.75L210 129.145L217.516 120.798L210.791 122.644C210.791 122.644 205.913 126.6 201.825 126.072Z" fill="#FF5E69"/>
<path d="M107.445 97.4197C107.445 97.4197 104.454 105.202 109.958 117.919C111.891 122.384 121.681 131.775 126.046 135.191C130.412 138.608 136.675 143.543 139.333 144.112C141.99 144.681 153.568 143.353 158.313 141.075C163.058 138.797 164.747 140.323 164.747 140.323C164.747 140.323 164.957 129.497 161.35 125.701C157.744 121.905 150.968 114.916 150.968 114.916C150.968 114.916 139.936 124.005 138.797 123.435C137.658 122.866 128.19 107.65 127.241 105.942C126.292 104.234 116.719 97.4197 114.821 97.23C113.772 98.0435 112.491 98.5006 111.164 98.5347C109.837 98.5689 108.534 98.1782 107.445 97.4197Z" fill="#0C0D26"/>
<path d="M112.25 89.5919C109.752 92.8655 110.843 96.9759 113.129 101.723C115.414 106.47 108.605 111.041 99.6389 112.095C88.534 113.402 103.635 90.471 105.041 88.1854C106.448 85.8999 112.25 89.5919 112.25 89.5919Z" fill="#471A16"/>
<path d="M119.24 83.9111C119.352 85.0647 120.604 87.0427 120.275 87.7679C119.945 88.4931 118.626 88.6249 118.626 88.6249L119.24 83.9111Z" fill="#FEC4AD"/>
<path d="M162.101 110.897L140.67 118.264L128.886 87.1067L150.318 79.7396L162.101 110.897Z" fill="url(#paint2_linear_4028_8778)"/>
<path d="M137.514 109.918L140.67 118.264L162.101 110.897L158.945 102.551L137.514 109.918Z" fill="url(#paint3_linear_4028_8778)"/>
<path d="M154.265 113.591L132.834 120.959L123.289 89.031L144.72 81.664L154.265 113.591Z" fill="#FF5E69"/>
<path d="M130.277 112.406L132.833 120.959L154.265 113.591L151.708 105.039L130.277 112.406Z" fill="#FF5E69"/>
<path d="M139.578 86.7331L140.138 88.3645C140.321 88.8961 140.397 89.4586 140.363 90.0197C140.328 90.5808 140.183 91.1296 139.937 91.6347C139.69 92.1399 139.346 92.5915 138.925 92.9638C138.504 93.3361 138.013 93.6218 137.482 93.8045C136.95 93.9873 136.388 94.0635 135.826 94.0289C135.265 93.9943 134.717 93.8496 134.211 93.6029C133.706 93.3562 133.255 93.0124 132.882 92.5911C132.51 92.1699 132.224 91.6795 132.042 91.1478L131.481 89.5164" stroke="white" stroke-linecap="round" stroke-linejoin="round"/>
<path d="M106.878 106.996L174.697 110.975C174.771 110.979 174.844 111.001 174.909 111.038C174.974 111.076 175.029 111.128 175.07 111.19C175.111 111.253 175.137 111.324 175.146 111.399C175.155 111.473 175.146 111.548 175.121 111.619L171.549 121.502L164.747 140.323L116.08 148.77L103.586 94.112C103.479 93.6058 103.222 93.1434 102.85 92.7846C102.477 92.4258 102.005 92.1871 101.495 92.0995L89.0725 89.3549" stroke="#B6C8E1" stroke-width="3" stroke-linecap="round" stroke-linejoin="round"/>
<path d="M168.009 110.546L159.141 141.296" stroke="#B6C8E1" stroke-linecap="round" stroke-linejoin="round"/>
<path d="M160.65 110.079L153.586 142.26" stroke="#B6C8E1" stroke-linecap="round" stroke-linejoin="round"/>
<path d="M153.262 109.609L148.082 143.216" stroke="#B6C8E1" stroke-linecap="round" stroke-linejoin="round"/>
<path d="M145.845 109.137L142.627 144.162" stroke="#B6C8E1" stroke-linecap="round" stroke-linejoin="round"/>
<path d="M138.4 108.664L137.222 145.1" stroke="#B6C8E1" stroke-linecap="round" stroke-linejoin="round"/>
<path d="M130.925 108.189L131.865 146.03" stroke="#B6C8E1" stroke-linecap="round" stroke-linejoin="round"/>
<path d="M123.422 107.711L126.557 146.951" stroke="#B6C8E1" stroke-linecap="round" stroke-linejoin="round"/>
<path d="M113.311 107.232L121.295 147.865" stroke="#B6C8E1" stroke-linecap="round" stroke-linejoin="round"/>
<path d="M110.138 119.616L171.549 121.502" stroke="#B6C8E1" stroke-linecap="round" stroke-linejoin="round"/>
<path d="M113.393 136.052L168.009 132.034" stroke="#B6C8E1" stroke-linecap="round" stroke-linejoin="round"/>
<path d="M116.08 148.77L110.886 162.814C110.787 163.018 110.742 163.243 110.754 163.469C110.767 163.696 110.836 163.915 110.957 164.107C111.077 164.299 111.244 164.457 111.442 164.567C111.64 164.677 111.863 164.734 112.09 164.734H157.213" stroke="#B6C8E1" stroke-width="2" stroke-linecap="round" stroke-linejoin="round"/>
<path d="M153.229 168.265C153.23 169.004 153.449 169.726 153.859 170.34C154.269 170.954 154.853 171.433 155.535 171.716C156.217 171.998 156.968 172.072 157.693 171.928C158.417 171.784 159.083 171.428 159.605 170.906C160.127 170.384 160.483 169.718 160.627 168.994C160.771 168.269 160.697 167.519 160.414 166.836C160.132 166.154 159.653 165.571 159.039 165.16C158.425 164.75 157.703 164.531 156.964 164.531C156.474 164.531 155.988 164.627 155.535 164.815C155.082 165.003 154.67 165.278 154.323 165.625C153.976 165.971 153.701 166.383 153.514 166.836C153.326 167.289 153.229 167.775 153.229 168.265Z" fill="url(#paint4_linear_4028_8778)"/>
<path style="mix-blend-mode:multiply" d="M155.215 168.265C155.215 168.611 155.317 168.95 155.51 169.237C155.702 169.525 155.975 169.749 156.295 169.881C156.614 170.014 156.966 170.049 157.305 169.981C157.645 169.914 157.956 169.747 158.201 169.502C158.446 169.258 158.612 168.946 158.68 168.607C158.747 168.267 158.713 167.916 158.58 167.596C158.448 167.276 158.224 167.003 157.936 166.811C157.648 166.619 157.31 166.516 156.964 166.516C156.734 166.516 156.507 166.561 156.295 166.649C156.082 166.737 155.89 166.866 155.727 167.029C155.565 167.191 155.436 167.384 155.348 167.596C155.26 167.808 155.215 168.036 155.215 168.265Z" fill="url(#paint5_linear_4028_8778)"/>
<path d="M156.964 169.165C157.461 169.165 157.945 169.001 158.339 168.699C158.734 168.396 159.018 167.972 159.148 167.492L160.055 164.129H153.873L154.78 167.492C154.91 167.972 155.194 168.396 155.589 168.699C155.983 169.001 156.467 169.165 156.964 169.165Z" fill="#B6C8E1"/>
<path d="M115.536 168.265C115.536 169.004 115.755 169.726 116.165 170.34C116.575 170.954 117.159 171.433 117.841 171.716C118.524 171.998 119.274 172.072 119.999 171.928C120.723 171.784 121.389 171.428 121.911 170.906C122.433 170.384 122.789 169.718 122.933 168.994C123.077 168.269 123.003 167.519 122.721 166.836C122.438 166.154 121.959 165.57 121.345 165.16C120.731 164.75 120.009 164.531 119.27 164.531C118.78 164.531 118.294 164.627 117.841 164.815C117.388 165.003 116.976 165.278 116.629 165.625C116.283 165.971 116.008 166.383 115.82 166.836C115.632 167.289 115.536 167.775 115.536 168.265Z" fill="url(#paint6_linear_4028_8778)"/>
<path style="mix-blend-mode:multiply" d="M117.521 168.265C117.521 168.611 117.624 168.95 117.816 169.237C118.008 169.525 118.281 169.749 118.601 169.881C118.92 170.014 119.272 170.048 119.611 169.981C119.951 169.913 120.262 169.747 120.507 169.502C120.752 169.258 120.918 168.946 120.986 168.607C121.053 168.267 121.019 167.916 120.886 167.596C120.754 167.276 120.53 167.003 120.242 166.811C119.954 166.619 119.616 166.516 119.27 166.516C119.04 166.516 118.813 166.561 118.601 166.649C118.389 166.737 118.196 166.866 118.033 167.029C117.871 167.191 117.742 167.384 117.654 167.596C117.566 167.808 117.521 168.036 117.521 168.265Z" fill="url(#paint7_linear_4028_8778)"/>
<path d="M119.27 169.165C119.767 169.165 120.251 169.001 120.645 168.699C121.04 168.396 121.324 167.972 121.454 167.492L122.361 164.129H116.179L117.086 167.492C117.216 167.972 117.5 168.396 117.895 168.699C118.29 169.001 118.773 169.165 119.27 169.165Z" fill="#B6C8E1"/>
<path d="M115.373 152.095L161.48 143.216L164.747 140.323" stroke="#B6C8E1" stroke-width="2" stroke-linecap="round" stroke-linejoin="round"/>
<path d="M96.1157 92.1551L86.9249 90.9278C86.7567 90.9053 86.6043 90.817 86.5013 90.6821C86.3982 90.5473 86.353 90.3771 86.3754 90.2089L86.5779 88.693C86.6003 88.5248 86.6887 88.3724 86.8235 88.2694C86.9583 88.1663 87.1285 88.121 87.2967 88.1435L96.4875 89.3709C96.6557 89.3934 96.808 89.4817 96.9111 89.6165C97.0141 89.7513 97.0594 89.9215 97.0369 90.0896L96.8344 91.6058C96.8233 91.689 96.7959 91.7693 96.7538 91.842C96.7116 91.9146 96.6556 91.9783 96.5888 92.0293C96.5221 92.0803 96.446 92.1177 96.3648 92.1393C96.2836 92.1609 96.1989 92.1663 96.1157 92.1552L96.1157 92.1551Z" fill="#B6C8E1"/>
<path d="M149.024 102.047C149.024 102.047 151.063 97.9869 151.459 96.8001C151.854 95.6134 153.437 93.8992 153.437 93.8992L154.096 95.0859V96.1408L156.206 94.2948L157.261 95.6134L158.315 97.5913L159.107 99.9647C158.197 100.946 157.229 101.871 156.206 102.734C155.019 103.657 151.159 105.301 151.159 105.301L149.024 102.047Z" fill="#FEC4AD"/>
<path d="M149.024 102.047C147.252 103.295 145.233 105.323 142.474 107.555C140.233 109.4 137.899 111.13 135.482 112.737C135.482 112.737 122.887 103.527 121.235 102.616C119.583 101.705 117.4 99.8543 114.867 101.718C113.194 102.949 113.895 105.281 116.668 108.239C119.441 111.197 135.508 120.09 136.918 120.334C138.154 120.547 147.91 108.676 151.159 105.301C150.395 104.247 149.678 103.164 149.024 102.047Z" fill="#FEC4AD"/>
<path d="M111.858 78.6917C112.737 79.5707 113.792 82.4716 113.792 82.4716L120.033 79.9224C120.033 79.9224 119.945 75.0876 116.517 74.8239L111.858 78.6917Z" fill="#471A16"/>
<path d="M9.54907 152.025L0 157.428L3.92416 166.507L5.41414 160.075L11.6561 156.831L9.54907 152.025Z" fill="#0F2C3D"/>
<path d="M45.3869 107.425C44.6135 110.389 45.2075 134.832 45.0648 137.002C44.9222 139.171 7.444 160.169 7.444 160.169L5.19727 154.001L31.7316 130.098C31.7316 130.098 23.8937 105.815 27.557 100.765C31.2202 95.716 35.6244 94.6403 35.6244 94.6403L45.3869 107.425Z" fill="#0F2C3D"/>
<path d="M66.1621 161.268L69.9675 171.785L79.2412 170.966L73.1948 167.398L71.4112 159.924L66.1621 161.268Z" fill="#133A50"/>
<path d="M27.6619 96.0751C26.71 98.6679 26.5051 101.476 27.0705 104.179C29.4023 113.911 56.1007 127.126 56.1007 127.126C56.1007 127.126 58.2187 138.358 60.3287 146.025C62.4385 153.691 66.5319 165.455 66.5319 165.455L72.8563 163.209C72.8563 163.209 68.8313 124.935 68.8425 121.358C68.8536 117.781 50.7479 101.489 46.9684 98.6248C43.1892 95.7603 27.6619 96.0751 27.6619 96.0751Z" fill="#133A50"/>
<path d="M72.6954 45.931C72.2093 47.9214 71.9427 49.7838 71.387 51.0499C70.8313 52.3159 71.7026 54.5145 72.1529 55.4876C72.6032 56.4606 70.3349 56.6077 70.3349 56.6077C69.3494 57.7667 68.5139 59.0454 67.8481 60.4134C67.2787 61.5298 65.18 60.5673 63.8112 60.3517C62.4423 60.136 61.6534 58.6737 59.776 56.7681C57.8986 54.8624 56.9207 51.3724 56.9207 51.3724L57.7014 43.7364L66.1304 41.6412L72.6954 45.931Z" fill="#FEC4AD"/>
<path d="M72.3831 47.3053C72.3831 47.3053 74.7877 45.0446 71.1046 41.8782C68.3296 39.4925 63.2053 38.0185 60.1771 38.7013C57.1073 39.3936 56.3155 41.2389 56.7108 41.5531C56.7108 41.5531 54.8667 42.2934 53.7851 45.7955C52.7036 49.2977 57.0246 55.7846 57.0106 57.6763L60.3905 53.911C60.3905 53.911 58.187 51.9281 58.7352 49.8424C59.2834 47.7568 62.3008 47.2945 62.4482 49.3546C62.5664 50.3789 62.5064 51.4159 62.2711 52.4198C62.2711 52.4198 64.7012 50.5434 64.1322 49.2986C63.0705 46.9755 65.2216 46.9513 67.6478 47.4542C69.4074 47.8187 70.0923 47.2015 72.3831 47.3053Z" fill="#471A16"/>
<path d="M59.9944 53.1095C59.9944 53.1095 55.5323 58.0683 54.7825 58.8002C54.0327 59.5321 47.8163 58.8644 47.8163 58.8644C47.8163 58.8644 43.618 65.0818 49.4142 68.0546C55.2104 71.0274 62.3169 70.0048 62.3169 70.0048C62.3169 70.0048 63.0016 64.7139 62.8622 63.265C62.7228 61.8161 64.617 58.7095 64.617 58.7095L59.9944 53.1095Z" fill="#FEC4AD"/>
<path d="M49.1535 56.7127L55.6049 56.5941L61.0215 66.2523L62.8624 63.265L63.8714 67.6262C63.8714 67.6262 58.9343 80.2039 55.5326 88.745C52.8296 95.5317 51.2929 100.298 51.2929 100.298C51.2929 100.298 45.7883 103.16 40.0416 103.169C34.2949 103.177 26.6428 101.049 25.1724 98.3953C23.7021 95.7422 35.528 74.834 38.1989 69.1858C40.87 63.5375 49.1535 56.7127 49.1535 56.7127Z" fill="#42B2FC"/>
<path d="M91.2448 89.1972C91.2448 89.1972 96.1743 87.6841 97.2921 87.905C98.4098 88.1257 101.477 90.2281 101.477 90.2281L101.023 90.5879L100.059 90.7937L100.762 91.2345L100.126 91.9462L99.3379 91.7358L98.3008 91.7604L99.6799 92.3852L99.0248 92.919L97.7715 92.4493L97.828 93.5032L97.2928 93.6175L96.3945 92.3649L94.4612 92.7123L92.1712 91.7535L89.5229 92.5856L91.2448 89.1972Z" fill="#FEC4AD"/>
<path d="M54.1089 59.3806C59.261 64.1528 67.4008 78.472 70.5375 80.1312C77.2299 83.6118 84.1478 86.6406 91.2449 89.1972L89.523 92.5856C89.523 92.5856 70.0184 88.9794 66.5773 87.0138C58.0857 82.163 51.9245 76.5502 48.71 67.9236C46.5575 62.147 51.283 56.7633 54.1089 59.3806Z" fill="#42B2FC"/>
</svg>
