<svg width="227" height="223" viewBox="0 0 227 223" fill="none" xmlns="http://www.w3.org/2000/svg">
<path d="M81.1489 218.933C82.3883 219.652 82.3883 220.813 81.1489 221.526C79.9096 222.244 77.8979 222.244 76.6585 221.526C75.4192 220.807 75.4192 219.646 76.6585 218.933C77.8979 218.215 79.9096 218.215 81.1489 218.933Z" fill="#FF7F85"/>
<path d="M9.12895 126.245C9.88933 127.239 10.9191 127.994 11.9848 128.616L141.165 203.235C142.661 204.109 144.284 204.72 146.02 205.091C147.685 205.444 149.463 205.642 151.247 205.648C154.804 205.66 158.42 204.917 161.342 203.229L222.812 167.725C224.548 166.725 226.434 164.995 226.883 163.043C226.955 162.713 226.991 162.384 226.991 162.049C226.991 166.03 226.991 167.222 226.991 171.215C226.997 173.736 225.045 175.754 222.812 177.041L161.342 212.551C159.845 213.413 158.222 214.036 156.486 214.401C151.499 215.473 145.559 215.089 141.165 212.551L11.9848 137.932C11.428 137.603 10.8832 137.244 10.3683 136.831C8.9673 135.723 7.81776 133.855 7.81776 132.065H7.81177C7.81177 128.042 7.81177 126.808 7.81177 122.785H7.81776C7.84769 124.018 8.36259 125.252 9.12895 126.245Z" fill="#A9A8C6"/>
<path d="M197.277 185.339C197.672 185.112 198.025 185.082 198.294 185.207C198.6 185.351 198.791 185.698 198.791 186.213V186.866C198.791 187.842 198.103 189.015 197.277 189.494L186.877 195.499C186.458 195.745 186.081 195.763 185.811 195.607C185.53 195.451 185.362 195.11 185.362 194.625V193.967C185.362 193.003 186.051 191.823 186.877 191.344L197.277 185.339Z" fill="#1C1A2A"/>
<path d="M174.202 198.505C175.651 197.032 177.04 197.619 176.998 199.14C176.938 201.421 174.675 203.648 173.454 202.882C173.292 202.78 173.154 202.63 173.035 202.427C172.831 202.073 172.825 201.636 172.873 201.223C172.933 200.72 173.082 200.235 173.304 199.786C173.304 199.786 173.304 199.78 173.31 199.78C173.424 199.601 173.531 199.421 173.627 199.223C173.789 198.96 173.981 198.72 174.202 198.505Z" fill="#1C1A2A"/>
<path d="M11.6376 125.677C12.6973 126.958 13.5475 127.299 17.2655 129.467C17.3314 129.508 143.152 202.211 143.805 202.534C145.942 203.576 148.601 204.097 151.265 204.097L151.253 205.648C149.469 205.642 147.697 205.444 146.026 205.091C144.284 204.714 142.667 204.103 141.171 203.235L11.9848 128.616C10.9191 128 9.88929 127.239 9.12892 126.245C8.36854 125.252 7.84766 124.012 7.81772 122.779C7.79976 122.39 7.8297 122.012 7.9195 121.635C8.37453 119.683 10.2545 117.953 11.9908 116.953L73.4614 81.4492C76.3891 79.7608 79.9934 79.0244 83.5498 79.0304L83.5378 80.5811C82.2266 80.5811 80.8795 80.7128 79.5623 80.9882C76.904 81.551 75.6168 82.3652 73.635 83.5507C71.6293 84.7541 78.2032 80.8744 50.5603 96.8423C46.064 99.4407 41.5855 102.093 37.0891 104.686C32.5927 107.278 28.0724 109.823 23.582 112.451C21.708 113.547 19.846 114.654 17.966 115.72C15.7687 116.959 13.7211 118.043 12.6733 118.881C10.3323 120.761 9.72165 123.366 11.6376 125.677Z" fill="#E1DFEA"/>
<path d="M42.6331 151.248L43.6629 150.655L32.3291 144.111L31.2993 144.704L42.6331 151.248Z" fill="#E1DFEA"/>
<path d="M43.6631 152.086V150.655L42.6333 151.248V152.685L43.6631 152.086Z" fill="#7C7CA0"/>
<path d="M42.6331 152.685V151.248L31.2993 144.704V146.135L42.6331 152.685Z" fill="#7C7CA0"/>
<path d="M167.568 204.54C167.79 204.414 167.969 204.109 167.969 203.869C167.969 203.624 167.79 203.528 167.568 203.654C167.347 203.78 167.167 204.085 167.167 204.324C167.173 204.576 167.353 204.672 167.568 204.54Z" fill="#1C1A2A"/>
<path d="M219.519 176.682C219.86 176.484 220.135 176.017 220.135 175.64V172.694C220.135 172.317 219.86 172.167 219.519 172.365C219.178 172.562 218.902 173.029 218.902 173.407V176.352C218.902 176.73 219.178 176.879 219.519 176.682Z" fill="#1C1A2A"/>
<path d="M217.046 178.113C217.388 177.915 217.663 177.448 217.663 177.071V174.125C217.663 173.748 217.388 173.598 217.046 173.796C216.705 173.993 216.43 174.46 216.43 174.838V177.783C216.43 178.16 216.705 178.31 217.046 178.113Z" fill="#1C1A2A"/>
<path d="M214.574 179.538C214.915 179.34 215.19 178.873 215.19 178.496V175.55C215.19 175.173 214.915 175.023 214.574 175.221C214.232 175.418 213.957 175.885 213.957 176.263V179.208C213.957 179.585 214.232 179.735 214.574 179.538Z" fill="#1C1A2A"/>
<path d="M212.101 180.968C212.442 180.771 212.717 180.304 212.717 179.927V176.981C212.717 176.604 212.442 176.454 212.101 176.652C211.76 176.849 211.484 177.316 211.484 177.693V180.639C211.484 181.016 211.76 181.166 212.101 180.968Z" fill="#1C1A2A"/>
<path d="M209.628 182.399C209.969 182.202 210.245 181.735 210.245 181.358V178.412C210.245 178.035 209.969 177.885 209.628 178.083C209.287 178.28 209.011 178.747 209.011 179.124V182.07C209.011 182.447 209.287 182.591 209.628 182.399Z" fill="#1C1A2A"/>
<path d="M207.155 183.824C207.497 183.627 207.772 183.16 207.772 182.783V179.837C207.772 179.46 207.497 179.31 207.155 179.508C206.814 179.705 206.539 180.172 206.539 180.549V183.495C206.539 183.872 206.814 184.022 207.155 183.824Z" fill="#1C1A2A"/>
<path d="M222.818 167.731L161.347 203.235C158.42 204.923 154.809 205.666 151.253 205.654L151.265 204.103C153.63 204.103 156.013 203.684 158.037 202.84C159.228 202.343 160.114 201.768 161.174 201.139C163.18 199.936 156.606 203.816 184.249 187.848C188.745 185.249 193.223 182.597 197.72 180.004C202.222 177.412 206.742 174.861 211.227 172.239C213.101 171.143 214.963 170.036 216.849 168.97C220.573 166.875 222.327 166.054 223.477 164.402C224.979 162.234 224.632 159.379 220.92 157.175C220.776 157.085 91.5906 82.4431 91.0039 82.1557C88.9562 81.1618 86.3099 80.587 83.5378 80.587L83.5498 79.0363C85.334 79.0423 87.1062 79.2399 88.7826 79.5932C90.5249 79.9703 92.1414 80.581 93.6502 81.4492L222.824 156.068C223.902 156.69 224.92 157.445 225.686 158.439C226.482 159.474 226.997 160.774 226.997 162.055C226.997 162.39 226.961 162.719 226.889 163.049C226.434 165.001 224.548 166.731 222.818 167.731Z" fill="#E1DFEA"/>
<path d="M93.3748 83.5207C91.872 82.6526 91.0398 82.1676 90.9919 82.1496C88.9443 81.1558 86.2979 80.587 83.5259 80.581C82.2147 80.587 80.8675 80.7127 79.5563 80.9941C76.898 81.5569 75.6048 82.3652 73.629 83.5507C71.767 84.6703 77.3231 81.3893 55.841 93.7828L50.5543 96.8362C46.058 99.4407 41.5795 102.087 37.0891 104.679C35.8558 105.392 34.6224 106.098 33.3831 106.799C30.114 108.673 26.8331 110.535 23.576 112.445C21.708 113.547 19.846 114.654 17.966 115.714C15.7747 116.953 13.7211 118.037 12.6733 118.875C10.3383 120.755 9.71565 123.36 11.6375 125.671C12.7033 126.952 13.5534 127.293 17.2655 129.466L71.9047 161.031C105.978 180.717 143.452 202.355 143.811 202.534C145.942 203.576 148.607 204.103 151.265 204.103C153.63 204.103 156.013 203.678 158.031 202.834C159.222 202.337 160.114 201.768 161.168 201.133C163.174 199.93 156.606 203.81 184.249 187.848C188.745 185.243 193.223 182.597 197.72 179.998C202.222 177.406 206.742 174.855 211.233 172.233C213.095 171.137 214.963 170.024 216.843 168.964C220.567 166.869 222.321 166.048 223.471 164.396C224.92 162.312 224.656 159.594 221.327 157.433C221.196 157.343 221.052 157.253 220.908 157.169C220.776 157.091 111.055 93.687 93.3748 83.5207Z" fill="#E1DFEA"/>
<path d="M221.321 157.433C224.644 159.594 224.914 162.312 223.465 164.396C222.315 166.054 220.561 166.869 216.837 168.964C214.957 170.024 213.089 171.137 211.227 172.233C206.737 174.861 202.216 177.406 197.714 179.999C193.217 182.597 188.739 185.243 184.243 187.848C156.6 203.81 163.174 199.93 161.162 201.133C160.108 201.768 159.222 202.337 158.025 202.834C153.702 204.642 147.793 204.486 143.805 202.534C143.206 202.241 33.8023 139.028 17.2596 129.473C13.5416 127.299 12.6974 126.958 11.6317 125.677C9.70979 123.372 10.3325 120.761 12.6675 118.881C13.9427 117.863 71.833 84.6344 73.6291 83.5567C75.6049 82.3712 76.8922 81.5629 79.5565 81.0001C83.6278 80.132 87.9984 80.6948 90.992 82.1557C91.0758 82.1856 87.5673 80.1679 221.321 157.433Z" fill="url(#paint0_linear_5768_19487)"/>
<path d="M53.1887 98.6444C53.7455 98.3151 54.6436 98.3151 55.2004 98.6444L55.9488 99.0755L42.268 106.979C41.7112 107.308 40.8072 107.296 40.2444 106.979L39.502 106.548L53.1887 98.6444Z" fill="#090000"/>
<path d="M55.2002 97.2494L56.1462 97.7942C56.709 98.1235 56.6971 98.6384 56.1462 98.9558L55.9486 99.0695L55.2002 98.6384C54.6434 98.3091 53.7454 98.3091 53.1886 98.6384L39.5078 106.542L39.3102 106.428C39.0408 106.272 38.8971 106.063 38.8911 105.859C38.8911 105.853 38.8911 105.853 38.8911 105.847C38.8911 105.637 39.0348 105.428 39.3102 105.266L53.1886 97.2494C53.7454 96.9261 54.6494 96.9321 55.2002 97.2494Z" fill="#1A2738"/>
<g opacity="0.27">
<path opacity="0.27" d="M67.181 113.547L39.1669 129.73C38.2569 130.257 36.784 130.257 35.8739 129.73C34.9639 129.203 34.9639 128.353 35.8739 127.826L63.8881 111.643C64.7981 111.116 66.271 111.116 67.181 111.643C68.0911 112.17 68.0911 113.02 67.181 113.547Z" fill="#F2F8FF"/>
<path opacity="0.27" d="M65.3068 122.24L45.7526 133.532C44.8425 134.059 43.3697 134.059 42.4596 133.532C41.5496 133.005 41.5496 132.155 42.4596 131.628L62.0138 120.336C62.9239 119.809 64.3967 119.809 65.3068 120.336C66.2168 120.863 66.2168 121.713 65.3068 122.24Z" fill="#F2F8FF"/>
<path opacity="0.27" d="M71.893 126.048L52.3388 137.34C51.4287 137.867 49.9559 137.867 49.0458 137.34C48.1358 136.813 48.1358 135.963 49.0458 135.436L68.6 124.144C69.5101 123.617 70.9829 123.617 71.893 124.144C72.803 124.671 72.803 125.521 71.893 126.048Z" fill="#F2F8FF"/>
</g>
<g opacity="0.27">
<path opacity="0.27" d="M110.235 140.722L82.2209 156.906C81.3108 157.433 79.838 157.433 78.9279 156.906C78.0178 156.379 78.0178 155.529 78.9279 155.002L106.942 138.819C107.852 138.292 109.325 138.292 110.235 138.819C111.145 139.345 111.145 140.196 110.235 140.722Z" fill="#F2F8FF"/>
<path opacity="0.27" d="M108.361 149.416L88.8068 160.708C87.8967 161.235 86.4239 161.235 85.5138 160.708C84.6038 160.181 84.6038 159.331 85.5138 158.804L105.068 147.512C105.978 146.985 107.451 146.985 108.361 147.512C109.271 148.039 109.271 148.895 108.361 149.416Z" fill="#F2F8FF"/>
<path opacity="0.27" d="M114.947 153.224L95.3927 164.516C94.4827 165.042 93.0098 165.042 92.0998 164.516C91.1897 163.989 91.1897 163.139 92.0998 162.612L111.654 151.32C112.564 150.793 114.037 150.793 114.947 151.32C115.857 151.847 115.857 152.697 114.947 153.224Z" fill="#F2F8FF"/>
</g>
<g opacity="0.27">
<path opacity="0.27" d="M167.598 132.933L139.584 149.117C138.674 149.643 137.201 149.643 136.291 149.117C135.381 148.59 135.381 147.739 136.291 147.213L164.305 131.029C165.215 130.502 166.688 130.502 167.598 131.029C168.508 131.556 168.508 132.412 167.598 132.933Z" fill="#F2F8FF"/>
<path opacity="0.27" d="M165.718 141.633L146.163 152.924C145.253 153.451 143.781 153.451 142.871 152.924C141.96 152.398 141.96 151.547 142.871 151.02L162.425 139.729C163.335 139.202 164.808 139.202 165.718 139.729C166.628 140.255 166.628 141.106 165.718 141.633Z" fill="#F2F8FF"/>
<path opacity="0.27" d="M172.31 145.434L152.756 156.726C151.846 157.253 150.373 157.253 149.463 156.726C148.553 156.199 148.553 155.349 149.463 154.822L169.017 143.53C169.927 143.004 171.4 143.004 172.31 143.53C173.22 144.057 173.22 144.914 172.31 145.434Z" fill="#F2F8FF"/>
</g>
<g opacity="0.27">
<path opacity="0.27" d="M161.587 168.922L133.573 185.106C132.663 185.632 131.19 185.632 130.28 185.106C129.37 184.579 129.37 183.729 130.28 183.202L158.294 167.018C159.204 166.491 160.677 166.491 161.587 167.018C162.497 167.545 162.497 168.401 161.587 168.922Z" fill="#F2F8FF"/>
<path opacity="0.27" d="M159.713 177.622L140.159 188.913C139.249 189.44 137.776 189.44 136.866 188.913C135.956 188.387 135.956 187.536 136.866 187.01L156.42 175.718C157.33 175.191 158.803 175.191 159.713 175.718C160.623 176.245 160.623 177.095 159.713 177.622Z" fill="#F2F8FF"/>
<path opacity="0.27" d="M166.299 181.424L146.745 192.715C145.835 193.242 144.362 193.242 143.452 192.715C142.542 192.188 142.542 191.338 143.452 190.811L163.006 179.52C163.916 178.993 165.389 178.993 166.299 179.52C167.209 180.046 167.209 180.903 166.299 181.424Z" fill="#F2F8FF"/>
</g>
<g opacity="0.27">
<path opacity="0.27" d="M121.838 105.56L93.8239 121.743C92.9138 122.27 91.441 122.27 90.5309 121.743C89.6209 121.216 89.6209 120.366 90.5309 119.839L118.545 103.656C119.455 103.129 120.928 103.129 121.838 103.656C122.748 104.183 122.748 105.033 121.838 105.56Z" fill="#717F90"/>
<path opacity="0.27" d="M119.958 114.253L100.404 125.545C99.4939 126.072 98.0211 126.072 97.111 125.545C96.201 125.018 96.201 124.168 97.111 123.641L116.665 112.349C117.575 111.822 119.048 111.822 119.958 112.349C120.868 112.876 120.868 113.732 119.958 114.253Z" fill="#717F90"/>
<path opacity="0.27" d="M126.55 118.061L106.996 129.353C106.086 129.88 104.613 129.88 103.703 129.353C102.793 128.826 102.793 127.976 103.703 127.449L123.257 116.157C124.167 115.63 125.64 115.63 126.55 116.157C127.46 116.684 127.46 117.534 126.55 118.061Z" fill="#717F90"/>
</g>
<path d="M38.3704 40.9518C38.3704 46.1367 38.3704 51.3216 38.3704 56.5005C38.3704 61.9429 34.5506 68.5647 29.8387 71.2889C29.1741 71.6721 28.5095 72.0553 27.8449 72.4385L23.109 83.8441L18.3732 77.9108C17.7086 78.2939 17.044 78.6771 16.3794 79.0603C16.1878 79.1741 15.9963 79.2758 15.8047 79.3657C13.6732 80.4374 11.7633 80.4733 10.3383 79.653C10.3024 79.6291 10.2665 79.6111 10.2246 79.5872C8.74575 78.6711 7.83569 76.7852 7.83569 74.1269C7.83569 68.9479 7.83569 63.763 7.83569 58.5841C7.83569 53.1357 11.6555 46.5139 16.3734 43.7957C20.8579 41.2092 25.3423 38.6168 29.8267 36.0243C32.1377 34.6892 34.2333 34.5395 35.766 35.3717C35.7959 35.3837 35.8259 35.4076 35.8558 35.4256C37.4185 36.3177 38.3704 38.2276 38.3704 40.9518Z" fill="#8140FF"/>
<path d="M3.42903 75.6596C1.88434 74.7675 0.932373 72.8516 0.932373 70.1334C0.932373 64.9545 0.932373 59.7696 0.932373 54.5847C0.932373 49.1423 4.7522 42.5204 9.46413 39.7963C13.9485 37.2098 18.433 34.6173 22.9174 32.0189C25.2763 30.6598 27.4078 30.5341 28.9525 31.4262C31.2336 32.7374 33.5087 34.0545 35.7839 35.3717C34.2511 34.5335 32.1556 34.6892 29.8446 36.0243C25.3601 38.6108 20.8757 41.2033 16.3913 43.7957C11.6794 46.5199 7.85358 53.1357 7.85358 58.5841C7.85358 63.763 7.85358 68.948 7.85358 74.1269C7.85358 76.7852 8.76363 78.6712 10.2425 79.5872C7.96733 78.276 5.69818 76.9708 3.42903 75.6596Z" fill="#A68EFE"/>
<path d="M18.3792 77.9107L23.115 83.8441L16.1938 79.8446L15.8167 79.3656C16.0023 79.2758 16.1998 79.1681 16.3914 79.0603C17.05 78.6771 17.7146 78.2879 18.3792 77.9107Z" fill="#A68EFE"/>
<path d="M27.9647 51.2557C26.1625 49.6392 22.6361 50.9264 20.0855 54.1236C17.541 57.3268 16.9363 61.2304 18.7384 62.847C20.3011 64.248 23.151 63.4696 25.5399 61.1586L28.8089 64.0863C29.1801 64.4216 29.9285 64.1342 30.4793 63.4397C31.0301 62.7512 31.1738 61.9189 30.7966 61.5837L27.5276 58.6559C29.2879 55.7701 29.5273 52.6567 27.9647 51.2557ZM25.8332 59.2726C23.8994 61.7034 21.2231 62.6793 19.858 61.4519C18.4869 60.2246 18.948 57.2609 20.8758 54.8301C22.8097 52.3993 25.486 51.4234 26.8511 52.6508C28.2221 53.8781 27.7671 56.8418 25.8332 59.2726Z" fill="#D0B8FF"/>
<path d="M8.20687 99.8L8.94928 100.878C9.00915 100.967 9.1289 100.985 9.2666 100.926L10.931 100.207C11.2723 100.057 11.41 100.405 11.1645 100.788L9.96112 102.662C9.85933 102.818 9.81742 102.979 9.84137 103.105L10.1288 104.602C10.1886 104.913 9.8294 105.38 9.51806 105.398L8.02725 105.476C7.9075 105.482 7.75783 105.566 7.63808 105.703L6.14727 107.35C5.84192 107.691 5.48269 107.637 5.53658 107.26L5.82396 105.434C5.84791 105.284 5.80001 105.171 5.70422 105.135L4.50079 104.656C4.24933 104.554 4.38703 104.057 4.73429 103.805L6.39873 102.602C6.53644 102.506 6.65618 102.351 6.71605 102.189L7.45847 100.249C7.60815 99.8359 8.0512 99.5785 8.20687 99.8Z" fill="#FF73B5"/>
<path d="M16.6549 94.9204L17.3973 95.9981C17.4572 96.0879 17.5769 96.1059 17.7146 96.046L19.379 95.3275C19.7203 95.1779 19.858 95.5251 19.6125 95.9083L18.4091 97.7823C18.3073 97.938 18.2654 98.0996 18.2894 98.2253L18.5768 99.7221C18.6366 100.033 18.2774 100.5 17.9661 100.518L16.4752 100.596C16.3555 100.602 16.2058 100.686 16.0861 100.824L14.5953 102.47C14.2899 102.812 13.9307 102.758 13.9846 102.38L14.272 100.554C14.2959 100.405 14.248 100.291 14.1522 100.255L12.9488 99.776C12.6973 99.6742 12.835 99.1773 13.1823 98.9258L14.8467 97.7224C14.9844 97.6266 15.1042 97.471 15.1641 97.3093L15.9065 95.3694C16.0561 94.9563 16.4992 94.6989 16.6549 94.9204Z" fill="#FF73B5"/>
<path d="M25.1087 90.0409L25.8511 91.1186C25.911 91.2084 26.0308 91.2263 26.1685 91.1665L27.8329 90.448C28.1742 90.2983 28.3119 90.6456 28.0664 91.0288L26.863 92.9027C26.7612 93.0584 26.7193 93.2201 26.7432 93.3458L27.0306 94.8426C27.0905 95.1539 26.7313 95.6209 26.4199 95.6389L24.9291 95.7167C24.8094 95.7227 24.6597 95.8065 24.5399 95.9442L23.0491 97.5907C22.7438 97.932 22.3845 97.8781 22.4384 97.5009L22.7258 95.6748C22.7498 95.5251 22.7019 95.4114 22.6061 95.3755L21.4026 94.8965C21.1512 94.7947 21.2889 94.2978 21.6361 94.0463L23.3006 92.8429C23.4383 92.7411 23.558 92.5914 23.6179 92.4298L24.3603 90.4899C24.51 90.0708 24.9531 89.8134 25.1087 90.0409Z" fill="#FF73B5"/>
<path d="M33.5567 85.1553L34.2991 86.233C34.359 86.3228 34.4787 86.3408 34.6165 86.2809L36.2809 85.5624C36.6222 85.4128 36.7599 85.76 36.5144 86.1432L35.311 88.0172C35.2092 88.1729 35.1673 88.3345 35.1912 88.4603L35.4786 89.9571C35.5385 90.2684 35.1793 90.7354 34.8679 90.7534L33.3771 90.8312C33.2574 90.8372 33.1077 90.921 32.9879 91.0587L31.4971 92.7052C31.1918 93.0464 30.8325 92.9926 30.8864 92.6154L31.1738 90.7893C31.1978 90.6396 31.1499 90.5258 31.0541 90.4899L29.8506 90.0109C29.5992 89.9092 29.7369 89.4122 30.0841 89.1608L31.7486 87.9573C31.8863 87.8615 32.006 87.7059 32.0659 87.5442L32.8083 85.6044C32.958 85.1912 33.4011 84.9338 33.5567 85.1553Z" fill="#A135BC"/>
<path d="M42.0045 80.2757L42.7469 81.3534C42.8068 81.4432 42.9265 81.4612 43.0642 81.4013L44.7286 80.6829C45.0699 80.5332 45.2076 80.8804 44.9621 81.2636L43.7587 83.1376C43.6569 83.2933 43.615 83.4549 43.639 83.5807L43.9264 85.0775C43.9862 85.3888 43.627 85.8558 43.3157 85.8738L41.8249 85.9516C41.7051 85.9576 41.5554 86.0414 41.4357 86.1791L39.9449 87.8256C39.6395 88.1669 39.2803 88.113 39.3342 87.7358L39.6216 85.9097C39.6455 85.76 39.5976 85.6462 39.5018 85.6103L38.2984 85.1313C38.0469 85.0296 38.1846 84.5326 38.5319 84.2812L40.1963 83.0777C40.334 82.976 40.4538 82.8263 40.5137 82.6646L41.2561 80.7248C41.4058 80.3117 41.8548 80.0542 42.0045 80.2757Z" fill="#A135BC"/>
<path d="M132.447 14.5423C132.447 18.8291 132.447 23.1159 132.447 27.4028C132.447 31.9051 135.603 37.3774 139.5 39.6286C140.051 39.9459 140.596 40.2633 141.147 40.5806L145.062 50.0104L148.978 45.1069C149.529 45.4242 150.08 45.7416 150.624 46.0589C150.786 46.1487 150.942 46.2385 151.097 46.3103C152.858 47.1964 154.444 47.2264 155.618 46.5498C155.648 46.5319 155.678 46.5139 155.708 46.4959C156.929 45.7356 157.683 44.1789 157.683 41.9816C157.683 37.6948 157.683 33.4139 157.683 29.1271C157.683 24.6247 154.522 19.1464 150.624 16.8952C146.918 14.7518 143.206 12.6084 139.5 10.471C137.59 9.36931 135.854 9.24358 134.591 9.93211C134.567 9.94408 134.537 9.96205 134.513 9.97402C133.232 10.7104 132.447 12.2971 132.447 14.5423Z" fill="#FF73B5"/>
<path d="M161.341 43.2449C162.617 42.5084 163.407 40.9218 163.407 38.6766C163.407 34.3898 163.407 30.109 163.407 25.8161C163.407 21.3138 160.252 15.8415 156.354 13.5903C152.648 11.4469 148.936 9.30344 145.23 7.16002C143.278 6.03442 141.518 5.93264 140.242 6.66907C138.357 7.75275 136.477 8.84242 134.591 9.93209C135.86 9.24356 137.59 9.36331 139.5 10.4709C143.206 12.6144 146.918 14.7578 150.624 16.8952C154.522 19.1464 157.683 24.6187 157.683 29.1271C157.683 33.4139 157.683 37.6947 157.683 41.9816C157.683 44.1789 156.929 45.7355 155.707 46.4959C157.587 45.4122 159.461 44.3345 161.341 43.2449Z" fill="#D2448D"/>
<path d="M148.978 45.1069L145.062 50.0104L150.786 46.7055L151.097 46.3103C150.942 46.2325 150.78 46.1487 150.624 46.0589C150.08 45.7415 149.529 45.4242 148.978 45.1069Z" fill="#D2448D"/>
<path d="M144.134 23.2117C144.008 23.1398 143.895 23.1219 143.805 23.1578L143.475 23.2955L141.685 22.2597C140.997 21.8646 140.404 22.0322 140.308 22.6609L140.147 23.6907L141.087 24.2355L141.23 23.3254C141.26 23.1159 141.458 23.062 141.691 23.1937L143.673 24.3373C143.799 24.4091 143.913 24.4271 144.002 24.3912L144.332 24.2535L145.804 25.1036L146.134 25.6245C146.224 25.7622 146.337 25.876 146.463 25.9478L148.445 27.0914C148.672 27.2231 148.876 27.5105 148.906 27.756L149.05 28.8337L149.99 29.3785L149.828 28.1571C149.732 27.4147 149.139 26.5585 148.451 26.1634L146.661 25.1276L146.331 24.6067C146.248 24.469 146.128 24.3552 146.002 24.2834L144.134 23.2117ZM139.488 24.2415C139.231 24.0918 139.021 24.1816 139.021 24.4391V25.3671C139.021 25.6245 139.231 25.9538 139.488 26.0975L139.566 26.1454L140.29 30.8992C140.362 31.3902 140.751 31.941 141.206 32.2045L148.918 36.6589C149.373 36.9224 149.762 36.8146 149.834 36.4135L150.558 32.4978L150.636 32.5397C150.894 32.6894 151.103 32.5996 151.103 32.3422V31.4141C151.103 31.1567 150.894 30.8274 150.636 30.6837L139.488 24.2415ZM147.385 31.1268C147.643 31.2764 147.852 31.6057 147.852 31.8572V34.1802C147.852 34.4377 147.643 34.5275 147.385 34.3778C147.128 34.2281 146.918 33.8988 146.918 33.6474V31.3243C146.918 31.0669 147.128 30.9831 147.385 31.1268ZM145.062 29.7856C145.32 29.9353 145.529 30.2646 145.529 30.5161V32.8391C145.529 33.0965 145.32 33.1804 145.062 33.0367C144.805 32.887 144.595 32.5577 144.595 32.3062V29.9832C144.601 29.7258 144.805 29.6419 145.062 29.7856ZM142.739 28.4445C142.996 28.5942 143.206 28.9235 143.206 29.1749V31.498C143.206 31.7554 142.996 31.8392 142.739 31.6955C142.482 31.5459 142.272 31.2166 142.272 30.9651V28.6421C142.278 28.3846 142.488 28.2948 142.739 28.4445Z" fill="#FBFAFC"/>
<path d="M157.893 172.113C158.839 173.311 160.072 174.251 161.389 175.005C167.287 178.394 176.064 178.771 182.59 176.49C185.099 175.616 187.733 174.173 189.386 172.095C190.349 170.88 190.954 169.503 190.96 167.922H190.966C190.966 169.425 190.966 170.928 190.966 172.431C190.966 176.083 187.697 178.783 184.368 180.304C178.076 183.172 169.179 183.172 162.88 180.292C159.557 178.765 156.312 176.071 156.312 172.431C156.312 170.934 156.312 169.443 156.312 167.946H156.318C156.312 169.503 156.953 170.922 157.893 172.113Z" fill="#B4AAD1"/>
<path d="M183.105 165.935V166.809L181.961 167.461V166.593L183.105 165.935Z" fill="#C42979"/>
<path d="M181.961 166.593V167.461L177.62 166.928L177.363 166.779V166.024L181.961 166.593Z" fill="#C42979"/>
<path d="M179.501 168.012V168.886L178.579 169.419V168.551L179.501 168.012Z" fill="#C42979"/>
<path d="M178.578 168.551V169.419L171.04 165.066V164.192L178.578 168.551Z" fill="#C42979"/>
<path d="M179.501 168.012L178.573 168.545L171.035 164.192L171.957 163.659L176.244 166.132C176.261 166.144 176.255 166.336 176.226 163.588L177.423 162.893L177.363 165.27C177.824 165.312 175.753 165.084 183.099 165.929L181.955 166.587L177.357 166.018L177.333 166.755C177.375 166.785 177.525 166.869 179.501 168.012Z" fill="#F1519D"/>
<path d="M175.238 168.509C174.543 167.27 172.609 166.42 171.184 166.144C169.328 165.779 167.466 166.108 166.131 166.875C165.101 167.467 164.586 168.15 164.586 168.916C164.586 169.204 164.586 169.497 164.586 169.784C164.586 170.832 165.616 171.622 166.52 172.143C167.789 172.88 169.646 173.317 171.508 173.059C172.897 172.868 174.663 172.173 175.291 170.928C175.411 170.694 175.471 170.455 175.471 170.215C175.471 169.928 175.471 169.635 175.471 169.341C175.471 169.066 175.393 168.79 175.238 168.509ZM171.041 165.066L178.578 169.419L179.506 168.886V168.012L177.62 166.922L181.961 167.461L183.105 166.803V165.929L177.393 165.276C177.441 163.462 177.435 163.995 177.435 162.899L176.237 163.594C176.237 164.689 176.231 164.126 176.255 166.138L171.969 163.665L171.047 164.198V165.066H171.041ZM186.685 174.502C181.237 178.101 172.843 178.711 166.442 177.023C163.353 176.209 159.88 174.622 157.893 172.107C155.707 169.341 155.851 166.3 157.881 163.743C162.874 157.427 177.291 155.9 185.877 160.828C185.883 160.828 185.883 160.834 185.889 160.834C187.206 161.588 188.433 162.528 189.379 163.719C192.421 167.575 190.864 171.748 186.685 174.502Z" fill="#ECE7F2"/>
<path d="M174.136 169.509C174.172 168.689 173.322 168.06 172.616 167.647C170.574 166.467 168.389 166.569 167 167.366C166.293 167.773 165.928 168.264 165.904 168.838C165.874 169.605 166.904 170.299 167.568 170.682C169.478 171.784 171.67 171.7 173.071 170.892C173.615 170.581 174.106 170.138 174.136 169.509ZM175.471 169.347C175.471 170.215 174.687 170.946 173.927 171.383C171.753 172.634 168.652 172.503 166.521 171.269C165.61 170.742 164.587 169.958 164.587 168.91C164.587 168.144 165.102 167.467 166.131 166.869C168.215 165.665 171.244 165.665 173.645 167.048C174.495 167.545 175.471 168.359 175.471 169.347Z" fill="#F1519D"/>
<path d="M172.609 168.515C173.394 168.964 173.873 169.425 174.052 169.892C173.549 171.197 170.424 172.329 167.562 170.682C166.706 170.186 166.179 169.719 165.988 169.269C166.514 167.922 169.604 166.773 172.609 168.515Z" fill="#ECE7F2"/>
<path d="M174.13 169.365C174.142 169.521 174.118 169.719 174.052 169.898C173.872 169.431 173.393 168.97 172.609 168.521C169.61 166.785 166.514 167.922 165.987 169.275C165.921 169.132 165.891 168.988 165.897 168.844C165.921 168.27 166.287 167.779 166.993 167.372C168.382 166.569 170.568 166.473 172.609 167.653C173.585 168.204 174.088 168.779 174.13 169.365Z" fill="#C42979"/>
<path d="M166.526 171.269C168.64 172.491 171.741 172.64 173.933 171.383C174.693 170.946 175.477 170.209 175.477 169.347C175.477 169.641 175.477 169.928 175.477 170.221C175.477 170.461 175.417 170.7 175.298 170.934C174.669 172.173 172.909 172.868 171.514 173.065C169.664 173.323 167.808 172.892 166.526 172.149C165.622 171.628 164.593 170.838 164.593 169.79C164.593 169.503 164.593 169.21 164.593 168.922C164.593 169.958 165.616 170.748 166.526 171.269Z" fill="#C42979"/>
<path d="M115.731 107.416L132.8 97.0818L130.842 96.2136L113.557 106.218L115.731 107.416Z" fill="#E1DFEA"/>
<path d="M106.157 101.542L123.233 91.2143L121.275 90.3402L103.984 100.345L106.157 101.542Z" fill="#E1DFEA"/>
<path d="M90.9436 82.9101L92.3027 93.0883L100.942 88.7117L90.9436 82.9101Z" fill="#D2448D"/>
<path d="M87.0999 48.1424V76.6714C87.8602 77.1145 104.313 86.5383 104.313 86.5383L110.731 83.0598L111.186 54.7044V41.9876V37.9642V34.2401L87.0999 48.1424Z" fill="#D2448D"/>
<path d="M85.9803 9.44712C88.5309 11.3032 90.8 14.7398 91.6203 18.1346C92.7159 22.613 93.8116 27.0914 94.9013 31.5698L97.6194 30.0012C96.5956 25.8101 95.5718 21.6131 94.548 17.4221C93.5781 13.4286 90.9557 9.34534 87.7585 7.02231C86.0402 5.76499 84.3219 4.51367 82.5976 3.25037C82.5976 3.25037 82.5976 3.25037 82.5916 3.25037C78.0832 -0.096475 70.4855 -0.695195 65.8274 2.04694C65.8274 2.04694 65.8274 2.04694 65.8214 2.04694C61.9597 4.27418 58.1039 6.50142 54.2422 8.73465C50.3864 10.9619 46.5247 13.1891 42.6689 15.4164C42.6689 15.4164 42.6689 15.4164 42.6629 15.4164C40.286 16.7575 38.6156 19.0686 38.7533 21.7688C38.879 24.2355 40.4716 26.3849 42.4534 27.8099C42.4534 27.8099 42.4594 27.8159 42.4654 27.8218C44.1897 29.0792 45.902 30.3365 47.6263 31.5938C50.1529 33.4259 52.434 36.8446 53.2663 40.2752C54.6553 45.9511 56.0443 51.6329 57.4334 57.3148C57.4334 57.2968 57.5291 57.2908 57.5471 57.2908C57.9063 57.2789 58.4691 57.3986 58.8164 57.4824C59.3073 57.6022 59.6905 57.7279 59.936 57.6441C60.3012 57.5243 60.4329 56.9556 60.3431 56.5305C60.2713 56.2371 60.1994 55.9437 60.1276 55.6503C58.8164 50.2858 57.5052 44.9273 56.194 39.5627C55.2241 35.5573 52.5897 31.474 49.4045 29.157C47.6802 27.8997 45.9619 26.6424 44.2436 25.385C42.7527 24.3133 41.4535 22.607 41.8307 20.8288C42.0941 19.6134 43.094 18.6375 44.1717 18.0268H44.1777C48.0394 15.7936 51.9012 13.5663 55.7569 11.3391C59.6187 9.11184 63.4804 6.8846 67.3362 4.65137H67.3422C70.8686 2.57382 77.1492 2.957 80.8134 5.68117C82.5377 6.92651 84.256 8.18981 85.9803 9.44712Z" fill="#E1DFEA"/>
<path d="M67.9109 55.1774C67.3122 55.5246 66.7135 55.8659 66.1147 56.2132C66.462 59.1948 66.8093 62.1704 67.1565 65.152C67.8391 65.5472 68.5216 65.9424 69.2101 66.3375C68.7731 62.6195 68.342 58.8954 67.9109 55.1774Z" fill="#E1DFEA"/>
<path d="M71.4611 84.82C70.7606 84.4129 70.0541 84.0117 69.3477 83.6046C69.7488 85.3529 70.7187 87.0472 71.9162 88.2507C71.7665 87.1011 71.6108 85.9576 71.4611 84.82Z" fill="#E1DFEA"/>
<path d="M76.6463 63.6672C74.6346 64.8287 72.6289 65.9903 70.6172 67.1518C71.7787 67.8223 72.9402 68.4929 74.1017 69.1635C74.9519 68.6725 75.8021 68.1816 76.6523 67.6906V63.6672H76.6463Z" fill="#E1DFEA"/>
<path d="M70.6591 78.7729C70.3478 76.414 70.0305 74.055 69.7132 71.6901C69.1504 72.0134 68.5876 72.3367 68.0308 72.66C68.2882 74.8573 68.5457 77.0546 68.7971 79.2519C69.4916 79.653 70.1862 80.0542 70.8807 80.4553C70.8088 79.8985 70.731 79.3357 70.6591 78.7729Z" fill="#E1DFEA"/>
<path d="M74.5872 93.8667C74.6351 94.2259 74.7609 94.645 75.0243 94.8965C75.4135 95.2677 76.0122 95.1719 76.5091 94.9683C79.1734 93.4655 78.461 93.8727 79.8021 93.1003C77.8862 91.9927 75.9703 90.885 74.0484 89.7774C74.222 91.1425 74.4076 92.5076 74.5872 93.8667ZM89.3876 96.4471V96.7106L90.9922 97.6326C91.082 98.3331 91.1778 99.0276 91.2676 99.7281C88.0764 97.8841 84.8912 96.046 81.7 94.2019C80.9816 94.6151 80.2571 95.0342 79.5387 95.4533C79.0657 95.8125 77.0779 96.8363 76.4972 96.962C76.3774 96.992 76.2636 97.0099 76.1499 97.0219C74.3238 97.2614 72.9467 96.052 72.7013 94.1181C72.4438 92.1603 72.1804 90.2085 71.9169 88.2507C71.7673 87.1071 71.6116 85.9636 71.4619 84.82C72.1564 85.2211 72.8509 85.6223 73.5395 86.0174C73.5993 86.4485 73.6532 86.8796 73.7131 87.3107C73.9286 87.4903 74.1502 87.652 74.3837 87.7837C76.8205 89.1907 79.2573 90.5977 81.694 92.0046C82.0653 91.7891 82.4305 91.5796 82.8017 91.364C83.4363 91.7292 84.071 92.0945 84.6996 92.4597C84.3284 92.6692 83.9632 92.8848 83.592 93.1003C85.5259 94.2199 87.4597 95.3335 89.3876 96.4471Z" fill="#E1DFEA"/>
<path d="M71.5033 82.6825C71.8745 82.8023 72.4074 82.5448 72.7127 82.3233C72.8684 82.2096 73.0241 82.0659 72.9941 81.9162C72.9822 81.8324 72.9702 81.7485 72.9582 81.6587C72.5212 78.3598 72.0781 75.0608 71.641 71.7679C70.9465 71.3667 70.258 70.9656 69.5635 70.5704C69.6114 70.9476 69.6653 71.3188 69.7132 71.696C70.0245 74.055 70.3418 76.414 70.6591 78.7789C70.731 79.3417 70.8088 79.9045 70.8807 80.4673C70.9585 81.0361 71.0303 81.5989 71.1082 82.1676C71.1082 82.1796 71.1082 82.1916 71.1142 82.1976C71.1441 82.4131 71.2818 82.6107 71.5033 82.6825Z" fill="#E1DFEA"/>
<path d="M76.6465 74.6537V83.7842C80.131 85.7959 83.6156 87.8136 87.1061 89.8193V80.6888C83.6156 78.6771 80.131 76.6714 76.6465 74.6537Z" fill="#FF73B5"/>
<path d="M76.6465 67.6906V70.6303C80.131 72.642 83.6156 74.6537 87.1061 76.6654V48.1424L76.6465 42.1073V46.1128V50.1362V63.6732V67.6906Z" fill="#FF73B5"/>
<path d="M76.6465 42.1073L87.1001 48.1424L111.181 34.2401L100.727 28.205L97.6196 29.9952L94.9015 31.5638L76.6465 42.1073Z" fill="#FF73B5"/>
<path d="M77.844 42.1073L100.727 28.8936L109.983 34.2401L87.1002 47.4539L77.844 42.1073Z" fill="#FF73B5"/>
<path d="M79.8074 143.051C80.5737 142.614 81.3341 142.171 82.1005 141.734C82.4537 141.531 82.7351 141.219 82.9387 140.86C83.5194 139.854 83.4656 138.423 83.2081 137.286C82.3579 136.795 81.5137 136.304 80.6635 135.813L80.6995 138.082C81.4179 140.507 80.9449 142.327 79.8074 143.051Z" fill="#1A293B"/>
<path d="M72.1919 135.124C72.1919 137.819 74.006 141.094 76.335 142.608C77.7241 143.513 78.9514 143.584 79.8076 143.046C80.9512 142.321 81.4182 140.501 80.6997 138.082L80.7296 139.956L80.3824 140.166L72.4853 135.615L72.4493 133.562C72.2637 134.047 72.1919 134.592 72.1919 135.124Z" fill="#3F4F5D"/>
<path d="M81.1967 133.28C81.5081 132.939 82.023 132.556 82.484 132.58C82.6157 132.586 82.7534 132.622 82.8672 132.688L82.8732 132.676C80.2448 131.155 77.6104 129.634 74.982 128.119C74.7306 127.976 74.4132 128.018 74.1199 128.131C74.06 128.155 74.0001 128.179 73.9462 128.209C73.1799 128.604 72.3896 129.82 72.4075 130.868V131.053L72.4494 133.562L72.4854 135.615L80.3765 140.172L80.2987 135.424C80.2867 134.663 80.6878 133.831 81.1967 133.28Z" fill="#D2448D"/>
<path d="M82.4778 132.574C82.0168 132.556 81.5079 132.933 81.1906 133.274C80.6817 133.825 80.2805 134.663 80.2925 135.418L80.3703 140.166L80.7176 139.956L80.6877 138.082L80.6517 135.813L80.6398 134.939C80.6757 134.681 80.6936 134.568 80.8134 134.31C81.0469 133.783 81.4959 133.226 82.0228 133.035C82.388 132.903 82.5497 133.017 82.6455 133.053C82.6455 133.053 82.6455 133.053 82.6515 133.053C82.867 133.179 83.0825 133.304 83.2981 133.424C83.2681 133.215 83.2083 132.993 83.0646 132.831C83.0107 132.771 82.9448 132.718 82.867 132.682C82.7473 132.616 82.6095 132.58 82.4778 132.574Z" fill="#9B346C"/>
<path d="M87.0999 80.6948V89.8253C87.8602 90.2624 88.6206 90.7054 89.387 91.1425V85.6103C89.2133 84.3111 89.0397 83.0119 88.8661 81.7126C88.2793 81.3714 87.6866 81.0301 87.0999 80.6948Z" fill="#D2448D"/>
<path d="M89.3875 85.6103V91.1425C89.6569 91.2981 89.9203 91.4478 90.1837 91.6035C89.9203 89.6038 89.6509 87.61 89.3875 85.6103Z" fill="#D2448D"/>
<path d="M102.906 115.941V118.049L110.797 122.605V117.786C110.061 117.33 109.624 116.468 109.63 115.343C109.63 115.343 109.63 115.343 109.63 115.337C109.63 114.528 109.636 113.72 109.636 112.912C108.247 112.11 106.858 111.307 105.469 110.505C105.217 110.361 104.894 110.403 104.607 110.517C104.553 110.535 104.493 110.565 104.439 110.589C103.679 110.978 102.894 112.181 102.894 113.217V113.433V115.941H102.906Z" fill="#D2448D"/>
<path d="M94.3268 106.045C94.8117 106.518 95.65 106.248 96.2307 105.907C97.1348 105.386 98.2484 104.745 99.0986 104.248C97.1827 103.141 95.2608 102.033 93.3449 100.926C93.5305 102.285 93.7101 103.65 93.8897 105.009C93.9316 105.374 94.0633 105.793 94.3268 106.045ZM103.134 104.386C105.307 105.637 107.475 106.895 109.648 108.146C109.648 108.877 109.642 109.607 109.642 110.337C106.762 108.673 103.882 107.009 100.997 105.344C99.7272 106.081 98.452 106.817 97.1767 107.547C94.6681 109.014 92.3271 107.871 91.9978 105.254C91.7523 103.41 91.5068 101.566 91.2613 99.7221C91.1715 99.0216 91.0757 98.3271 90.9859 97.6266C90.9141 97.0698 90.8363 96.513 90.7644 95.9562C91.4589 96.3573 92.1534 96.7585 92.842 97.1536C92.9138 97.7104 92.9916 98.2673 93.0635 98.8241L102.906 104.506L103.134 104.386Z" fill="#E1DFEA"/>
<path d="M112.534 124.15C112.863 123.958 113.138 123.671 113.342 123.342C113.971 122.312 113.905 120.797 113.623 119.624C112.797 119.145 111.971 118.672 111.145 118.193V120.546C111.863 123 111.354 124.832 110.169 125.515C110.965 125.06 111.749 124.611 112.534 124.15Z" fill="#1A293B"/>
<path d="M111.145 117.965C111.019 117.917 110.905 117.857 110.791 117.791V122.611L111.145 122.408V120.552V118.199V117.965Z" fill="#9B346C"/>
<path d="M111.145 122.402L110.792 122.605L102.9 118.049V115.941C102.703 116.444 102.625 117.007 102.625 117.552C102.625 120.24 104.433 123.515 106.756 125.036C108.109 125.922 109.313 126.018 110.163 125.521C111.348 124.838 111.851 123.006 111.139 120.552V122.402H111.145Z" fill="#3F4F5D"/>
<path d="M113.354 115.061C112.749 114.714 112.138 114.361 111.534 114.014C111.534 114.457 111.534 114.9 111.534 115.349V115.355V115.361C111.534 115.373 111.534 115.391 111.534 115.409C111.534 115.528 111.546 115.672 111.582 115.81C111.857 115.48 112.264 115.121 112.683 115.019C112.905 114.954 113.156 114.954 113.354 115.061Z" fill="#D2448D"/>
<path d="M113.174 115.462C113.018 115.361 112.821 115.343 112.617 115.397C112.258 115.486 111.929 115.774 111.695 116.067C111.707 116.091 111.725 116.109 111.743 116.127C111.803 116.187 111.869 116.229 112.043 116.241C112.468 116.277 113.024 116.031 113.396 115.816C113.462 115.78 113.527 115.738 113.593 115.702C113.456 115.618 113.318 115.54 113.174 115.462Z" fill="#E1DFEA"/>
<path d="M113.168 154.397C113.15 153.355 113.94 152.128 114.701 151.739C114.755 151.709 114.814 151.685 114.874 151.661C104.349 145.584 93.8174 139.507 83.2919 133.43C83.0763 133.304 82.8608 133.179 82.6452 133.059C82.6452 133.059 82.6452 133.059 82.6393 133.059C82.5435 133.023 82.3818 132.909 82.0166 133.041C81.4897 133.232 81.0407 133.789 80.8072 134.316C80.6934 134.58 80.6755 134.693 80.6335 134.945L80.6455 135.819C81.4957 136.31 82.3399 136.801 83.1901 137.292C93.1767 143.057 103.169 148.823 113.156 154.595L113.168 154.397Z" fill="#E1DFEA"/>
<path d="M109.63 115.343C109.63 114.528 109.636 113.72 109.636 112.912C109.636 112.056 109.636 111.2 109.642 110.337C109.642 109.607 109.648 108.877 109.648 108.146C109.648 107.721 109.648 107.296 109.648 106.865C110.283 107.23 110.911 107.595 111.546 107.961C111.546 108.386 111.546 108.811 111.546 109.242C113.749 110.517 115.959 111.786 118.162 113.062C118.533 112.846 118.904 112.637 119.27 112.421C119.964 112.81 120.76 113.086 121.617 113.265C121.096 113.565 120.581 113.864 120.06 114.163C122.892 115.798 125.73 117.432 128.556 119.067C129.136 119.408 129.975 119.671 130.46 119.204C130.717 118.953 130.849 118.54 130.897 118.181C131.046 117.067 131.196 115.959 131.346 114.846C131.549 113.343 131.747 111.84 131.95 110.337C132.645 109.936 133.339 109.535 134.034 109.14C133.783 110.984 133.537 112.822 133.292 114.666C133.124 115.923 132.95 117.181 132.783 118.438C132.441 121.078 130.082 122.174 127.604 120.725C124.454 118.911 121.311 117.091 118.156 115.271C117.264 115.786 116.378 116.295 115.486 116.81C115.102 117.031 114.719 117.253 114.342 117.474C113.103 118.199 111.983 118.312 111.145 117.983C111.019 117.935 110.905 117.875 110.792 117.809C110.061 117.336 109.624 116.474 109.63 115.343ZM113.755 115.606C114.594 115.127 115.426 114.642 116.264 114.157C114.689 113.247 113.121 112.343 111.546 111.433C111.546 112.289 111.54 113.145 111.54 114.008C111.54 114.451 111.54 114.894 111.54 115.343V115.349V115.355C111.54 115.367 111.54 115.385 111.54 115.403C111.54 115.522 111.552 115.666 111.588 115.804C111.612 115.906 111.648 115.995 111.702 116.073C111.714 116.097 111.732 116.115 111.75 116.133C111.81 116.193 111.875 116.235 112.049 116.247C112.474 116.283 113.031 116.037 113.402 115.822C113.468 115.786 113.534 115.744 113.6 115.708C113.648 115.672 113.701 115.642 113.755 115.606Z" fill="#E1DFEA"/>
<path d="M111.695 116.067C111.929 115.774 112.258 115.486 112.617 115.397C112.821 115.343 113.018 115.361 113.174 115.462C113.312 115.546 113.449 115.624 113.593 115.702C113.647 115.672 113.701 115.642 113.749 115.612C113.689 115.397 113.551 115.181 113.36 115.067C113.354 115.067 113.354 115.061 113.348 115.061C113.15 114.954 112.899 114.954 112.677 115.007C112.258 115.115 111.845 115.468 111.575 115.798C111.605 115.9 111.641 115.995 111.695 116.067Z" fill="#9B346C"/>
<path d="M114.761 44.0531C114.408 47.1186 112.276 67.5948 111.923 70.6603L113.665 71.7499C113.935 69.4209 116.288 47.418 116.557 45.0949C115.958 44.7417 115.36 44.4004 114.761 44.0531Z" fill="#E1DFEA"/>
<path d="M120.688 166.731C121.479 166.282 122.263 165.827 123.047 165.372C124.017 164.815 124.34 163.624 124.34 162.51C124.34 161.642 124.149 160.744 123.861 159.917C123.089 159.876 122.263 159.678 121.419 159.295L121.449 161.133C121.772 161.983 121.981 162.965 121.981 163.869C121.987 165.36 121.455 166.288 120.688 166.731Z" fill="#1A293B"/>
<path d="M113.222 157.84C112.672 160.756 114.911 165.054 117.791 166.551C118.312 166.821 118.886 167.024 119.473 167.03C119.91 167.036 120.323 166.94 120.688 166.731C121.455 166.288 121.988 165.36 121.988 163.875C121.988 162.971 121.772 161.989 121.455 161.139L121.497 163.498L121.149 163.707L113.258 159.151L113.222 157.84Z" fill="#3F4F5D"/>
<path d="M121.419 159.295C122.263 159.678 123.089 159.876 123.862 159.917C126.927 160.079 129.244 157.708 129.214 153.894C129.214 153.894 129.214 153.894 129.214 153.888C129.214 153.817 129.214 153.739 129.214 153.667C129.214 153.667 129.214 153.667 129.214 153.661C129.232 149.889 127.011 145.542 124.143 143.022C110.588 130.999 97.0329 118.977 83.4719 106.955C81.077 104.847 79.5263 101.363 79.5383 98.848C79.5383 97.7164 79.5383 96.5789 79.5383 95.4473C79.0653 95.8065 77.0776 96.8303 76.4968 96.9561C76.377 96.986 76.2633 97.004 76.1495 97.0159C76.1495 97.6266 76.1495 98.2313 76.1495 98.842C76.1316 102.368 78.1433 106.775 81.2207 109.487C94.7757 121.51 108.337 133.532 121.892 145.554C124.239 147.62 125.837 151.092 125.825 153.661C125.825 153.739 125.825 153.817 125.825 153.888V153.894C125.837 154.882 125.562 156.235 124.574 156.487C124.37 156.535 124.149 156.541 123.927 156.517C123.67 156.493 123.412 156.427 123.185 156.349L123.179 156.343C122.209 156.762 121.646 157.493 121.455 158.313C121.419 158.451 121.407 158.594 121.407 158.738L121.419 159.295Z" fill="#E1DFEA"/>
<path d="M123.927 156.529C123.855 156.397 123.754 156.289 123.628 156.211C123.586 156.187 123.538 156.163 123.496 156.146C123.251 156.062 122.969 156.122 122.724 156.229C122.293 156.415 121.975 156.744 121.712 157.121C121.329 157.666 121.047 158.307 121.059 158.954L121.143 163.701L121.491 163.492L121.449 161.133L121.419 159.295L121.407 158.744C121.407 158.6 121.419 158.457 121.455 158.319C121.646 157.499 122.209 156.768 123.179 156.349L123.185 156.355C123.412 156.439 123.67 156.505 123.927 156.529Z" fill="#9B346C"/>
<path d="M123.496 156.146C123.544 156.163 123.586 156.181 123.628 156.211C120.994 154.691 118.365 153.176 115.737 151.655C115.486 151.511 115.168 151.553 114.875 151.667C114.815 151.691 114.755 151.715 114.701 151.745C113.941 152.14 113.151 153.361 113.169 154.403V154.589L113.222 157.84L113.246 159.151L121.137 163.707L121.054 158.959C121.042 158.313 121.323 157.672 121.706 157.127C121.976 156.75 122.287 156.421 122.718 156.235C122.97 156.122 123.245 156.062 123.496 156.146Z" fill="#D2448D"/>
<path d="M132.602 69.1455C132.519 69.0377 132.483 68.894 132.495 68.7683C132.495 68.7623 132.495 68.7563 132.495 68.7504C132.531 68.457 132.561 68.1576 132.596 67.8642C131.788 67.3972 114.689 58.2967 113.875 57.8237V60.4341L129.1 68.918C130.07 68.906 132.118 69.3551 133.069 69.4868L133.087 69.367C132.89 69.3551 132.716 69.2892 132.602 69.1455Z" fill="#E1DFEA"/>
<path d="M133.076 69.4868C134.572 69.6844 136.021 70.0496 137.333 70.6004C136.357 70.0316 135.369 69.4688 134.393 68.9C134.393 68.924 134.387 68.9419 134.387 68.9659C134.387 68.9958 134.369 69.0198 134.327 69.0497C134.273 69.0856 134.189 69.1275 134.129 69.1515C133.848 69.2712 133.435 69.391 133.1 69.373L133.076 69.4868Z" fill="#E1DFEA"/>
<path d="M134.393 68.9C134.884 64.6791 135.369 60.4521 135.854 56.2311C135.255 55.8839 134.657 55.5426 134.058 55.1953C133.567 59.4163 133.082 63.6433 132.597 67.8642C132.561 68.1576 132.531 68.457 132.495 68.7503C132.495 68.7563 132.495 68.7623 132.495 68.7683C132.483 68.9 132.519 69.0377 132.603 69.1455C132.711 69.2892 132.89 69.3551 133.094 69.367C133.435 69.391 133.842 69.2652 134.124 69.1455C134.184 69.1216 134.267 69.0796 134.321 69.0437C134.363 69.0138 134.381 68.9898 134.381 68.9599C134.387 68.9419 134.393 68.924 134.393 68.9Z" fill="#E1DFEA"/>
<path d="M142.248 99.1593C142.248 99.5665 142.248 99.9676 142.248 100.369C142.811 100.045 143.38 99.7161 143.943 99.3928C144.003 98.9558 144.062 98.5187 144.122 98.0816C143.494 98.4349 142.871 98.7941 142.248 99.1593Z" fill="#E1DFEA"/>
<path d="M143.667 136.753C143.667 135.711 144.451 134.514 145.212 134.125C145.266 134.095 145.32 134.071 145.379 134.053V134.047C135.417 128.299 125.46 122.545 115.503 116.798C115.12 117.019 114.737 117.241 114.36 117.462C113.12 118.187 112.001 118.3 111.163 117.971V118.199C111.989 118.678 112.815 119.151 113.641 119.63C123.658 125.413 133.668 131.197 143.685 136.974V136.753H143.667Z" fill="#E1DFEA"/>
<path d="M148.552 92.6632C148.271 93.8187 147.439 95.3275 146.247 96.5309C146.175 97.0818 146.097 97.6386 146.026 98.1894C146.888 97.6925 147.75 97.1895 148.618 96.6926C149.396 95.6568 150.097 94.3636 150.402 93.1242C151.043 90.5677 151.684 88.0111 152.318 85.4546C151.552 85.8917 150.791 86.3347 150.031 86.7718C149.534 88.7356 149.043 90.6994 148.552 92.6632Z" fill="#E1DFEA"/>
<path d="M153.486 147.793C154.444 147.249 154.785 146.063 154.785 144.931C154.785 144.297 154.683 143.644 154.516 143.016C154.45 142.776 154.378 142.537 154.294 142.303C153.54 142.255 152.738 142.052 151.917 141.68V143.608C152.229 144.458 152.432 145.404 152.432 146.297C152.432 147.781 151.899 148.715 151.133 149.152V149.158C151.917 148.709 152.702 148.254 153.486 147.793Z" fill="#1A293B"/>
<path d="M143.667 140.249C143.104 143.189 145.373 147.512 148.265 148.991C148.786 149.26 149.355 149.452 149.942 149.452C150.367 149.452 150.774 149.356 151.127 149.152C151.893 148.709 152.426 147.781 152.426 146.297C152.426 145.404 152.223 144.458 151.911 143.608V145.937L151.564 146.141L143.673 141.585V140.249H143.667Z" fill="#3F4F5D"/>
<path d="M133.782 111.331C139.075 116.019 147.104 123.264 152.396 127.952C154.743 130.017 156.342 133.49 156.33 136.058C156.33 136.136 156.33 136.214 156.33 136.286V136.292C156.342 137.292 156.061 138.633 155.079 138.884C154.875 138.932 154.654 138.938 154.432 138.914C154.169 138.884 153.905 138.819 153.672 138.741V138.747C153.061 139.016 152.594 139.405 152.283 139.92C152.073 140.261 151.911 140.705 151.911 141.112V141.686C152.732 142.058 153.534 142.261 154.288 142.309C154.372 142.315 154.444 142.321 154.528 142.321C157.509 142.393 159.743 140.046 159.719 136.292C159.719 136.292 159.719 136.292 159.719 136.286C159.719 136.214 159.719 136.136 159.719 136.064C159.737 132.239 157.462 127.904 154.648 125.425C150.558 121.797 146.469 118.175 142.374 114.546C141.44 114.954 140.248 114.858 139.027 114.145C139.021 114.145 139.021 114.145 139.015 114.139C138.59 113.894 135.297 108.865 134.878 108.619L134.052 109.14C133.645 109.308 134.189 111.182 133.782 111.331Z" fill="#E1DFEA"/>
<path d="M152.708 80.4673C152.995 80.4254 153.313 80.3296 153.486 80.2458C153.54 80.2159 153.63 80.1739 153.642 80.1141C153.648 80.0841 153.654 80.0602 153.66 80.0303C154.642 76.0907 155.63 72.1571 156.612 68.2175C156.043 67.8882 155.468 67.5589 154.899 67.2296C153.917 71.1632 152.935 75.1028 151.948 79.0424C151.888 79.2938 151.822 79.5393 151.762 79.7848C151.672 80.0422 151.798 80.3775 152.193 80.4673C152.361 80.4973 152.54 80.4913 152.708 80.4673Z" fill="#E1DFEA"/>
<path d="M153.486 80.2398C153.313 80.3236 152.989 80.4254 152.708 80.4613C152.546 80.4853 152.367 80.4972 152.199 80.4613C151.804 80.3775 151.684 80.0362 151.768 79.7788C151.828 79.5273 151.894 79.2818 151.953 79.0364C147.978 76.7433 144.002 74.4442 140.027 72.1511C141.524 73.3545 115.234 57.0035 115.186 58.4763C115.186 58.8655 114.749 60.6976 114.749 61.0867C117.575 62.7153 147.888 80.7128 150.714 82.3413C151.876 81.6707 153.037 81.0002 154.199 80.3296C154.019 80.2278 153.845 80.126 153.666 80.0242C153.66 80.0542 153.654 80.0781 153.648 80.1081C153.63 80.1679 153.54 80.2158 153.486 80.2398Z" fill="#E1DFEA"/>
<path d="M153.235 138.615C152.81 138.801 152.493 139.124 152.223 139.501C151.84 140.034 151.559 140.669 151.559 141.309V146.135L151.906 145.931V143.602V141.674V141.1C151.906 140.693 152.067 140.25 152.277 139.908C152.588 139.393 153.049 139.004 153.666 138.735V138.729C153.9 138.813 154.163 138.878 154.426 138.902C154.361 138.777 154.253 138.663 154.133 138.591C154.091 138.561 154.049 138.543 154.001 138.525C153.756 138.453 153.474 138.513 153.235 138.615Z" fill="#9B346C"/>
<path d="M154.127 138.597C151.492 137.076 148.864 135.562 146.236 134.041C145.984 133.897 145.661 133.939 145.373 134.053C145.32 134.071 145.26 134.101 145.206 134.125C144.445 134.514 143.661 135.717 143.661 136.753V136.969V140.25V141.585L151.552 146.141V141.315C151.552 140.675 151.834 140.04 152.217 139.507C152.486 139.13 152.798 138.807 153.229 138.621C153.474 138.513 153.75 138.453 153.995 138.543C154.043 138.555 154.085 138.579 154.127 138.597Z" fill="#D2448D"/>
<path d="M154.198 84.359C154.887 84.7541 155.576 85.1553 156.264 85.5504C156.378 84.6883 156.498 83.8261 156.611 82.964C155.809 83.431 155.001 83.898 154.198 84.359Z" fill="#E1DFEA"/>
<path d="M154.288 142.309C154.372 142.543 154.444 142.782 154.51 143.022L154.522 142.315C154.444 142.315 154.366 142.315 154.288 142.309Z" fill="#9B346C"/>
<path d="M155.665 93.5972C156.09 93.8667 156.695 94.0822 157 93.687C157.066 93.6092 157.108 93.5074 157.126 93.3997C157.132 93.3757 157.138 93.3518 157.138 93.3218C157.21 92.759 157.288 92.2022 157.366 91.6394C157.593 89.951 157.821 88.2686 158.048 86.5802C158.216 85.3349 158.384 84.0895 158.551 82.8502C158.599 82.491 158.653 82.1317 158.701 81.7665C158.006 82.1677 157.312 82.5688 156.617 82.97C156.504 83.8321 156.384 84.6943 156.27 85.5564C155.941 87.9872 155.617 90.418 155.288 92.8488C155.276 92.9446 155.264 93.0464 155.252 93.1422C155.252 93.232 155.318 93.3218 155.42 93.4116C155.486 93.4715 155.581 93.5433 155.665 93.5972Z" fill="#E1DFEA"/>
<path d="M125.491 51.8245C123.976 52.6987 122.467 53.5728 120.952 54.4409C120.952 53.3513 120.946 52.2616 120.946 51.16C122.455 51.3815 123.976 51.603 125.491 51.8245Z" fill="#FAC152"/>
<path d="M120.875 58.0273C120.994 57.9435 121.12 57.8716 121.264 57.8596C121.347 57.8177 121.623 57.8656 121.785 58.0333C121.988 58.2608 121.988 58.6739 121.928 58.9493C121.593 58.5302 121.108 58.147 120.875 58.0273Z" fill="#A23042"/>
<path d="M119.803 48.5376C120.449 50.0284 120.797 50.8367 120.94 51.16C120.94 52.2556 120.946 53.3513 120.946 54.4409C120.467 54.7223 119.988 54.9978 119.509 55.2732C119.713 50.6151 119.737 50.226 119.803 48.5376Z" fill="#FDE86B"/>
<path d="M120.719 60.3503C120.497 60.3862 120.27 60.2785 120.15 60.039C120.24 60.015 120.336 59.9911 120.407 59.9492C120.545 60.0869 120.611 60.1827 120.719 60.3503Z" fill="#A23042"/>
<path d="M120.15 60.0381C120.108 59.9604 120.06 59.7991 120.06 59.6318C120.144 59.6975 120.323 59.829 120.413 59.9485C120.329 59.9903 120.24 60.0202 120.15 60.0381Z" fill="#A23042"/>
<path d="M119.982 58.4045C120.593 57.2849 121.91 56.6682 122.365 57.8477C122.533 58.2967 122.401 58.9254 122.234 59.3744L122.228 59.3804C122.138 59.2247 122.036 59.087 121.922 58.9433C122.042 58.4165 121.898 57.8656 121.353 57.8357C121.323 57.8357 121.288 57.8357 121.264 57.8477C121.12 57.8597 120.994 57.9315 120.874 58.0153C120.719 58.1111 120.467 58.3566 120.282 58.7038C120.096 59.0511 120.054 59.3205 120.054 59.6259C120.084 60.1827 120.413 60.3862 120.713 60.3384C120.773 60.4641 120.797 60.4521 120.97 60.8473C119.737 61.422 119.102 60.033 119.982 58.4045Z" fill="#EF4F25"/>
<path d="M119.803 48.5376C119.737 50.226 119.713 50.6451 119.515 55.2732C113.366 58.8176 107.211 62.368 101.063 65.9184C100.745 65.188 99.9909 63.4397 99.931 63.296C98.4103 63.0805 96.8955 62.859 95.3867 62.6434C103.517 57.9435 111.66 53.2435 119.803 48.5376Z" fill="#FAC152"/>
<path d="M119.581 59.9073C119.593 60.3144 119.719 60.7275 120.09 60.9011C119.887 60.8053 119.689 60.6976 119.486 60.5958C119.402 60.5539 119.33 60.488 119.258 60.4102C118.737 59.7756 119.001 58.7577 119.45 58.0093C119.677 57.6202 119.947 57.2849 120.366 57.0753C120.671 56.9197 121.042 56.8418 121.33 56.9915C121.515 57.0753 121.683 57.1771 121.862 57.2669C121.419 57.0873 120.557 57.3627 119.982 58.4045C119.731 58.8655 119.557 59.3864 119.581 59.9073Z" fill="#FA7800"/>
<path d="M109.391 64.6372C109.576 64.6132 109.768 64.6731 109.9 64.7988C110.103 65.0144 110.109 65.4095 110.049 65.7089C109.93 65.5652 109.804 65.4335 109.672 65.3077C109.367 65.0383 109.541 65.2359 109.463 64.8288C109.439 64.7629 109.415 64.691 109.391 64.6372Z" fill="#A23042"/>
<path d="M109.582 65.3077C109.427 65.182 109.157 64.8946 108.984 64.7988C109.097 64.715 109.247 64.6372 109.385 64.6372C109.457 64.7749 109.594 65.1521 109.582 65.3077Z" fill="#A23042"/>
<path d="M108.99 64.7988C109.517 65.1041 109.942 65.5412 110.307 66.0322C110.331 66.0621 110.343 66.086 110.361 66.116C110.361 66.116 110.367 66.116 110.361 66.122C111.87 68.1576 112.606 72.6121 114.289 73.6359C114.696 73.8874 115.055 73.8754 115.504 73.8036C116.001 73.6958 116.336 73.5102 116.719 73.3186C116.719 73.3126 116.725 73.3126 116.725 73.3126C116.791 73.2887 117.438 72.8815 117.737 72.6241C121.904 69.3431 122.575 61.5717 120.054 59.6318C120.03 59.075 120.342 58.4584 120.773 58.0991C120.892 58.0093 120.851 58.0213 120.922 58.0572C124.485 60.2126 124.257 69.4389 119.078 73.8574C117.719 75.013 115.732 76.0547 114.031 75.4919C110.648 74.4322 110.391 68.0439 108.17 66.4034C108.17 65.7687 108.535 65.0982 108.99 64.7988Z" fill="#C2485C"/>
<path d="M108.87 67.1218C108.666 67.1518 108.403 67.062 108.259 66.8105C108.367 66.7925 108.415 66.7806 108.541 66.7147C108.559 66.7327 108.87 67.0919 108.87 67.1218Z" fill="#A23042"/>
<path d="M108.534 66.7081C108.403 66.7857 108.343 66.7917 108.253 66.8037C108.188 66.6842 108.17 66.5348 108.17 66.3974C108.367 66.5408 108.45 66.6244 108.534 66.7081Z" fill="#A23042"/>
<path d="M127.053 51.5731C110.75 60.979 106.307 63.5535 100.632 66.8285L102.206 100.237L128.628 84.9876L127.053 51.5731ZM120.407 72.4804C119.527 73.5641 118.767 74.1628 117.713 74.8214C117.641 74.8214 116.671 75.492 115.474 75.6237C111.397 76.0667 110.726 70.1753 109.169 67.5888C108.912 67.7325 108.559 67.8164 108.289 67.7086C108.253 67.6966 108.217 67.6787 108.193 67.6607L108.187 67.6667C108.116 67.6308 107.9 67.511 107.601 67.3613C107.247 67.1757 107.08 66.8404 107.092 66.3495C107.128 65.3496 107.535 64.5473 108.325 63.9426C108.672 63.6732 109.05 63.5654 109.445 63.757C109.648 63.8648 109.846 63.9606 110.049 64.0684L110.043 64.0923C110.678 64.3258 110.642 65.4275 110.361 66.11C110.361 66.11 110.367 66.11 110.361 66.116C111.492 67.6427 112.187 70.5405 113.247 72.4445C113.905 73.5581 114.594 74.1269 115.815 73.7197C116.839 73.4264 118.497 72.2948 119.635 70.4986C121.695 67.2895 121.964 63.0206 120.982 60.8592C120.347 61.1466 120.162 60.9251 119.485 60.6018C119.401 60.5599 119.33 60.494 119.258 60.4162C118.737 59.7815 119 58.7637 119.449 58.0153C119.677 57.6261 119.946 57.2909 120.365 57.0813C120.671 56.9256 121.042 56.8478 121.329 56.9975C121.515 57.0813 121.683 57.1831 121.862 57.2729C122.096 57.3687 122.269 57.6022 122.371 57.8596C122.539 58.3087 122.407 58.9373 122.239 59.3864L122.233 59.3924C122.263 59.4223 122.275 59.4582 122.299 59.4822C124.209 62.6255 123.395 68.9 120.407 72.4804Z" fill="#FAC152"/>
<path d="M109.367 64.0384C109.708 63.9606 110.049 64.0504 110.241 64.212C110.684 64.6132 110.606 65.5292 110.36 66.11C110.307 66.0381 110.331 66.0381 110.043 65.7029C110.103 65.4035 110.091 65.0024 109.893 64.7928C109.768 64.6671 109.57 64.6072 109.385 64.6312C109.187 64.6312 109.001 64.7689 108.858 64.8886C108.187 65.4873 108.055 66.4273 108.253 66.8045C108.391 67.05 108.66 67.1458 108.864 67.1158C108.93 67.2056 108.995 67.2835 109.169 67.5888C108.157 68.1397 107.409 67.3014 107.738 66.104C108.025 64.9126 108.822 64.1641 109.367 64.0384Z" fill="#EF4F25"/>
<path d="M108.606 64.5174C108.151 64.9724 107.888 65.4873 107.738 66.11C107.672 66.4034 107.648 66.7147 107.732 67.0081C107.804 67.2775 107.966 67.529 108.187 67.6607L108.181 67.6667C108.109 67.6307 107.882 67.505 107.594 67.3613C107.241 67.1757 107.074 66.8404 107.086 66.3495C107.121 65.3496 107.529 64.5473 108.319 63.9426C108.666 63.6732 109.043 63.5654 109.439 63.757C109.642 63.8648 109.84 63.9606 110.043 64.0684L110.037 64.0923C109.834 64.0025 109.582 63.9845 109.361 64.0384C109.061 64.1103 108.816 64.2959 108.606 64.5174Z" fill="#FA7800"/>
<path d="M100.631 66.8285L102.212 100.237L99.2664 96.1837V63.6792L100.631 66.8285Z" fill="#FDE86B"/>
<path d="M99.267 63.6792L93.8186 62.8889L120.24 47.6395L121.599 50.7828L127.054 51.5731C110.75 60.979 106.308 63.5535 100.632 66.8285L99.267 63.6792ZM95.3813 62.6434C96.896 62.859 98.4048 63.0805 99.9255 63.296C99.9914 63.4457 100.74 65.188 101.057 65.9184C105.356 63.4337 122.791 53.3752 125.485 51.8246C123.97 51.597 122.449 51.3815 120.941 51.166C120.797 50.8486 120.581 50.3457 119.803 48.5436C111.66 53.2435 103.518 57.9435 95.3813 62.6434Z" fill="#FFEC8E"/>
<path d="M99.2664 63.6792V96.1837L92.2434 94.4893L93.818 62.8889L99.2664 63.6792Z" fill="#FAC152"/>
<path d="M137.782 79.7668C133.148 79.228 128.31 78.4676 128.31 78.4676L127.053 51.5731C127.053 51.5731 114.917 58.626 110.48 61.1107C108.648 62.1345 106.9 63.326 104.876 64.0384C105.032 63.6553 106.756 62.6374 106.756 62.6374L119.515 55.2732L120.952 54.441C120.952 54.441 119.898 48.795 119.802 48.5376L95.3806 62.6434C95.6141 62.5895 99.7273 63.5535 101.062 65.9244C102.134 67.8343 101.871 72.0134 101.482 79.2639C101.434 80.1859 100.595 80.8685 99.6794 80.7248C98.2245 80.4913 98.2964 81.6707 98.2964 81.6707L99.2663 81.9641L101.949 93.7769L102.206 100.249C102.206 100.249 115.067 102.548 119.114 102.38C121.736 102.273 124.149 101.572 126.334 100.099C127.454 99.339 128.34 98.4109 128.376 96.9501C129.639 96.2196 130.861 95.4832 132.094 94.7827C135.034 93.1063 137.764 91.0048 141.225 90.412C141.458 90.3761 141.668 90.2564 141.889 90.1726C142.524 89.9391 143.009 89.6217 143.248 88.8913C143.296 88.7416 143.392 87.8615 143.476 86.712C143.739 83.2334 141.231 80.168 137.782 79.7668ZM109.9 100.489C110.941 100.063 114.492 99.806 116.941 100.063C114.695 100.944 112.42 101.518 109.9 100.489ZM122.066 67.7565C122.006 67.4511 121.904 67.1278 121.892 66.8225C121.844 64.6252 121.688 62.4518 121.036 60.3324C120.832 59.6678 120.88 59.0691 121.539 58.626C122.239 59.3804 122.706 60.3563 122.706 60.3563C123.107 62.9188 123.101 65.2299 122.066 67.7565Z" fill="#DBD0F2"/>
<path d="M103.87 64.1282C103.242 64.4875 103.277 64.4695 103.271 64.4695C103.463 63.9067 103.691 63.5654 103.87 64.1282Z" fill="#D64A78"/>
<path d="M102.775 82.0719C102.757 82.1318 102.751 82.1677 102.715 82.2156C102.643 82.2994 102.535 82.3293 102.446 82.3174C98.0928 81.6408 98.3503 81.6887 98.3024 81.6708C98.2365 81.6468 98.1946 81.5929 98.1707 81.539C97.9851 80.7846 97.7695 78.0545 97.7156 77.2702C97.4702 73.594 97.4941 69.7383 98.1228 66.0921C98.2425 65.4095 98.5239 63.9127 98.8472 63.2781C98.967 63.0506 99.1226 62.859 99.3741 62.9009C103.841 63.5894 103.535 63.5116 103.685 63.6433C103.811 63.763 103.864 63.9486 103.906 64.1103L103.864 64.1342C103.625 63.3679 103.308 64.266 103.098 65.0443C102.787 66.2358 102.541 67.8822 102.41 69.1216C101.769 75.3004 102.727 82.2455 102.775 82.0719Z" fill="#F50054"/>
<path d="M142.709 69.2832V74.1089L140.201 71.6901L142.709 69.2832Z" fill="#8140FF"/>
<path d="M141.482 69.6844C141.32 69.84 139.554 71.5344 139.392 71.6901C139.392 72.3606 139.398 73.0312 139.398 73.7018C130.801 73.7018 122.209 73.7018 113.611 73.7018C113.617 73.0312 113.617 72.3606 113.617 71.6901C112.923 71.0195 112.228 70.3489 111.528 69.6844C121.514 69.6844 131.501 69.6844 141.482 69.6844Z" fill="#5F26CF"/>
<path d="M141.482 73.7077C140.787 73.7077 140.099 73.7077 139.398 73.7077C139.398 73.0372 139.392 72.3666 139.392 71.696C140.093 72.3666 140.787 73.0372 141.482 73.7077Z" fill="#8140FF"/>
<path d="M135.13 78.1383C135.13 77.9467 135.141 77.8689 135.141 77.7371C135.141 77.0127 135.177 76.9408 135.094 76.7612C135.046 76.6594 134.986 76.5756 134.896 76.5098C135.698 76.887 135.716 77.7072 135.13 78.1383Z" fill="#E95950"/>
<path d="M132.615 77.3659C132.627 76.4918 133.74 75.5698 134.986 75.9949C135.722 76.2403 136.105 76.7852 136.123 77.3779C136.123 78.0245 135.602 78.5394 135.099 78.731C135.099 78.7071 135.129 78.3299 135.129 78.1323C135.267 78.0305 135.393 77.8868 135.465 77.7252C135.836 76.863 134.728 76.1026 133.86 76.4918H133.854C133.094 76.869 132.998 77.6533 133.567 78.0964C133.567 78.1562 133.555 78.5035 133.537 78.6951C132.998 78.4556 132.615 77.9527 132.615 77.3659Z" fill="#F5B538"/>
<path d="M133.597 76.0487C133.064 76.2942 132.621 76.8151 132.615 77.3659C132.615 77.2462 132.615 77.1145 132.615 76.9947C132.615 76.7013 132.746 76.2463 133.196 75.8811C133.83 75.3842 134.89 75.3602 135.554 75.8931C135.884 76.1625 136.123 76.5756 136.123 76.9827C136.123 77.1145 136.123 77.2462 136.123 77.3719C136.099 76.1924 134.626 75.5817 133.597 76.0487Z" fill="#F8E150"/>
<path d="M110.312 74.1089C110.312 98.0757 110.312 90.2384 110.312 103.404H142.709C142.709 94.8605 142.709 87.2987 142.709 74.1089C133.333 74.1089 127.466 74.1089 110.312 74.1089ZM136.123 77.3779C136.123 78.0245 135.602 78.5394 135.1 78.731C134.932 81.7665 134.064 85.1493 131.723 87.0532C129.921 88.4961 127.586 88.8614 125.328 88.4243C120.85 87.4723 119.329 83.2573 119.054 78.6472C118.557 78.4496 118.042 77.9407 118.042 77.3001C118.042 77.1743 118.042 77.0426 118.042 76.9109C118.042 76.5038 118.287 76.0787 118.617 75.8153C119.239 75.3063 120.335 75.2944 120.982 75.8153C121.311 76.0847 121.55 76.5038 121.55 76.9109V77.3001C121.55 77.8868 121.143 78.3957 120.616 78.6173C120.616 79.0064 120.736 80.3715 121.018 81.5809C121.527 83.8082 122.712 85.9935 124.891 86.688C126.262 87.1849 128.316 87.179 129.831 86.4246C132.022 85.3289 132.956 82.8203 133.351 80.3955C133.357 80.3356 133.537 79.1441 133.537 78.6891C133.01 78.4496 132.615 77.9527 132.615 77.3779C132.615 77.2103 132.615 77.1504 132.615 76.9887C132.615 76.6954 132.747 76.2403 133.196 75.8751C133.83 75.3782 134.89 75.3542 135.555 75.8871C135.884 76.1565 136.123 76.5696 136.123 76.9768C136.123 77.1264 136.123 77.2522 136.123 77.3779Z" fill="#5F26CF"/>
<path d="M120.575 76.9348C120.575 76.7193 120.461 76.5337 120.305 76.414C120.634 76.5457 120.964 76.9289 120.964 77.3061C120.964 77.5396 120.85 77.8329 120.593 78.0305C120.587 77.9527 120.575 77.0187 120.575 76.9348Z" fill="#E95950"/>
<path d="M133.585 77.6892C133.585 77.6713 133.585 77.6593 133.585 77.6413C133.585 77.6653 133.585 77.6952 133.579 77.7192C133.579 78.0066 133.579 77.7611 133.585 77.6892ZM119.024 77.6533C119.024 76.9169 118.988 76.863 119.072 76.6834C119.114 76.5876 119.173 76.5038 119.251 76.4379C119.551 76.2882 119.952 76.2523 120.305 76.414C120.473 76.5397 120.574 76.7253 120.574 76.9468C120.574 78.5574 120.658 80.0302 121.018 81.5929C121.724 84.7003 123.478 86.8976 126.639 87.0293C129.909 87.2209 132.519 85.5145 133.351 80.4074C133.363 80.3356 133.507 79.3896 133.537 78.7131C133.537 78.6592 133.567 78.294 133.567 78.1024C133.321 77.9108 133.201 77.6413 133.201 77.3779C133.213 76.7672 134.004 76.1745 134.806 76.4738C134.836 76.4858 134.866 76.4978 134.896 76.5098C134.98 76.5756 135.04 76.6535 135.093 76.7612C135.177 76.9468 135.141 77.0187 135.141 77.7371C135.141 79.2938 134.842 81.5809 134.297 83.1017C133.261 86.209 131.13 88.2926 127.843 88.568C121.55 89.0829 119.024 83.886 119.024 77.6533Z" fill="#AA682D"/>
<path d="M119.251 76.4379C119.096 76.5816 119.018 76.7672 119.018 76.9169C119.018 77.2761 119.018 77.7132 119.036 78.0545H119.03C118.461 77.6294 118.479 76.8151 119.251 76.4379Z" fill="#E95950"/>
<path d="M118.042 77.3061C118.06 76.6235 118.545 76.1206 119.191 75.911C120.485 75.5159 121.55 76.4559 121.55 77.3061C121.55 77.8868 121.143 78.4017 120.616 78.6232C120.61 78.4975 120.604 78.3538 120.598 78.2281C120.598 77.9407 120.538 78.1143 120.742 77.8868C120.886 77.7252 120.964 77.4857 120.964 77.3061C120.964 76.9289 120.634 76.5457 120.305 76.414C119.443 76.0188 118.335 76.7912 118.7 77.6413C118.766 77.809 118.892 77.9467 119.03 78.0485H119.036C119.036 78.4975 119.054 78.5873 119.054 78.6532C118.551 78.4556 118.042 77.9467 118.042 77.3061Z" fill="#F5B538"/>
<path d="M118.042 76.9169C118.042 76.5097 118.287 76.0847 118.617 75.8212C118.946 75.5518 119.371 75.438 119.802 75.438C120.892 75.438 121.556 76.2044 121.556 76.9229V77.312C121.556 76.7672 121.119 76.2343 120.592 75.9889C119.545 75.4919 118.078 76.1266 118.048 77.312C118.042 77.1803 118.042 77.0486 118.042 76.9169Z" fill="#F8E150"/>
<path d="M113.617 71.6901C113.617 72.3606 113.617 73.0312 113.611 73.7018C112.917 73.7018 112.228 73.7018 111.528 73.7018C113.797 71.5164 113.354 71.9595 113.617 71.6901Z" fill="#8140FF"/>
<path d="M112.815 71.6902L110.312 74.109V69.2834L112.815 71.6902Z" fill="#8140FF"/>
<path d="M111.534 73.7078C127.047 73.7078 132.621 73.7078 141.488 73.7078C140.793 73.0372 140.099 72.3666 139.398 71.6961C139.554 71.5404 141.326 69.84 141.488 69.6904C131.501 69.6904 121.521 69.6904 111.534 69.6904C112.228 70.3549 112.923 71.0255 113.623 71.6961C113.336 71.9775 113.839 71.4746 111.534 73.7078ZM110.312 74.1089L112.815 71.6901L110.312 69.2772H142.709L140.201 71.6901L142.709 74.1089C131.124 74.1089 122.089 74.1089 110.312 74.1089Z" fill="#A482F4"/>
<path d="M110.313 90.7414C110.319 90.5378 110.319 87.7777 110.319 84.5925V91.5137C110.313 91.2503 110.307 90.9988 110.313 90.7414Z" fill="#C6B3EB"/>
<path d="M90.8059 93.8247C91.1771 93.9445 91.71 93.687 92.0154 93.4655C92.1291 93.3817 92.3027 93.238 92.3027 93.0943C92.3027 93.0943 92.3027 93.0943 92.3027 93.0883C92.2908 92.9925 92.2728 92.8967 92.2668 92.8009C91.8297 89.502 91.3927 86.203 90.9496 82.9101C90.2551 82.5089 89.5666 82.1078 88.8721 81.7126C89.0457 83.0118 89.2193 84.3111 89.393 85.6103C89.6624 87.61 89.9258 89.6037 90.1952 91.6035C90.2671 92.1723 90.3449 92.747 90.4228 93.3158C90.4228 93.3158 90.4228 93.3218 90.4228 93.3278C90.4467 93.5493 90.5784 93.7529 90.8059 93.8247Z" fill="#E1DFEA"/>
<path d="M111.558 104.225C111.558 104.135 111.558 104.039 111.558 103.949C111.564 102.476 111.564 100.997 111.57 99.5186C111.57 97.9559 111.576 96.3932 111.582 94.8306C110.947 94.4654 110.313 94.1002 109.684 93.7349C109.678 96.028 109.672 98.3211 109.666 100.62C109.666 101.363 109.666 102.111 109.66 102.853C109.66 103.356 109.66 103.859 109.654 104.362C109.654 104.464 109.672 104.566 109.72 104.65C109.888 104.997 110.271 105.021 110.642 104.913C110.947 104.823 111.558 104.512 111.558 104.225Z" fill="#E1DFEA"/>
<path d="M154.899 67.2296C155.468 67.5589 156.043 67.8882 156.612 68.2175C159.312 69.7742 162.012 71.3368 164.718 72.8995C164.928 73.0192 165.161 73.1869 165.311 73.3785C165.425 73.5281 165.413 73.57 165.413 73.576C165.413 73.582 165.413 73.588 165.407 73.606C165.371 73.7257 165.221 73.8814 165.125 73.9652C165.024 74.055 164.874 74.1628 164.712 74.2586C161.204 76.2822 157.701 78.3059 154.193 80.3296C153.031 81.0002 151.87 81.6707 150.708 82.3413C147.888 83.9698 145.062 85.6043 142.236 87.2328C137.069 90.2145 131.908 93.1961 126.741 96.1837H126.735C125.239 97.0638 122.431 97.0878 120.892 96.1837H120.886C120.114 95.7347 119.335 95.2916 118.557 94.8366C113.336 91.825 108.115 88.8075 102.894 85.7959C98.3861 83.1975 93.8777 80.593 89.3694 77.9886C88.609 77.5455 87.8486 77.1085 87.0823 76.6714C83.5977 74.6597 80.1072 72.648 76.6226 70.6363C75.7724 70.1454 74.9222 69.6544 74.0721 69.1635C72.9105 68.4929 71.749 67.8223 70.5875 67.1518C70.1205 66.8823 69.6535 66.6069 69.1865 66.3435C68.504 65.9483 67.8154 65.5532 67.1329 65.158C64.7739 63.7929 62.415 62.4338 60.05 61.0688H60.0441C59.8345 60.949 59.601 60.7814 59.4513 60.5898C59.3376 60.4401 59.3495 60.3982 59.3495 60.3922C59.3495 60.3862 59.3495 60.3802 59.3555 60.3623C59.3915 60.2425 59.5411 60.0869 59.6309 60.003C59.7327 59.9132 59.8824 59.8055 60.0441 59.7097H60.05C62.0617 58.5482 64.0794 57.3866 66.0911 56.2251C66.6898 55.8779 67.2886 55.5366 67.8873 55.1893C70.7971 53.5069 73.7128 51.8245 76.6226 50.1481V46.1247C71.1204 49.3039 65.6121 52.4771 60.1099 55.6563C60.1818 55.9497 60.2536 56.2431 60.3255 56.5365C60.4153 56.9615 60.2835 57.5303 59.9183 57.6501C59.6728 57.7339 59.2897 57.6022 58.7987 57.4884C58.4515 57.4046 57.8887 57.2908 57.5294 57.2968C57.5115 57.2968 57.4097 57.3028 57.4157 57.3208C56.4877 58.1051 55.865 59.1768 55.865 60.3922C55.865 61.9788 56.9128 63.302 58.3078 64.0923C61.2355 65.7867 64.1692 67.4751 67.103 69.1694C67.9112 69.6364 68.7255 70.1094 69.5398 70.5764C70.2343 70.9776 70.9228 71.3787 71.6173 71.7739C73.2877 72.7378 74.9522 73.7018 76.6166 74.6597C80.1012 76.6714 83.5857 78.6831 87.0763 80.6948C87.663 81.0361 88.2557 81.3774 88.8425 81.7126C89.537 82.1138 90.2255 82.5149 90.92 82.9101C94.9075 85.2151 98.895 87.5142 102.882 89.8193C105.14 91.1245 107.397 92.4297 109.654 93.7289C110.289 94.0942 110.923 94.4594 111.552 94.8246C112.905 95.6029 114.252 96.3873 115.605 97.1656C116.581 97.7284 117.563 98.2972 118.539 98.86C118.731 98.9737 118.928 99.0815 119.12 99.1953C119.12 99.1953 119.12 99.1953 119.126 99.1953C121.73 100.728 125.891 100.704 128.46 99.1953C128.46 99.1953 128.46 99.1953 128.466 99.1953C130.262 98.1595 132.052 97.1237 133.848 96.0879C134.543 95.6868 135.231 95.2856 135.926 94.8905C138.021 93.681 140.117 92.4656 142.218 91.2622C143.224 90.6815 144.236 90.1007 145.242 89.5199C145.936 89.1188 146.631 88.7177 147.325 88.3225C148.218 87.8076 149.104 87.2927 149.996 86.7778C150.756 86.3347 151.522 85.8977 152.283 85.4606C152.912 85.1014 153.54 84.7362 154.169 84.371C154.971 83.9099 155.779 83.4429 156.582 82.9819C157.276 82.5808 157.971 82.1796 158.665 81.7785C161.252 80.2877 163.844 78.7909 166.431 77.2941C166.431 77.2941 166.431 77.2941 166.437 77.2941C167.814 76.5098 168.879 75.1926 168.879 73.594C168.879 72.0074 167.832 70.6842 166.437 69.8939C166.437 69.8939 166.437 69.8939 166.431 69.8939C148.008 59.2546 129.579 48.6154 111.157 37.9821V42.0055C112.348 42.6941 113.546 43.3826 114.737 44.0711C115.336 44.4184 115.935 44.7596 116.533 45.1069C122.371 48.4777 128.202 51.8425 134.04 55.2133C134.639 55.5546 135.237 55.9018 135.836 56.2491C142.206 59.8953 148.553 63.5594 154.899 67.2296Z" fill="#E1DFEA"/>
<path d="M157 93.681C156.695 94.0762 156.096 93.8607 155.665 93.5912C155.581 93.5373 155.486 93.4715 155.408 93.3996C155.312 93.3098 155.24 93.22 155.24 93.1302C155.252 93.0344 155.27 92.9326 155.276 92.8368C153.055 94.1241 150.828 95.4054 148.606 96.6866C147.738 97.1836 146.876 97.6805 146.014 98.1834C145.936 98.7582 145.858 99.3389 145.78 99.9137C145.762 100.027 145.721 100.135 145.649 100.225C145.343 100.62 144.745 100.399 144.314 100.135C144.224 100.081 144.134 100.015 144.056 99.9437C143.96 99.8538 143.888 99.764 143.888 99.6742C143.9 99.5784 143.918 99.4826 143.924 99.3809C143.362 99.7042 142.793 100.033 142.23 100.357C139.691 101.824 137.153 103.291 134.608 104.757C134.536 105.314 134.459 105.877 134.381 106.434C134.381 106.464 134.375 106.488 134.369 106.512C134.351 106.619 134.303 106.715 134.243 106.799C133.938 107.194 133.333 106.979 132.908 106.709C132.758 106.613 132.483 106.416 132.483 106.242C132.483 106.236 132.483 106.224 132.483 106.218C132.495 106.128 132.507 106.045 132.519 105.955C130.579 107.074 128.645 108.194 126.705 109.314H126.699C125.208 110.188 122.4 110.224 120.856 109.314H120.85C120.077 108.871 119.311 108.428 118.539 107.978C116.204 106.631 113.863 105.278 111.528 103.931C111.528 104.021 111.528 104.117 111.528 104.207C111.528 104.494 110.917 104.805 110.612 104.895C110.24 105.003 109.863 104.979 109.69 104.632C109.648 104.548 109.624 104.446 109.624 104.344C109.624 103.841 109.624 103.338 109.63 102.835C108.983 102.464 108.342 102.093 107.696 101.722C106.091 100.794 104.481 99.8658 102.876 98.9378C99.3257 96.8902 95.7813 94.8366 92.2309 92.789C92.2428 92.8847 92.2548 92.9805 92.2668 93.0763C92.2668 93.0763 92.2668 93.0763 92.2668 93.0823C92.2608 93.226 92.0932 93.3697 91.9794 93.4535C91.6741 93.681 91.1412 93.9385 90.77 93.8128C90.5425 93.7409 90.4108 93.5374 90.3808 93.3158C90.3808 93.3158 90.3808 93.3098 90.3808 93.3039C90.303 92.7351 90.2252 92.1603 90.1533 91.5915C89.8839 91.4358 89.6204 91.2862 89.357 91.1305C88.5966 90.6934 87.8363 90.2504 87.0699 89.8133C83.5854 87.8016 80.1008 85.7899 76.6103 83.7782C75.3829 83.0717 74.1555 82.3592 72.9281 81.6528C72.9401 81.7366 72.9521 81.8204 72.9641 81.9102C72.994 82.0599 72.8383 82.1976 72.6827 82.3173C72.3773 82.5448 71.8445 82.8023 71.4732 82.6766C71.2517 82.6047 71.114 82.4071 71.0841 82.1856C71.0841 82.1736 71.0841 82.1677 71.0781 82.1557C71.0062 81.5869 70.9284 81.0241 70.8506 80.4553C70.1561 80.0542 69.4615 79.653 68.767 79.2519C67.1325 78.3059 65.498 77.3599 63.8575 76.4199H63.8515C63.642 76.3002 63.4085 76.1326 63.2588 75.941C63.1451 75.7913 63.157 75.7494 63.157 75.7434C63.157 75.7374 63.157 75.7314 63.163 75.7135C63.1989 75.5937 63.3486 75.438 63.4444 75.3542C63.5462 75.2644 63.6959 75.1566 63.8575 75.0609H63.8635C65.2466 74.2646 66.6236 73.4683 68.0067 72.666C68.5695 72.3427 69.1323 72.0194 69.6891 71.696C69.6412 71.3188 69.5873 70.9476 69.5394 70.5705C68.7311 70.1034 67.9169 69.6305 67.1026 69.1635C65.4441 70.1214 63.7797 71.0794 62.1212 72.0373C60.7502 72.8156 59.6785 74.1388 59.6785 75.7374C59.6785 77.324 60.7262 78.6412 62.1153 79.4375C62.1153 79.4375 62.1153 79.4375 62.1212 79.4375C62.1212 79.4375 62.1212 79.4375 62.1272 79.4375C64.5281 80.8205 66.929 82.2096 69.3238 83.5926C70.0303 83.9997 70.7308 84.4009 71.4373 84.808C72.1318 85.2092 72.8264 85.6103 73.5149 86.0055C76.6043 87.7896 79.6937 89.5738 82.7831 91.352C83.4177 91.7172 84.0524 92.0825 84.681 92.4477C86.2377 93.3458 87.8003 94.2498 89.357 95.1479C89.818 95.4113 90.279 95.6808 90.7341 95.9442C91.4286 96.3454 92.1231 96.7465 92.8116 97.1416C96.1645 99.0815 99.5233 101.015 102.876 102.955C103.319 103.213 103.768 103.47 104.211 103.728C106.013 104.769 107.816 105.811 109.618 106.847C110.252 107.212 110.881 107.577 111.516 107.943C114.042 109.403 116.569 110.864 119.101 112.319C119.101 112.319 119.101 112.319 119.107 112.319C119.155 112.349 119.197 112.373 119.245 112.397C119.94 112.786 120.736 113.062 121.592 113.241C122.125 113.349 122.67 113.421 123.227 113.445C125.089 113.535 127.011 113.169 128.447 112.319C128.447 112.319 128.447 112.319 128.453 112.319C129.615 111.649 130.776 110.978 131.932 110.307C132.627 109.906 133.321 109.505 134.016 109.11C136.752 107.529 139.488 105.949 142.224 104.374C142.595 104.159 142.96 103.949 143.332 103.734C144.026 103.332 144.715 102.931 145.409 102.536C148.499 100.752 151.582 98.9737 154.671 97.1895C155.366 96.7884 156.054 96.3873 156.749 95.9921C158.701 94.8605 160.659 93.7349 162.616 92.6033C162.616 92.6033 162.616 92.6033 162.622 92.6033C163.999 91.819 165.065 90.5018 165.065 88.9033C165.065 87.3166 164.017 85.9935 162.622 85.2032C162.622 85.2032 162.622 85.2032 162.616 85.2032C161.251 84.4129 159.886 83.6285 158.521 82.8382C158.354 84.0836 158.186 85.3289 158.018 86.5683C158.97 87.1191 159.922 87.6699 160.874 88.2207H160.88C161.09 88.3405 161.323 88.5081 161.473 88.6997C161.587 88.8494 161.575 88.8913 161.581 88.8973C161.581 88.9033 161.581 88.9092 161.575 88.9272C161.539 89.047 161.389 89.2026 161.299 89.2864C161.197 89.3762 161.048 89.484 160.886 89.5798H160.88C159.701 90.2624 158.521 90.9449 157.342 91.6274C157.27 92.1902 157.192 92.747 157.114 93.3098C157.114 93.3398 157.108 93.3637 157.102 93.3877C157.102 93.5074 157.06 93.6032 157 93.681Z" fill="#E1DFEA"/>
<path d="M132.932 106.721C133.351 106.991 133.962 107.2 134.267 106.811C134.333 106.727 134.375 106.625 134.393 106.524C134.399 106.5 134.399 106.47 134.405 106.446C134.477 105.889 134.555 105.326 134.632 104.769C135.075 101.476 135.519 98.1834 135.962 94.8964C135.267 95.2976 134.579 95.6987 133.884 96.0939C133.441 99.3868 132.998 102.68 132.555 105.973C132.543 106.063 132.531 106.146 132.519 106.236C132.519 106.242 132.519 106.254 132.519 106.26C132.507 106.434 132.782 106.631 132.932 106.721Z" fill="#E1DFEA"/>
<path d="M143.906 99.6802C143.906 99.77 143.972 99.8598 144.074 99.9496C144.152 100.021 144.242 100.087 144.332 100.141C144.757 100.405 145.361 100.626 145.667 100.231C145.739 100.141 145.78 100.033 145.798 99.9197C145.876 99.3449 145.954 98.7642 146.032 98.1894C146.104 97.6386 146.182 97.0818 146.253 96.5309C146.625 93.7888 146.99 91.0527 147.361 88.3105C146.667 88.7117 145.972 89.1128 145.278 89.508C144.894 92.3639 144.511 95.2197 144.128 98.0697C144.068 98.5067 144.008 98.9438 143.948 99.3809C143.93 99.4886 143.918 99.5844 143.906 99.6802Z" fill="#E1DFEA"/>
<path d="M139.021 114.139C140.242 114.852 141.434 114.942 142.368 114.54C143.326 114.121 144.008 113.187 144.182 111.852C144.182 111.852 144.182 111.852 144.182 111.846C144.511 109.427 144.835 107.009 145.158 104.59C145.248 103.913 145.344 103.231 145.433 102.554C144.739 102.949 144.05 103.35 143.356 103.752C143.003 106.362 142.649 108.978 142.296 111.595V111.601C142.248 111.96 142.122 112.373 141.865 112.625C141.38 113.098 140.542 112.828 139.961 112.493C139.859 112.433 134.974 108.679 134.872 108.619C134.285 109.044 138.416 113.098 137.74 113.403C138.165 113.648 138.59 113.894 139.009 114.139C139.015 114.133 139.015 114.139 139.021 114.139Z" fill="#E1DFEA"/>
<path d="M145.433 102.554C145.344 103.231 145.248 103.913 145.158 104.59C146.888 105.59 148.613 106.589 150.343 107.583C152.822 109.032 155.181 107.937 155.516 105.296C155.935 102.201 156.354 99.0994 156.767 96.0041C156.073 96.4052 155.384 96.8063 154.69 97.2015C154.336 99.8179 153.983 102.428 153.63 105.045C153.582 105.404 153.456 105.817 153.199 106.069C152.714 106.536 151.876 106.278 151.295 105.937C149.343 104.811 147.391 103.68 145.433 102.554Z" fill="#E1DFEA"/>
<path d="M76.79 212.988C76.79 212.671 76.79 212.359 76.79 212.042C96.1886 200.846 95.1887 201.481 95.4282 201.163C95.5539 200.996 95.6318 200.804 95.6437 200.594C95.6437 200.912 95.6437 201.235 95.6437 201.552C95.6437 201.84 95.4462 202.139 95.2186 202.337C95.0809 202.444 96.6256 201.546 76.79 212.988Z" fill="#D2448D"/>
<path d="M88.3275 200.109L85.8548 201.546L78.4187 197.248L80.9034 195.817L88.3275 200.109Z" fill="#F0E0DC"/>
<path d="M78.6342 194.505L76.1614 195.936L68.7253 191.644L71.1981 190.225L78.6342 194.505Z" fill="#F0E0DC"/>
<path d="M77.5327 206.366C76.9878 206.396 76.5328 206.306 76.1736 206.091C75.8143 205.887 75.6587 205.63 75.7126 205.294C75.7545 204.965 76.0957 204.612 76.7124 204.253C77.353 203.881 77.9458 203.684 78.4966 203.654C79.0414 203.624 79.4965 203.714 79.8557 203.923C80.2389 204.139 80.3886 204.42 80.3407 204.738C80.2808 205.067 79.9275 205.426 79.257 205.809C78.6463 206.157 78.0775 206.342 77.5327 206.366Z" fill="#FF73B5"/>
<path d="M76.7899 212.042C76.7899 212.359 76.7899 212.683 76.7899 213L70.1741 216.814C70.1741 216.496 70.1741 216.173 70.1741 215.868L76.7899 212.042Z" fill="#821E4D"/>
<path d="M31.3474 185.812C46.489 194.559 61.6486 203.295 76.7903 212.042L70.1744 215.862C55.0328 207.115 39.8971 198.367 24.7495 189.62L31.3474 185.812Z" fill="#AD3970"/>
<path d="M76.1735 206.085C76.5327 206.3 76.9878 206.396 77.5326 206.36C78.0774 206.342 78.6462 206.157 79.2509 205.803C79.9215 205.42 80.2687 205.061 80.3346 204.732C80.3885 204.414 80.2328 204.133 79.8496 203.917C79.4904 203.714 79.0354 203.618 78.4905 203.648C77.9457 203.678 77.347 203.875 76.7064 204.247C76.0897 204.606 75.7484 204.959 75.7065 205.288C75.6586 205.624 75.8143 205.881 76.1735 206.085ZM74.8144 204.684C75.2874 203.923 76.5387 203.361 77.4188 203.151C78.6462 202.858 79.7539 203.073 80.4603 203.492C80.9154 203.75 81.2626 204.139 81.1309 204.648L83.5318 203.259L84.358 203.732L77.6523 207.605L76.892 207.162C78.3588 206.33 76.9518 207.336 75.4311 206.444C74.7066 206.025 74.3594 205.384 74.8144 204.684Z" fill="#D2448D"/>
<path d="M70.6111 203.534L75.4607 200.732L76.2031 201.163L75.4727 201.588C75.9996 201.499 76.4007 201.463 76.6761 201.499C77.2449 201.564 77.7179 201.822 77.9454 202.355L76.8917 202.63C76.6582 202.031 75.7481 201.858 75.0656 202.073C74.2573 202.313 74.1376 202.456 71.4313 204.007L70.6111 203.534Z" fill="#D2448D"/>
<path d="M68.941 188.913L66.4564 190.344L59.0322 186.052L61.5049 184.615L68.941 188.913Z" fill="#F0E0DC"/>
<path d="M68.5818 201.505C68.1088 201.427 67.0671 201.061 67.0132 200.588C66.9713 200.241 67.4263 200.014 67.8155 199.972C68.7555 199.87 69.456 200.553 70.9468 200.918C70.1026 201.427 69.5458 201.66 68.5818 201.505Z" fill="#FF73B5"/>
<path d="M68.4023 199.996C67.3784 199.78 66.3786 200.469 67.5162 201.127C68.1747 201.51 69.013 201.624 69.6895 201.487C70.1026 201.391 70.5636 201.139 70.9468 200.912C69.905 200.66 68.9471 200.103 68.4023 199.996ZM65.8397 200.463C65.7978 199.834 66.5881 199.457 67.2228 199.349C68.9052 199.068 69.9589 200.103 71.5934 200.547C71.8449 200.409 72.3119 200.175 72.2939 199.876C72.2221 199.349 71.1085 198.846 70.5756 198.792C70.2583 198.774 69.8751 198.834 69.444 198.978L68.7555 198.451C69.5758 198.122 70.3361 198.092 71.1683 198.307C71.8269 198.493 72.9465 199.038 73.2998 199.511C73.5872 199.87 73.6051 200.157 73.21 200.529C72.7969 200.87 70.6954 201.965 69.9949 202.498C69.8212 202.63 69.6955 202.786 69.6117 202.953L68.7555 202.456C68.8393 202.301 68.983 202.157 69.1866 202.013C68.2885 201.965 67.4802 201.84 66.6959 201.385C66.1511 201.079 65.8697 200.768 65.8397 200.463Z" fill="#D2448D"/>
<path d="M61.8939 194.577C63.3548 193.739 64.9713 193.482 66.4501 193.721C68.6115 194.098 70.707 195.505 69.1683 197.08L68.0966 196.697C68.6953 196.026 68.6714 195.416 67.7075 194.853C66.6956 194.266 65.4383 194.158 64.3187 194.47C63.3607 194.751 62.1394 195.356 61.5766 196.098C61.0377 196.829 61.4628 197.499 62.2172 197.942C63.1272 198.463 64.4384 198.637 65.8873 198.086L66.5579 198.726C64.8695 199.313 63.0793 199.295 61.5406 198.415C60.8222 198.002 60.3791 197.583 60.2235 197.146C59.8223 196.116 60.9359 195.134 61.8939 194.577Z" fill="#D2448D"/>
<path d="M59.2474 183.309L56.7628 184.74L49.3267 180.454L51.8054 179.023L59.2474 183.309Z" fill="#F0E0DC"/>
<path d="M94.9612 199.636C95.2845 199.828 95.6976 200.241 95.6437 200.594C95.6257 200.918 95.4461 201.271 94.9612 201.552L76.79 212.042C61.6484 203.295 46.4888 194.559 31.3472 185.812C51.1468 174.376 49.674 175.155 50.3266 175.017C51.1409 174.838 52.0689 174.903 52.8292 175.316L94.9612 199.636ZM78.4185 197.248L85.8546 201.546L88.3274 200.115L80.8972 195.817L78.4185 197.248ZM75.862 203.768C74.2155 204.726 74.3293 205.803 75.4189 206.438C76.9337 207.324 78.3407 206.336 76.8798 207.156L77.6402 207.599L84.3459 203.726L83.5196 203.253L81.1188 204.642C81.454 203.414 78.6101 202.193 75.862 203.768ZM75.4609 200.732L70.6112 203.534L71.4375 204.007C74.1796 202.433 74.2814 202.307 75.0717 202.073C75.7662 201.852 76.6643 202.043 76.8978 202.63L77.9515 202.355C77.73 201.828 77.257 201.564 76.6822 201.499C76.4068 201.469 75.9997 201.499 75.4788 201.588L76.2093 201.163L75.4609 200.732ZM68.7253 191.644L76.1614 195.942L78.6341 194.511L71.198 190.225L68.7253 191.644ZM66.4082 199.631C65.6299 200.092 65.576 200.75 66.6836 201.391C67.4679 201.846 68.2822 201.972 69.1743 202.019C68.9707 202.163 68.8211 202.307 68.7432 202.462L69.5994 202.959C69.8029 202.552 70.1502 202.349 71.3716 201.63C71.7009 201.445 72.8983 200.78 73.1977 200.541C73.5988 200.163 73.5809 199.882 73.2875 199.523C72.9283 199.038 71.8027 198.505 71.1561 198.319C70.3298 198.104 69.5695 198.134 68.7432 198.463L69.4317 198.99C69.8628 198.846 70.246 198.786 70.5633 198.804C71.0962 198.858 72.2098 199.361 72.2817 199.888C72.2996 200.187 71.8266 200.427 71.5812 200.559C70.6651 200.313 69.6772 199.762 68.9767 199.517C67.8571 199.169 66.989 199.295 66.4082 199.631ZM66.5519 198.732L65.8813 198.092C64.4384 198.637 63.1272 198.469 62.2112 197.948C61.4628 197.505 61.0317 196.84 61.5706 196.104C62.1274 195.368 63.3428 194.763 64.3127 194.476C65.4323 194.164 66.6896 194.272 67.7014 194.859C68.6654 195.416 68.6953 196.026 68.0906 196.703L69.1623 197.086C70.701 195.511 68.5995 194.104 66.4441 193.727C64.9653 193.488 63.3488 193.745 61.8879 194.583C60.9299 195.14 59.8163 196.122 60.2115 197.158C60.3671 197.589 60.8102 198.014 61.5286 198.427C63.0674 199.301 64.8635 199.319 66.5519 198.732ZM53.7752 185.986C53.6315 185.501 53.1585 185.267 52.7334 185.028C51.8653 184.543 51.542 184.315 50.2308 183.585C49.7698 183.327 49.3028 183.07 48.8418 182.794C48.4706 182.567 48.1113 182.333 47.7102 182.184C47.1713 181.98 46.3631 181.938 45.8063 182.052C44.9321 182.244 44.0819 182.795 43.2318 183.327C42.1241 184.022 42.1241 183.968 41.5553 184.297C40.7111 184.818 40.6992 185.477 41.256 185.998C41.5074 186.213 45.1177 188.231 45.8302 188.668C46.6385 189.141 46.9558 189.386 47.9138 189.452C49.7219 189.566 50.7217 188.446 52.6915 187.393C53.0807 187.201 53.6016 186.944 53.7632 186.465C53.8052 186.315 53.8171 186.141 53.7752 185.986ZM56.7628 184.74L59.2475 183.309L51.8114 179.023L49.3267 180.454L56.7628 184.74ZM68.9408 188.913L61.5047 184.615L59.032 186.046L66.4621 190.344L68.9408 188.913Z" fill="#FF73B5"/>
<path d="M44.429 187.872C42.0341 186.489 42.3334 186.638 41.9263 186.417C41.5012 186.195 41.0162 185.938 40.8965 185.459C40.8067 185.129 40.9205 184.83 41.1659 184.585C41.4114 184.339 41.7048 184.213 41.9802 184.058C43.9141 183.046 44.9439 181.878 46.758 181.998C47.674 182.058 48.0752 182.327 48.8415 182.794C49.3145 183.076 53.0984 185.195 53.4157 185.465C53.7211 185.734 53.8947 186.081 53.757 186.465C53.6013 186.932 53.0864 187.189 52.6853 187.393C50.7215 188.446 49.7156 189.566 47.9075 189.452C46.7699 189.374 46.7101 189.141 44.429 187.872Z" fill="#F3E187"/>
<path d="M23.9172 192.015C22.9533 191.446 23.0491 190.572 23.9172 190.111L24.7435 189.626C24.8453 189.626 24.2585 189.344 70.1744 215.868L69.3481 216.341C68.7913 216.664 67.8453 216.856 66.8335 216.64C66.1629 216.484 69.0068 218.047 23.9172 192.015Z" fill="#FF73B5"/>
<path d="M23.2288 192.015C23.2288 191.697 23.2288 191.374 23.2288 191.057C23.2407 191.254 23.3126 191.458 23.4443 191.626C23.6718 191.931 20.9237 190.284 66.0432 216.341C66.6 216.664 67.546 216.856 68.5579 216.64C69.1446 216.508 69.3661 216.335 70.1744 215.868C70.1744 216.179 70.1744 216.496 70.1744 216.814L69.3482 217.287C68.6117 217.718 67.6478 217.772 66.8335 217.598C66.1929 217.454 68.941 218.963 23.9173 192.967C23.4203 192.685 23.2288 192.308 23.2288 192.015Z" fill="#D2448D"/>
<defs>
<linearGradient id="paint0_linear_5768_19487" x1="10.4935" y1="142.343" x2="224.299" y2="142.343" gradientUnits="userSpaceOnUse">
<stop stop-color="#FFC485"/>
<stop offset="1" stop-color="#D03E3E"/>
</linearGradient>
</defs>
</svg>
