<svg width="253" height="166" viewBox="0 0 253 166" fill="none" xmlns="http://www.w3.org/2000/svg">
<g clip-path="url(#clip0_3978_6506)">
<path d="M248.613 39.1386L244.656 58.3243L242.111 55.8379L237.777 58.9312L234.466 54.8158L227.039 60.2225L220.695 49.5954L213.615 53.7465L210.809 49.8703L201.82 54.9417L199.115 49.1446L205.416 18.5879L239.196 25.5715L248.613 39.1386Z" fill="#EBEBEB"/>
<path d="M239.196 25.5719L248.614 39.1369L236.898 36.7151L239.196 25.5719Z" fill="#DBDBDB"/>
<path d="M243.814 62.1587L238.012 90.3076L192.515 80.9043L198.274 52.9794L200.979 58.776L209.968 53.7051L212.774 57.5812L219.854 53.4298L226.197 64.0572L233.625 58.6506L236.935 62.7656L241.27 59.6727L243.814 62.1587Z" fill="#EBEBEB"/>
<path d="M178.694 58.86L132.326 61.7335L128.643 2.13327L163.071 0L175.712 10.6167L178.694 58.86Z" fill="#EBEBEB"/>
<path d="M163.071 0L175.713 10.6167L163.773 11.3564L163.071 0Z" fill="#DBDBDB"/>
<path d="M150.217 40.1L150.038 38.7557C149.57 35.9693 150.332 32.8532 152.75 29.5926C154.93 26.7096 156.114 24.6117 155.983 22.2752C155.835 19.6269 154.077 17.9546 150.807 18.0859C148.938 18.1833 147.142 18.8471 145.659 19.9895L144.231 16.7878C145.873 15.4456 148.782 14.4491 151.531 14.2949C157.494 13.9605 160.397 17.4961 160.618 21.4422C160.815 24.9733 158.987 27.6279 156.663 30.7273C154.533 33.5554 153.831 35.8866 154.135 38.526L154.262 39.8732L150.217 40.1ZM149.483 47.4335C149.376 45.5122 150.596 44.0894 152.411 43.9876C154.226 43.8858 155.546 45.1662 155.654 47.0875C155.755 48.9048 154.641 50.3736 152.723 50.4812C150.908 50.583 149.585 49.2508 149.483 47.4335Z" fill="#DBDBDB"/>
<path d="M34.258 29.9645L29.592 27.8455L28.945 29.2763C28.8508 29.4816 28.7015 29.6566 28.5137 29.7819C28.326 29.9072 28.1071 29.9778 27.8817 29.9858C27.6263 29.9971 27.3717 30.0221 27.119 30.0606C26.8967 30.0964 26.6689 30.0696 26.4609 29.9834C26.2529 29.8972 26.0728 29.7549 25.9407 29.5724L25.0273 28.2958L20.8611 31.2848L21.7744 32.5612C21.9046 32.7451 21.9813 32.9616 21.9959 33.1865C22.0105 33.4115 21.9626 33.6361 21.8574 33.8354C21.7395 34.0625 21.634 34.2959 21.5413 34.5344C21.4612 34.7456 21.3241 34.9304 21.1452 35.0681C20.9664 35.2058 20.7528 35.2911 20.5284 35.3145L18.9673 35.4678L19.4704 40.5732L21.0369 40.417C21.2616 40.397 21.4875 40.44 21.6894 40.5409C21.8912 40.6419 22.0611 40.797 22.1802 40.989C22.2478 41.0946 22.3184 41.1988 22.392 41.3016C22.4655 41.4043 22.5413 41.5047 22.6194 41.6029C22.762 41.7766 22.8537 41.9865 22.8843 42.2093C22.9149 42.4321 22.8833 42.659 22.793 42.8648L22.1413 44.3059L26.8073 46.4248L27.457 44.9913C27.5515 44.786 27.701 44.6111 27.889 44.486C28.0769 44.3608 28.2959 44.2905 28.5215 44.2827C28.7759 44.2718 29.0295 44.2472 29.2812 44.2091C29.5033 44.1737 29.7309 44.2006 29.9386 44.2868C30.1464 44.373 30.3263 44.5152 30.4582 44.6976L31.3719 45.9745L35.5381 42.9857L34.6244 41.7087C34.4944 41.5249 34.4178 41.3087 34.4031 41.084C34.3884 40.8592 34.4361 40.6348 34.5411 40.4356C34.6581 40.2092 34.7629 39.9767 34.855 39.739C34.9349 39.5276 35.0719 39.3427 35.2506 39.2047C35.4294 39.0667 35.6429 38.9812 35.8674 38.9577L37.4319 38.8026L36.9288 33.6973L35.3635 33.852C35.1394 33.8716 34.9143 33.8287 34.7132 33.7279C34.5121 33.6272 34.3428 33.4725 34.2241 33.2812C34.1561 33.1752 34.0849 33.0703 34.0106 32.9664C33.9371 32.8636 33.8613 32.7631 33.7831 32.6649C33.6398 32.4903 33.5477 32.2793 33.517 32.0554C33.4863 31.8315 33.5183 31.6035 33.6092 31.3967L34.258 29.9645ZM31.6112 34.6877C32.0943 35.3636 32.3664 36.1677 32.3931 36.9984C32.4198 37.8291 32.1998 38.6491 31.7611 39.3547C31.3223 40.0602 30.6845 40.6197 29.9283 40.9623C29.172 41.3048 28.3313 41.4152 27.5124 41.2793C26.6935 41.1435 25.9332 40.7675 25.3277 40.199C24.7222 39.6304 24.2987 38.8949 24.1107 38.0854C23.9227 37.2758 23.9786 36.4286 24.2714 35.6509C24.5643 34.8732 25.0809 34.1999 25.7558 33.7162C26.2039 33.3946 26.7108 33.1646 27.2477 33.0393C27.7846 32.9141 28.3408 32.8961 28.8847 32.9863C29.4285 33.0766 29.9493 33.2733 30.4171 33.5652C30.885 33.8571 31.2907 34.2386 31.6112 34.6877Z" fill="#EBEBEB"/>
<path d="M245.072 97.6921L241.963 99.4883L242.513 100.441C242.591 100.578 242.63 100.735 242.625 100.893C242.619 101.051 242.57 101.205 242.483 101.337C242.385 101.487 242.295 101.642 242.214 101.802C242.144 101.944 242.036 102.063 241.902 102.146C241.768 102.229 241.613 102.274 241.456 102.275H240.357V105.87H241.456C241.613 105.871 241.768 105.916 241.902 105.999C242.036 106.082 242.144 106.201 242.214 106.343C242.295 106.503 242.385 106.658 242.483 106.808C242.57 106.94 242.619 107.094 242.625 107.252C242.63 107.41 242.591 107.567 242.513 107.704L241.963 108.657L245.072 110.453L245.622 109.496C245.703 109.36 245.819 109.248 245.959 109.174C246.099 109.101 246.257 109.067 246.414 109.077C246.502 109.082 246.59 109.084 246.678 109.084C246.767 109.084 246.855 109.082 246.943 109.077C247.1 109.067 247.256 109.1 247.396 109.174C247.535 109.247 247.651 109.358 247.731 109.493L248.285 110.453L251.394 108.657L250.844 107.701C250.765 107.564 250.727 107.407 250.732 107.249C250.738 107.091 250.787 106.937 250.875 106.805C250.972 106.656 251.062 106.501 251.143 106.342C251.213 106.201 251.322 106.082 251.455 105.999C251.589 105.915 251.743 105.871 251.901 105.87H253V102.275H251.901C251.743 102.274 251.589 102.23 251.455 102.146C251.322 102.063 251.213 101.944 251.143 101.803C251.062 101.644 250.972 101.489 250.875 101.34C250.787 101.208 250.738 101.054 250.732 100.896C250.727 100.738 250.765 100.581 250.844 100.444L251.394 99.4883L248.285 97.6921L247.734 98.6478C247.654 98.7836 247.538 98.8945 247.398 98.9681C247.259 99.0416 247.102 99.0751 246.945 99.0647C246.857 99.0603 246.768 99.058 246.678 99.058C246.59 99.058 246.502 99.0603 246.414 99.0647C246.256 99.0752 246.099 99.0416 245.959 98.9678C245.819 98.8939 245.703 98.7827 245.622 98.6464L245.072 97.6921ZM246.678 101.128C247.26 101.129 247.828 101.302 248.312 101.625C248.795 101.949 249.172 102.409 249.394 102.947C249.616 103.485 249.674 104.077 249.561 104.648C249.447 105.219 249.167 105.744 248.755 106.155C248.344 106.567 247.82 106.847 247.249 106.96C246.679 107.074 246.088 107.015 245.551 106.792C245.014 106.569 244.555 106.191 244.232 105.707C243.909 105.223 243.737 104.653 243.737 104.071C243.737 103.684 243.813 103.301 243.961 102.944C244.109 102.587 244.325 102.262 244.598 101.989C244.872 101.716 245.196 101.499 245.553 101.351C245.91 101.204 246.292 101.128 246.678 101.128Z" fill="#EBEBEB"/>
<path d="M43.6935 14.6673L40.8422 16.8502L41.5101 17.7238C41.6055 17.85 41.664 18.0003 41.6791 18.1579C41.6941 18.3154 41.6652 18.4741 41.5955 18.6161C41.5178 18.7777 41.4489 18.9434 41.3891 19.1125C41.3375 19.2617 41.2456 19.3937 41.1236 19.4937C41.0016 19.5937 40.8542 19.6579 40.6979 19.6791L39.6084 19.8211L40.0718 23.3862L41.1614 23.2442C41.3179 23.2246 41.4767 23.2489 41.6202 23.3144C41.7637 23.3798 41.8863 23.4838 41.9744 23.6148C42.0754 23.7629 42.1843 23.9054 42.3007 24.0418C42.4044 24.1612 42.4729 24.3071 42.4986 24.4633C42.5243 24.6194 42.5062 24.7797 42.4462 24.9261L42.024 25.9419L45.3383 27.3213L45.7606 26.3012C45.8228 26.1556 45.924 26.0302 46.0532 25.9389C46.1823 25.8476 46.3341 25.7939 46.4919 25.7839C46.5794 25.777 46.667 25.7678 46.7548 25.7564C46.8424 25.7449 46.9294 25.7313 47.0158 25.7156C47.1701 25.685 47.3299 25.6978 47.4774 25.7526C47.6249 25.8074 47.7543 25.9021 47.8513 26.0261L48.5241 26.9061L51.3754 24.7232L50.7067 23.8468C50.6114 23.7205 50.5531 23.5702 50.5382 23.4126C50.5233 23.2549 50.5524 23.0963 50.6223 22.9543C50.6998 22.7934 50.7686 22.6284 50.8284 22.4602C50.8801 22.3111 50.972 22.1794 51.094 22.0795C51.216 21.9796 51.3632 21.9155 51.5193 21.8943L52.6091 21.7522L52.1458 18.1871L51.0559 18.3292C50.8996 18.3487 50.7409 18.3245 50.5974 18.2592C50.454 18.1939 50.3314 18.0901 50.2433 17.9592C50.1425 17.8119 50.0339 17.6701 49.9178 17.5345C49.8139 17.4152 49.7452 17.2692 49.7193 17.1131C49.6934 16.9569 49.7114 16.7965 49.7712 16.65L50.1937 15.6314L46.8793 14.2521L46.4564 15.2709C46.3944 15.4159 46.2933 15.5409 46.1646 15.6319C46.0359 15.7229 45.8845 15.7764 45.7272 15.7864C45.6394 15.7933 45.5511 15.8025 45.4624 15.8142C45.3747 15.8256 45.2877 15.8392 45.2013 15.8549C45.0462 15.8857 44.8856 15.8728 44.7374 15.8176C44.5892 15.7624 44.4591 15.6672 44.3617 15.5425L43.6935 14.6673ZM45.7293 17.8673C46.306 17.7924 46.8919 17.8904 47.4129 18.149C47.934 18.4075 48.3668 18.815 48.6566 19.3198C48.9463 19.8246 49.0801 20.4042 49.0409 20.9851C49.0018 21.5661 48.7915 22.1224 48.4366 22.5837C48.0817 23.0449 47.5981 23.3904 47.0471 23.5765C46.4961 23.7626 45.9023 23.7809 45.3409 23.6291C44.7795 23.4773 44.2757 23.1622 43.8931 22.7237C43.5106 22.2852 43.2665 21.7429 43.1917 21.1654C43.1417 20.782 43.1678 20.3924 43.2683 20.0191C43.3688 19.6457 43.5419 19.2959 43.7776 18.9895C44.0133 18.6832 44.307 18.4264 44.6419 18.2339C44.9768 18.0413 45.3463 17.9167 45.7293 17.8673Z" fill="#EBEBEB"/>
<path d="M22.4082 108.071C22.5658 104.064 22.5108 100.052 22.2435 96.0506C21.653 87.7994 20.3954 79.6096 18.4832 71.5619C17.4345 67.0302 16.1432 62.5749 14.7977 58.1247C14.757 57.9902 14.5428 58.0282 14.58 58.1682C18.7409 73.8565 22.1547 90.0466 21.9196 106.355C21.8538 110.919 21.3262 115.402 20.8935 119.937C20.8819 120.058 21.0813 120.106 21.1088 119.982C21.9677 116.101 22.2471 112.034 22.4082 108.071Z" fill="#EBEBEB"/>
<path d="M14.5795 58.1682C14.5795 58.1682 8.27614 74.1887 9.68742 77.9542C11.0987 81.7197 14.0081 82.523 14.0081 82.523C14.0081 82.523 10.1514 88.0364 12.8465 93.2076C15.5416 98.3788 21.5295 98.1344 21.9274 103.998C21.9274 103.998 22.261 79.4816 14.5795 58.1682Z" fill="#EBEBEB"/>
<path d="M21.2424 93.8745C21.2501 93.8466 21.2479 93.8168 21.2359 93.7904C20.4074 82.8527 18.3566 72.0426 15.1219 61.5627C15.1122 61.5317 15.0614 61.5417 15.0699 61.5738C16.3187 66.26 17.422 70.9717 18.3798 75.7089C17.5332 74.9054 16.4986 74.3277 15.3709 74.0289C15.3667 74.0276 15.3621 74.0279 15.3581 74.0299C15.3542 74.0319 15.3511 74.0353 15.3497 74.0395C15.3482 74.0437 15.3484 74.0483 15.3502 74.0523C15.352 74.0563 15.3554 74.0595 15.3595 74.0611C16.5449 74.4977 17.6098 75.2102 18.4662 76.1397C18.6504 77.0681 18.8288 77.9974 19.0017 78.9274C17.5932 77.351 15.6395 76.5688 13.6848 75.8254C13.6573 75.8149 13.6426 75.8573 13.6696 75.8683C15.7055 76.6982 17.7332 77.7675 19.1126 79.5241C19.5934 82.1829 20.0154 84.8505 20.3785 87.5269C19.3604 86.4589 18.0547 85.7096 16.6197 85.37C16.576 85.3594 16.5514 85.4243 16.5959 85.4371C18.0765 85.8646 19.4011 86.7142 20.408 87.8822C20.4149 87.8892 20.4228 87.8952 20.4314 87.9C20.5575 88.8415 20.6764 89.7841 20.788 90.7277C19.9999 90.0604 19.1105 89.5232 18.1535 89.1364C18.128 89.1259 18.1141 89.1659 18.1392 89.1767C19.1145 89.6 20.0077 90.192 20.7779 90.9255C20.7889 90.9358 20.8002 90.9347 20.8115 90.9388C20.9164 91.8361 21.021 92.7334 21.1117 93.6326C19.6918 91.9148 17.8491 90.5974 15.7655 89.8103C15.7242 89.7943 15.7029 89.8574 15.7427 89.8747C17.8004 90.7823 19.6081 92.1751 21.0114 93.9342C21.0262 93.9545 21.0471 93.9695 21.071 93.977C21.0949 93.9845 21.1206 93.9841 21.1442 93.976C21.2805 95.3546 21.4003 96.7355 21.5037 98.1186C21.505 98.1375 21.5361 98.1394 21.535 98.1201C21.4554 96.7049 21.3578 95.2897 21.2424 93.8745Z" fill="white"/>
<path d="M16.1783 72.437C15.0372 71.726 13.7335 71.319 12.3911 71.2547C12.3598 71.2521 12.3573 71.2984 12.3877 71.303C13.6842 71.5444 14.9433 71.9562 16.1322 72.5276C16.1864 72.5506 16.2252 72.4693 16.1783 72.437Z" fill="white"/>
<path d="M16.9432 89.3983C16.0658 88.8962 15.101 88.5658 14.1003 88.4247C14.0658 88.4192 14.0628 88.4726 14.0965 88.4787C15.0754 88.6744 16.0221 89.0068 16.9086 89.4662C16.9477 89.4852 16.9802 89.4205 16.9432 89.3983Z" fill="white"/>
<path d="M38.9784 78.2157C36.3131 80.0612 33.8656 82.2035 31.6827 84.6016C29.4319 87.1391 27.6941 90.0898 26.5659 93.2902C24.1713 99.9622 22.8837 106.982 22.7543 114.071C22.6736 117.996 23.0507 121.918 23.8779 125.757C23.8842 125.785 23.9012 125.81 23.9252 125.825C23.9493 125.841 23.9785 125.847 24.0068 125.842C24.0351 125.836 24.0602 125.82 24.0768 125.797C24.0935 125.773 24.1003 125.744 24.096 125.716C23.0677 118.942 23.1063 112.049 24.2103 105.288C25.294 98.6605 26.9943 91.4502 31.2016 86.0642C33.4926 83.1313 36.3488 80.824 39.1726 78.4394C39.3209 78.3141 39.1312 78.1081 38.9784 78.2157Z" fill="#EBEBEB"/>
<path d="M23.6821 109.299C25.1995 106.841 26.983 104.558 29.0002 102.492C32.1535 99.335 34.8094 97.0913 35.2193 95.0036C35.6292 92.916 32.0605 91.3784 32.0605 91.3784C32.0605 91.3784 36.4243 92.1627 37.6182 90.3291C38.8121 88.4954 39.3886 77.8744 39.3886 77.8744C39.3886 77.8744 31.45 83.5497 27.7512 91.5052C24.0524 99.4606 23.6821 109.299 23.6821 109.299Z" fill="#EBEBEB"/>
<path d="M36.6418 80.5971C33.3015 83.8821 29.9399 87.3827 27.9728 91.6985C27.3011 93.1895 26.7156 94.7178 26.2193 96.2761C26.2183 96.2785 26.2175 96.2809 26.2169 96.2834C26.1155 96.5972 26.0127 96.9104 25.9171 97.2265C25.9077 97.2422 25.9022 97.2599 25.901 97.2781C24.9672 100.504 24.2143 103.78 23.6458 107.09C23.6419 107.112 23.6738 107.123 23.6783 107.101C24.0204 105.444 24.3976 103.771 24.8192 102.102C24.8355 102.102 24.8516 102.099 24.8666 102.093C25.5294 101.809 26.2322 101.63 26.9498 101.563C26.9972 101.559 26.9935 101.476 26.9454 101.479C26.2448 101.511 25.5517 101.638 24.8848 101.855C25.2693 100.351 25.6874 98.8506 26.1572 97.3721C27.7001 96.9982 29.2786 96.7915 30.8657 96.7557C30.8818 96.7553 30.8845 96.731 30.8678 96.7301C29.3141 96.6583 27.7577 96.7906 26.2383 97.1236C26.32 96.8697 26.4055 96.6176 26.49 96.365C27.5215 96.1183 28.5682 95.9407 29.6232 95.8334C29.6422 95.8316 29.6407 95.799 29.6215 95.7996C28.5889 95.8194 27.561 95.9445 26.5536 96.1728C26.9856 94.8933 27.4523 93.6314 27.9702 92.4024C28.3995 91.3964 28.9004 90.4226 29.469 89.4884C30.305 89.2801 31.154 89.1285 32.0104 89.0348C32.0346 89.0327 32.0318 88.9941 32.0082 88.9925C31.2086 88.9311 30.4044 89.0106 29.6322 89.2275C30.0497 88.5521 30.4885 87.8908 30.9579 87.2501H30.9582C32.7385 86.8553 34.5428 86.4889 36.3639 86.8313C36.3953 86.8372 36.4069 86.7843 36.3758 86.7761C34.6421 86.3196 32.9216 86.5831 31.1964 86.9248C31.3846 86.6741 31.5772 86.4264 31.7717 86.1801C32.8498 85.8477 33.9699 85.6715 35.0979 85.657C35.1027 85.6572 35.1074 85.6556 35.111 85.6524C35.1146 85.6493 35.1168 85.6448 35.1172 85.6401C35.1176 85.6353 35.1162 85.6305 35.1131 85.6268C35.1101 85.6231 35.1057 85.6207 35.101 85.6201C34.0591 85.5241 33.0084 85.6175 31.9997 85.8958C33.4716 84.0647 35.0972 82.3452 36.7043 80.6443C36.779 80.5652 36.7209 80.5193 36.6418 80.5971Z" fill="white"/>
<path d="M36.553 87.837C36.0303 87.7613 35.5009 87.7428 34.9741 87.782C34.9609 87.7849 34.9491 87.7924 34.9409 87.8032C34.9327 87.8139 34.9286 87.8273 34.9293 87.8408C34.93 87.8543 34.9354 87.8672 34.9447 87.8771C34.954 87.8869 34.9665 87.8932 34.9799 87.8947C35.5025 87.9099 36.025 87.871 36.5478 87.8994C36.5559 87.8998 36.5638 87.897 36.5699 87.8917C36.576 87.8863 36.5798 87.8788 36.5805 87.8707C36.5811 87.8626 36.5787 87.8546 36.5735 87.8483C36.5684 87.842 36.5611 87.838 36.553 87.837Z" fill="white"/>
<path d="M30.8393 98.1402C30.0013 98.1593 29.1731 98.3258 28.3926 98.632C28.373 98.639 28.3841 98.6716 28.4041 98.6669C29.2122 98.4742 30.0294 98.396 30.8456 98.2613C30.9123 98.2503 30.9093 98.141 30.8393 98.1402Z" fill="white"/>
<path d="M29.1269 94.5808C28.7784 94.5772 28.4304 94.6087 28.0882 94.6748C28.0809 94.6764 28.0744 94.6805 28.0699 94.6865C28.0654 94.6924 28.0631 94.6997 28.0635 94.7072C28.0639 94.7146 28.0669 94.7217 28.072 94.7272C28.0772 94.7326 28.084 94.736 28.0914 94.7368C28.4392 94.7555 28.7879 94.7391 29.1324 94.6879C29.1449 94.6851 29.1561 94.678 29.1639 94.6678C29.1717 94.6575 29.1756 94.6449 29.1749 94.632C29.1743 94.6192 29.1691 94.607 29.1603 94.5976C29.1515 94.5882 29.1396 94.5823 29.1269 94.5808Z" fill="white"/>
<path d="M0.410776 89.4869C2.99371 90.3636 5.46898 91.5309 7.7891 92.9664C10.1964 94.499 12.2838 96.4848 13.9355 98.8137C17.4137 103.659 20.076 109.042 21.817 114.749C22.7885 117.907 23.3886 121.168 23.6053 124.466C23.6068 124.491 23.5988 124.514 23.583 124.533C23.5671 124.551 23.5448 124.563 23.5206 124.565C23.4964 124.567 23.4723 124.56 23.4533 124.545C23.4344 124.53 23.4222 124.508 23.4193 124.483C22.6879 118.764 21.0656 113.194 18.6114 107.978C16.2046 102.865 13.1642 97.4238 8.51609 94.0386C5.98506 92.1954 3.14092 90.9891 0.305309 89.7129C0.156305 89.6458 0.262268 89.4352 0.410776 89.4869Z" fill="#EBEBEB"/>
<path d="M19.9645 111.102C18.1692 109.464 16.199 108.029 14.0894 106.824C10.809 104.999 8.14174 103.798 7.32805 102.203C6.51444 100.608 9.04754 98.5382 9.04754 98.5382C9.04754 98.5382 5.69715 100.183 4.30763 98.9753C2.91818 97.7676 0 89.3057 0 89.3057C0 89.3057 7.73458 92.0613 12.5642 97.6435C17.3939 103.226 19.9645 111.102 19.9645 111.102Z" fill="#EBEBEB"/>
<path d="M19.5619 109.356C15.6935 102.085 10.5317 95.508 3.45864 91.1665C3.4555 91.1646 3.45227 91.1692 3.45533 91.1712C5.30239 92.3604 7.03546 93.7184 8.63234 95.2277C7.19314 95.1497 5.75883 95.4529 4.47388 96.1067C4.46834 96.1096 4.46415 96.1146 4.4622 96.1206C4.46025 96.1265 4.46068 96.133 4.46342 96.1387C4.46615 96.1443 4.47097 96.1487 4.47686 96.1508C4.48274 96.153 4.48924 96.1528 4.49497 96.1502C5.86175 95.6368 7.31428 95.391 8.77365 95.4262C8.79129 95.4254 8.80822 95.419 8.82207 95.4081C9.07319 95.6464 9.32117 95.8881 9.56601 96.1331C8.81827 96.1682 8.07486 96.267 7.34386 96.4284C7.33992 96.4293 7.33649 96.4317 7.33429 96.4351C7.33209 96.4385 7.33129 96.4427 7.33206 96.4466C7.33283 96.4506 7.33511 96.4541 7.33842 96.4565C7.34173 96.4588 7.34581 96.4598 7.34981 96.4592C8.12338 96.3133 8.91 96.2483 9.69699 96.2653C10.9905 97.5776 12.2086 98.9624 13.3452 100.413C12.8251 100.34 12.2955 100.379 11.7914 100.526C11.7839 100.528 11.7773 100.532 11.7731 100.539C11.7689 100.545 11.7674 100.553 11.7688 100.561C11.7703 100.568 11.7747 100.575 11.781 100.58C11.7873 100.584 11.7951 100.586 11.8028 100.585C12.3535 100.522 12.9091 100.514 13.4614 100.562C13.6732 100.832 13.8871 101.1 14.0945 101.374C12.5155 101.277 10.9311 101.431 9.40018 101.83C9.3955 101.831 9.39142 101.834 9.38881 101.838C9.38619 101.842 9.38523 101.847 9.38615 101.852C9.38706 101.857 9.38977 101.861 9.3937 101.864C9.39763 101.866 9.40247 101.867 9.40721 101.867C10.9943 101.556 12.6148 101.451 14.2287 101.553C14.426 101.815 14.6129 102.085 14.8062 102.35C13.8645 102.327 12.9241 102.434 12.0119 102.67C11.9767 102.679 11.9868 102.734 12.0227 102.726C12.9722 102.519 13.9453 102.443 14.9153 102.5C15.7475 103.648 16.5446 104.822 17.3106 106.01C16.9018 105.936 16.4813 105.962 16.0841 106.084C16.0798 106.085 16.0761 106.087 16.0737 106.091C16.0712 106.095 16.0704 106.099 16.0712 106.104C16.0721 106.108 16.0746 106.112 16.0782 106.114C16.0818 106.117 16.0863 106.118 16.0907 106.117C16.534 106.083 16.9799 106.104 17.418 106.18C18.1069 107.254 18.7712 108.337 19.4109 109.429C19.4647 109.521 19.6132 109.453 19.5619 109.356Z" fill="white"/>
<path d="M13.5441 103.325C12.7844 103.273 12.0217 103.367 11.2969 103.6C11.2926 103.601 11.2889 103.604 11.2865 103.608C11.284 103.611 11.2832 103.616 11.284 103.62C11.2848 103.625 11.2873 103.629 11.2909 103.631C11.2946 103.634 11.299 103.635 11.3034 103.634C12.0425 103.509 12.7889 103.433 13.538 103.405C13.5875 103.402 13.5969 103.33 13.5441 103.325Z" fill="white"/>
<path d="M6.79735 94.4646C6.45076 94.4379 6.10215 94.4582 5.76098 94.5249C5.72079 94.5314 5.73332 94.5906 5.7728 94.5864C6.11339 94.55 6.44956 94.5628 6.79048 94.5526C6.80189 94.5531 6.81302 94.5491 6.82155 94.5415C6.83008 94.5339 6.83534 94.5233 6.83623 94.5119C6.83712 94.5005 6.83356 94.4893 6.82631 94.4804C6.81906 94.4716 6.80868 94.4659 6.79735 94.4646Z" fill="white"/>
<path d="M29.9411 135.144H12.4819L14.9713 116.884L15.6075 112.202H26.8155L27.4513 116.884L29.9411 135.144Z" fill="#DBDBDB"/>
<path d="M27.4513 116.884H14.9712L15.6075 112.202H26.8154L27.4513 116.884Z" fill="#C7C7C7"/>
<path d="M28.4177 110.578H14.0044V114.543H28.4177V110.578Z" fill="#DBDBDB"/>
<path d="M1.38232 135.144L32.8074 135.043L64.2326 135.007L127.083 134.938L189.933 135.006L221.358 135.043L252.783 135.144L221.358 135.245L189.933 135.282L127.083 135.35L64.2326 135.281L32.8074 135.245L1.38232 135.144Z" fill="#263238"/>
<path d="M127.91 166C193.384 166 246.461 160.176 246.461 152.993C246.461 145.809 193.384 139.985 127.91 139.985C62.4363 139.985 9.35938 145.809 9.35938 152.993C9.35938 160.176 62.4363 166 127.91 166Z" fill="#EBEBEB"/>
<path d="M100.313 150.837C99.3495 151.164 71.7262 151.261 70.6703 150.598C70.2686 150.349 70.0198 146.321 69.8572 141.446C69.8219 140.393 69.792 139.306 69.7678 138.202L67.5278 123.449L85.9941 123.33L87.7373 138.086L87.6665 141.332C87.6665 141.332 98.2592 146.031 99.3393 146.883C100.414 147.734 101.277 150.51 100.313 150.837Z" fill="#EB9481"/>
<path d="M100.314 150.837C99.3497 151.164 71.7264 151.261 70.6705 150.598C70.1826 150.292 69.9164 144.41 69.7681 138.202L87.7375 138.086L87.6668 141.332C87.6668 141.332 98.2595 146.031 99.3395 146.883C100.414 147.734 101.277 150.51 100.314 150.837Z" fill="white"/>
<path d="M100.314 150.837C99.3497 151.164 71.7264 151.261 70.6705 150.598C70.2688 150.349 70.02 146.321 69.8574 141.446L87.6667 141.332C87.6667 141.332 98.2595 146.031 99.3395 146.883C100.414 147.734 101.277 150.51 100.314 150.837Z" fill="#A6A6A6"/>
<path d="M99.9135 149.732C95.2826 149.635 76.5954 149.679 72.0104 149.935C71.973 149.937 71.9732 149.962 72.0104 149.964C76.5984 150.161 95.2847 149.965 99.914 149.808C100.012 149.805 100.011 149.734 99.9135 149.732Z" fill="#263238"/>
<path d="M97.5589 145.894C97.044 145.882 96.5323 145.978 96.0561 146.174C95.58 146.371 95.1498 146.664 94.7928 147.036C94.1451 147.7 93.7776 148.588 93.7666 149.515C93.7676 149.543 93.8185 149.543 93.8226 149.515C93.9765 148.596 94.4239 147.752 95.0977 147.11C95.7715 146.467 96.6353 146.061 97.5593 145.952C97.5668 145.952 97.5739 145.949 97.5791 145.943C97.5843 145.938 97.5871 145.931 97.5871 145.923C97.587 145.915 97.5841 145.908 97.5788 145.903C97.5736 145.898 97.5664 145.894 97.5589 145.894Z" fill="#263238"/>
<path d="M89.4644 141.787C87.6109 141.767 85.4645 142.43 84.3182 143.952C84.2737 144.011 84.358 144.073 84.413 144.045C86.0304 143.188 87.7349 142.508 89.4971 142.015C89.5238 142.007 89.5466 141.99 89.5615 141.966C89.5765 141.942 89.5825 141.914 89.5786 141.887C89.5746 141.859 89.5609 141.834 89.54 141.816C89.5191 141.797 89.4923 141.787 89.4644 141.787Z" fill="#263238"/>
<path d="M90.8971 142.34C89.0436 142.321 86.8972 142.984 85.7507 144.505C85.7063 144.564 85.7907 144.627 85.8456 144.598C87.4631 143.742 89.1676 143.061 90.9299 142.569C90.9565 142.56 90.9793 142.543 90.9942 142.519C91.0091 142.496 91.0151 142.468 91.0111 142.44C91.0072 142.413 90.9935 142.388 90.9726 142.369C90.9517 142.351 90.9249 142.341 90.8971 142.34Z" fill="#263238"/>
<path d="M92.3298 142.894C90.4762 142.874 88.3298 143.537 87.1834 145.059C87.1389 145.118 87.2234 145.18 87.2783 145.152C88.8958 144.295 90.6003 143.615 92.3625 143.122C92.3891 143.114 92.4119 143.096 92.4268 143.073C92.4417 143.049 92.4477 143.021 92.4438 142.994C92.4398 142.966 92.4262 142.941 92.4053 142.923C92.3843 142.904 92.3576 142.894 92.3298 142.894Z" fill="#263238"/>
<path d="M93.7623 143.447C91.9088 143.428 89.7624 144.091 88.616 145.612C88.5715 145.671 88.6559 145.734 88.7109 145.705C90.3284 144.849 92.0328 144.168 93.7951 143.676C93.8217 143.667 93.8445 143.65 93.8595 143.626C93.8744 143.603 93.8804 143.575 93.8764 143.547C93.8725 143.52 93.8588 143.494 93.8378 143.476C93.8169 143.458 93.7901 143.447 93.7623 143.447Z" fill="#263238"/>
<path d="M73.1741 145.526C71.0947 145.54 71.1119 148.776 73.1947 148.762C75.2742 148.749 75.2569 145.513 73.1741 145.526Z" fill="#263238"/>
<path d="M91.4499 136.828C90.509 136.052 89.3298 136.817 88.7542 137.628C87.7919 139.038 87.2168 140.677 87.0867 142.38C87.0859 142.387 87.0869 142.395 87.0897 142.402C87.0924 142.409 87.0967 142.416 87.1024 142.421C87.108 142.426 87.1148 142.43 87.1222 142.432C87.1295 142.434 87.1372 142.434 87.1447 142.433C87.1522 142.467 87.1678 142.5 87.1903 142.528C87.2128 142.555 87.2414 142.577 87.274 142.592C87.3065 142.606 87.342 142.613 87.3775 142.611C87.4131 142.609 87.4477 142.599 87.4786 142.581C88.7949 141.663 90.3159 140.844 91.3115 139.548C91.8928 138.792 92.3398 137.561 91.4499 136.828ZM89.1898 140.78C88.5534 141.247 87.8979 141.681 87.2789 142.172C87.5774 141.237 87.9227 140.318 88.3136 139.418C88.5092 138.985 88.7339 138.566 88.9862 138.164C89.3868 137.55 91.2005 135.992 91.392 138.011C91.4976 139.123 89.9483 140.223 89.1898 140.78Z" fill="#263238"/>
<path d="M82.4841 143.084C84.0987 143.326 85.7616 142.86 87.3463 142.609C87.3808 142.6 87.4129 142.583 87.4398 142.56C87.4667 142.537 87.4877 142.507 87.5011 142.474C87.5145 142.441 87.5199 142.405 87.5169 142.37C87.514 142.334 87.5026 142.3 87.4839 142.27C87.4903 142.266 87.4957 142.26 87.4996 142.254C87.5035 142.247 87.5058 142.24 87.5064 142.232C87.5069 142.224 87.5056 142.217 87.5026 142.21C87.4996 142.203 87.495 142.196 87.4892 142.192C86.2164 141.055 84.6674 140.273 82.9976 139.925C82.0214 139.74 80.6417 140.007 80.5006 141.219C80.3674 142.366 81.5415 142.942 82.4841 143.084ZM81.3615 142.032C80.1019 140.444 82.4873 140.307 83.2015 140.472C83.6618 140.587 84.1139 140.733 84.5545 140.909C85.4593 141.286 86.3445 141.709 87.2068 142.175C86.4207 142.251 85.6483 142.394 84.8658 142.498C83.9333 142.624 82.0559 142.907 81.3615 142.032Z" fill="#263238"/>
<path d="M40.3921 55.2543C40.3921 55.2543 61.8372 91.7843 62.4113 94.349C63.2936 98.2899 67.9709 137.211 67.9709 137.211L90.2846 136.809C90.2846 136.809 86.4388 102.493 82.7964 91.1875C80.1727 83.0442 61.2471 56.0364 61.2471 56.0364L40.3921 55.2543Z" fill="#37474F"/>
<path d="M88.2557 133.383C85.0512 133.36 73.6958 133.232 69.4302 133.63C69.3977 133.633 69.3986 133.687 69.431 133.692C70.8991 133.903 85.0538 133.574 88.2569 133.471C88.2627 133.471 88.2686 133.47 88.274 133.468C88.2795 133.466 88.2844 133.463 88.2886 133.458C88.2927 133.454 88.296 133.449 88.2982 133.444C88.3005 133.438 88.3016 133.433 88.3015 133.427C88.3014 133.421 88.3001 133.415 88.2978 133.41C88.2954 133.404 88.292 133.399 88.2878 133.395C88.2835 133.391 88.2785 133.388 88.273 133.386C88.2675 133.384 88.2616 133.383 88.2557 133.383Z" fill="#263238"/>
<path d="M44.0527 58.6063C45.4579 60.8133 46.9406 62.9744 48.3774 65.1621C49.815 67.3509 51.2428 69.5458 52.6607 71.7469C55.4858 76.1521 58.2449 80.5971 60.9379 85.082C62.2456 87.1476 63.3645 89.327 64.2811 91.5939C65.1206 93.8687 65.7506 96.2156 66.1634 98.6053C66.6007 101.003 66.8887 103.424 67.1607 105.845C67.4501 108.422 67.7375 110.999 68.0229 113.577C68.6108 118.85 69.1987 124.124 69.7866 129.398C69.8587 130.045 69.9293 130.691 69.994 131.339C70.0034 131.434 69.8339 131.453 69.822 131.358C69.1656 126.117 68.6201 120.862 68.0237 115.614C67.7268 113.002 67.4299 110.39 67.1331 107.778C66.857 105.349 66.5944 102.917 66.2179 100.5C65.8704 98.1195 65.345 95.7681 64.6464 93.4659C63.8738 91.0798 62.8391 88.787 61.5614 86.6296C58.9754 82.164 56.2391 77.7746 53.5017 73.3965C50.7406 68.9808 47.9566 64.5774 45.0691 60.2391C44.7125 59.7034 44.3529 59.1709 43.9832 58.6438C43.9546 58.603 44.0255 58.5637 44.0527 58.6063Z" fill="#263238"/>
<path d="M47.4223 152.992C46.405 152.929 20.1371 142.272 19.4048 141.262C19.374 141.202 19.3601 141.135 19.3646 141.068C19.3696 140.163 21.1886 136.997 22.7091 132.844C22.8044 132.578 23.4822 131.345 24.4232 129.683C27.0099 125.117 31.5866 117.296 31.5866 117.296L48.7562 124.126L40.538 136.445L39.2589 139.426C39.2589 139.426 47.3171 147.765 47.9975 148.958C48.6739 150.151 48.4362 153.049 47.4223 152.992Z" fill="#EB9481"/>
<path d="M47.4223 152.992C46.405 152.929 20.1371 142.272 19.4048 141.262C19.374 141.202 19.3601 141.135 19.3646 141.068C19.3696 140.163 21.1886 136.997 22.7091 132.844C22.8044 132.578 23.4822 131.345 24.4232 129.683L40.538 136.445L39.2589 139.426C39.2589 139.426 47.317 147.765 47.9975 148.958C48.6739 150.151 48.4362 153.049 47.4223 152.992Z" fill="white"/>
<path d="M47.4203 152.99C46.4044 152.931 20.1356 142.272 19.4051 141.261C19.1261 140.879 20.3006 137.287 22.7067 132.844L39.2583 139.428C39.2583 139.428 47.3167 147.763 47.9988 148.958C48.6756 150.151 48.4361 153.049 47.4203 152.99Z" fill="#A6A6A6"/>
<path d="M47.4639 151.815C43.2078 149.985 25.8688 143.007 21.5226 141.522C21.4873 141.509 21.4779 141.533 21.5119 141.548C25.6909 143.455 43.0858 150.292 47.4359 151.886C47.5276 151.919 47.5538 151.854 47.4639 151.815Z" fill="#263238"/>
<path d="M46.719 147.373C46.2461 147.169 45.7359 147.065 45.2209 147.068C44.7059 147.072 44.1971 147.182 43.7269 147.393C42.878 147.764 42.2047 148.449 41.8469 149.305C41.8375 149.331 41.8845 149.351 41.8989 149.326C42.3858 148.532 43.1168 147.918 43.982 147.575C44.8473 147.233 45.8002 147.181 46.6975 147.427C46.7046 147.43 46.7124 147.429 46.7193 147.426C46.7261 147.423 46.7315 147.417 46.7343 147.41C46.737 147.404 46.737 147.396 46.7341 147.389C46.7313 147.382 46.7258 147.376 46.719 147.373Z" fill="#263238"/>
<path d="M40.7543 140.525C39.0434 139.811 36.8055 139.619 35.1727 140.599C35.1094 140.637 35.1642 140.726 35.2258 140.72C37.046 140.534 38.8809 140.544 40.6991 140.749C40.7268 140.751 40.7545 140.744 40.7772 140.728C40.7998 140.711 40.8159 140.688 40.8226 140.661C40.8293 140.634 40.826 140.605 40.8135 140.58C40.801 140.555 40.78 140.536 40.7543 140.525Z" fill="#263238"/>
<path d="M41.8754 141.576C40.1644 140.862 37.9266 140.67 36.2937 141.65C36.2305 141.688 36.2853 141.778 36.347 141.772C38.1671 141.585 40.002 141.595 41.8202 141.8C41.8479 141.803 41.8756 141.795 41.8982 141.779C41.9209 141.763 41.937 141.739 41.9437 141.712C41.9503 141.685 41.9471 141.656 41.9346 141.631C41.9221 141.607 41.9011 141.587 41.8754 141.576Z" fill="#263238"/>
<path d="M42.996 142.627C41.2851 141.913 39.0472 141.721 37.4143 142.701C37.351 142.739 37.406 142.829 37.4676 142.823C39.2878 142.637 41.1227 142.646 42.9409 142.851C42.9686 142.854 42.9963 142.846 43.0189 142.83C43.0415 142.814 43.0576 142.79 43.0643 142.763C43.071 142.736 43.0677 142.708 43.0552 142.683C43.0427 142.658 43.0217 142.638 42.996 142.627Z" fill="#263238"/>
<path d="M44.1166 143.679C42.4057 142.965 40.1678 142.773 38.535 143.753C38.4717 143.791 38.5265 143.88 38.5882 143.874C40.4084 143.688 42.2433 143.697 44.0615 143.903C44.0892 143.905 44.1169 143.898 44.1395 143.881C44.1621 143.865 44.1783 143.841 44.1849 143.814C44.1916 143.787 44.1883 143.759 44.1758 143.734C44.1633 143.709 44.1423 143.689 44.1166 143.679Z" fill="#263238"/>
<path d="M24.253 137.873C22.3205 137.104 21.1241 140.11 23.0598 140.88C24.9924 141.649 26.1888 138.643 24.253 137.873Z" fill="#263238"/>
<path d="M44.453 136.674C43.8715 135.602 42.4916 135.868 41.6543 136.403C40.234 137.349 39.087 138.652 38.3284 140.182C38.3249 140.188 38.3229 140.196 38.3228 140.203C38.3226 140.211 38.3243 140.219 38.3276 140.226C38.3309 140.232 38.3357 140.238 38.3418 140.243C38.3479 140.248 38.3549 140.251 38.3624 140.252C38.3498 140.391 38.454 140.553 38.6162 140.516C40.1805 140.158 41.8972 139.971 43.3055 139.144C44.1277 138.661 45.0031 137.688 44.453 136.674ZM40.8773 139.489C40.1122 139.683 39.3422 139.838 38.5845 140.061C39.2113 139.307 39.8757 138.584 40.5753 137.897C40.9187 137.569 41.284 137.265 41.6687 136.987C42.2702 136.568 44.5349 135.806 43.9561 137.749C43.6372 138.82 41.7893 139.257 40.8773 139.489Z" fill="#263238"/>
<path d="M33.7982 139.106C35.204 139.937 36.9201 140.13 38.4833 140.491C38.6455 140.529 38.7501 140.367 38.7379 140.229C38.7454 140.228 38.7524 140.225 38.7585 140.22C38.7646 140.215 38.7695 140.209 38.7728 140.202C38.7761 140.196 38.7778 140.188 38.7777 140.18C38.7776 140.173 38.7756 140.165 38.7721 140.158C38.0182 138.626 36.8752 137.32 35.4578 136.37C34.6219 135.832 33.243 135.561 32.6582 136.632C32.1051 137.645 32.9775 138.62 33.7982 139.106ZM33.1518 137.708C32.579 135.764 34.8414 136.533 35.4416 136.954C35.8254 137.233 36.1898 137.538 36.5322 137.867C37.2297 138.557 37.8919 139.281 38.5165 140.037C37.7594 139.812 36.99 139.654 36.2254 139.458C35.3141 139.223 33.4675 138.781 33.1518 137.708Z" fill="#263238"/>
<path d="M41.8629 135.755L22.644 127.985C22.644 127.985 46.4732 92.9016 46.6494 90.2905C46.8054 87.9773 36.339 67.8488 35.9265 61.9827C35.4814 55.6522 38.5259 50.7522 41.8711 47.7113L61.6976 56.1503C61.6976 56.1503 59.6051 59.5023 56.309 61.368C56.309 61.368 66.4763 84.6344 65.8995 91.788C65.3195 98.9808 41.8629 135.755 41.8629 135.755Z" fill="#37474F"/>
<path d="M42.7166 132.096C39.9374 130.899 40.7518 131.203 37.9594 130.038C36.5928 129.467 27.6094 125.728 26.2417 125.42C26.2348 125.42 26.2279 125.421 26.222 125.425C26.2161 125.428 26.2115 125.434 26.2089 125.44C26.2063 125.447 26.2058 125.454 26.2076 125.46C26.2093 125.467 26.2132 125.473 26.2186 125.477C27.4143 126.211 36.4612 129.792 37.8385 130.336C40.6529 131.448 39.8569 131.098 42.6834 132.178C42.6942 132.181 42.706 132.181 42.7165 132.176C42.7269 132.172 42.7352 132.163 42.7395 132.153C42.7438 132.142 42.7438 132.13 42.7396 132.12C42.7353 132.109 42.7271 132.1 42.7166 132.096Z" fill="#263238"/>
<path d="M59.5731 60.9424C57.5084 61.4231 55.4883 62.079 53.5348 62.903C53.519 62.9086 53.5062 62.9203 53.4989 62.9353C53.4917 62.9504 53.4907 62.9677 53.4961 62.9836C53.5015 62.9994 53.5129 63.0124 53.5279 63.0199C53.5428 63.0274 53.5601 63.0286 53.576 63.0235C55.6027 62.431 57.664 61.8775 59.6535 61.1775C59.6843 61.1666 59.7095 61.1439 59.7237 61.1145C59.7379 61.085 59.7399 61.0511 59.7293 61.0202C59.7187 60.9892 59.6964 60.9637 59.6672 60.9492C59.6379 60.9346 59.6041 60.9322 59.5731 60.9424Z" fill="#263238"/>
<path d="M57.221 60.1254C57.0278 60.4682 56.8577 60.8235 56.7118 61.1889C56.569 61.4667 56.4807 61.7694 56.4517 62.0805C56.452 62.1401 56.5321 62.1547 56.569 62.1184C56.7776 61.8657 56.9457 61.582 57.0672 61.2776C57.2358 60.95 57.412 60.6255 57.5709 60.2933C57.6764 60.0728 57.3414 59.915 57.221 60.1254Z" fill="#263238"/>
<path d="M57.4614 58.259C57.5832 57.9534 57.7053 57.6485 57.8336 57.3456C57.9663 57.0325 58.1207 56.7232 58.2287 56.4009C58.2458 56.35 58.3261 56.3843 58.3059 56.4355C58.1849 56.7414 58.1057 57.0678 58.0085 57.3824C57.9109 57.6984 57.808 58.0123 57.7037 58.3261C57.5095 58.9102 57.2718 59.49 57.021 60.0536C57.3469 60.0709 57.6725 60.0143 57.9735 59.888C58.2762 59.6956 58.511 59.4131 58.645 59.0802C58.8198 58.7385 58.9806 58.3891 59.1605 58.0502C59.3772 57.683 59.5613 57.2976 59.7106 56.8982C59.7271 56.847 59.8061 56.8813 59.7878 56.9328C59.5184 57.7821 59.1644 58.6021 58.7313 59.3806C58.5489 59.6841 58.4011 59.9998 58.0648 60.1187C57.6967 60.2211 57.3116 60.2468 56.9332 60.1943C56.8869 60.2073 56.8269 60.1774 56.843 60.121C57.0178 59.4904 57.2242 58.8689 57.4614 58.259Z" fill="#263238"/>
<path d="M56.6181 62.1258C57.3226 63.6216 57.9422 65.1117 58.601 66.6021C59.2447 68.0583 59.8474 69.5316 60.4326 71.0123C61.6149 74.0041 62.6744 77.0505 63.6035 80.1306C64.0633 81.6548 64.4852 83.1897 64.8693 84.7354C65.287 86.2802 65.5936 87.8529 65.787 89.4416C65.9574 91.0255 65.8222 92.6274 65.3888 94.1601C64.9339 95.6744 64.3485 97.1462 63.6393 98.559C63.2084 99.4545 63.0602 99.3336 63.2688 98.8816C63.8606 97.5995 65.4099 93.7128 65.2974 90.4454C65.2041 88.8718 64.9586 87.3109 64.5644 85.7847C64.2014 84.221 63.7948 82.6684 63.3447 81.1268C62.4639 78.0892 61.4179 75.1119 60.3418 72.1395C59.7388 70.4742 59.0918 68.8256 58.4801 67.1638C57.8637 65.4894 57.2281 63.9829 56.5443 62.1551C56.5408 62.1454 56.5413 62.1347 56.5455 62.1253C56.5498 62.1159 56.5575 62.1086 56.5671 62.1048C56.5767 62.101 56.5873 62.101 56.5969 62.105C56.6064 62.1089 56.614 62.1164 56.6181 62.1258Z" fill="#263238"/>
<path d="M42.0261 57.1852C42.3704 57.0575 42.848 57.2687 43.199 57.3278C44.0951 57.4802 45.0077 57.5108 45.912 57.4186C46.3639 57.4067 46.8067 57.2895 47.2055 57.0764C47.8593 56.5997 48.4186 56.005 48.8546 55.3228C49.3792 54.6281 49.8115 53.8681 50.1406 53.0619C50.1584 53.0133 50.2281 53.0466 50.2131 53.0944C50.0682 53.5558 49.9608 54.0211 49.7767 54.4723C49.5977 54.8953 49.3856 55.3036 49.1424 55.6932C48.7432 56.4745 48.1547 57.1429 47.4307 57.6373C46.6332 58.093 45.6057 58.0656 44.7164 58.0142C44.2018 57.9846 43.69 57.9164 43.1856 57.81C42.8217 57.7332 42.2096 57.6748 41.9775 57.3545C41.9676 57.3407 41.961 57.3249 41.9582 57.3082C41.9553 57.2915 41.9562 57.2744 41.9609 57.2581C41.9656 57.2418 41.9739 57.2268 41.9852 57.2141C41.9965 57.2015 42.0105 57.1916 42.0261 57.1852Z" fill="#263238"/>
<path d="M28.1302 124.317C31.2894 119.53 34.3908 114.705 37.4341 109.843C40.4867 104.969 43.4877 100.063 46.4371 95.1255C47.1436 93.9456 47.9602 92.7664 48.4152 91.4594C48.9099 90.0384 48.6291 88.6621 48.1809 87.2719C47.3395 84.728 46.3544 82.2342 45.2302 79.8023C44.1219 77.3565 42.9285 74.9508 41.7546 72.5363C40.5903 70.1415 39.3512 67.7387 38.468 65.2218C37.6246 62.8178 37.3035 60.3249 37.9509 57.8313C38.5932 55.3573 39.9829 53.1359 41.434 51.0628C41.8169 50.5159 42.2066 49.9739 42.591 49.428C42.6202 49.3864 42.6832 49.4367 42.6527 49.4779C41.0536 51.6393 39.4941 53.9268 38.5563 56.4647C38.0772 57.7162 37.8091 59.0389 37.7632 60.3785C37.7554 61.7374 37.9663 63.0887 38.3878 64.3804C39.1654 66.8974 40.3928 69.2808 41.5366 71.6454C42.706 74.0628 43.9065 76.4655 45.0341 78.903C46.1869 81.3479 47.2108 83.8518 48.1015 86.4042C48.4898 87.5435 48.9226 88.7355 48.8969 89.9565C48.8687 91.2937 48.2312 92.4976 47.5712 93.6247C44.6968 98.5327 41.7132 103.379 38.6928 108.198C35.6608 113.036 32.5727 117.837 29.4286 122.603C29.0327 123.204 28.6358 123.805 28.2381 124.405C28.1887 124.479 28.0812 124.391 28.1302 124.317Z" fill="#263238"/>
<path d="M62.7986 33.837C64.588 37.7702 73.6276 43.1902 77.8617 43.7725C80.9078 44.1914 90.1572 44.3355 93.3288 43.8505C97.0436 43.2825 94.2055 33.2399 92.009 33.497C85.9733 34.2037 80.8479 34.9903 79.2366 34.9903C77.2694 34.9903 66.6218 31.5681 65.3386 31.0867C62.1991 29.9089 61.7837 31.6063 62.7986 33.837Z" fill="#EB9481"/>
<path d="M62.8545 34.8782C65.1197 38.2351 72.6515 43.723 72.6515 43.723L73.6965 41.4042L77.1553 33.7393C77.1553 33.7393 70.2386 31.5539 65.6874 30.5803C65.1518 30.4584 64.6071 30.3806 64.0588 30.348C61.1529 30.1911 60.901 31.9904 62.8545 34.8782Z" fill="#FFC727"/>
<path d="M62.8545 34.8782C65.1197 38.2351 72.6515 43.723 72.6515 43.723L73.6965 41.4042C70.888 38.1398 66.5526 33.1922 64.0588 30.348C61.1529 30.1911 60.901 31.9904 62.8545 34.8782Z" fill="#263238"/>
<path d="M71.2935 42.1734C71.8673 40.7647 74.4242 35.0806 75.059 33.8878C75.1031 33.805 75.1655 33.8117 75.1308 33.9033C74.0213 36.733 72.7589 39.5003 71.3494 42.1928C71.3335 42.2267 71.2789 42.2093 71.2935 42.1734Z" fill="#263238"/>
<path d="M90.9019 33.6075C94.5755 33.1248 99.1197 32.2998 102.968 33.9355C103.4 34.1064 103.762 34.4178 103.996 34.8198C105.734 35.5223 105.924 36.5548 105.924 36.5548C107.343 37.7053 107.393 38.7882 107.393 38.7882C107.393 38.7882 109.424 39.6353 109.116 40.9495C108.776 42.4244 105.99 40.9462 103.962 41.0715C99.3139 41.3585 92.7877 43.0681 91.4555 43.2843L90.9019 33.6075Z" fill="#EB9481"/>
<path d="M98.8798 37.9448C100.239 37.845 101.603 37.8383 102.963 37.9245C104.444 38.1114 105.91 38.4086 107.347 38.8136C107.356 38.8162 107.366 38.8152 107.374 38.8108C107.383 38.8064 107.389 38.7989 107.392 38.79C107.395 38.781 107.394 38.7713 107.39 38.7628C107.386 38.7543 107.379 38.7478 107.37 38.7445C104.671 37.6838 101.733 37.3856 98.8762 37.8825C98.8108 37.8942 98.811 37.9477 98.8798 37.9448Z" fill="#263238"/>
<path d="M98.299 35.161C99.6347 35.1795 101.982 35.2268 105.91 36.5971C105.923 36.6015 105.934 36.5812 105.921 36.5744C103.567 35.3833 100.928 34.8719 98.3001 35.0975C98.2164 35.1033 98.2103 35.1598 98.299 35.161Z" fill="#263238"/>
<path d="M98.015 33.6593C100.285 33.7771 101.701 34.1392 103.984 34.8263C103.997 34.8302 104.008 34.8087 103.994 34.8029C101.481 33.7493 100.45 33.6522 98.0081 33.5806C97.9242 33.5782 97.9263 33.6547 98.015 33.6593Z" fill="#263238"/>
<path d="M98.3832 41.7722C97.7928 42.0497 97.9342 42.3619 99.0637 42.6238C100.206 42.8914 104.886 42.9627 104.721 44.5996C104.558 46.2426 97.9364 46.0326 96.0889 45.4521C94.2395 44.8758 91.4556 43.2843 91.4556 43.2843C92.752 43.0655 95.8456 42.2342 98.3832 41.7722Z" fill="#EB9481"/>
<path d="M67.7143 40.1072C67.686 40.8141 67.6163 41.5344 67.5173 42.2479C67.527 42.2222 67.5379 42.197 67.5474 42.1713C67.6852 41.7989 67.8191 41.4165 67.9861 41.0565C67.9949 41.0375 68.0284 41.0426 68.0241 41.0658C67.9428 41.4606 67.8227 41.8465 67.6658 42.2177C67.5948 42.3937 67.5225 42.5698 67.4461 42.7439C67.3947 43.062 67.3379 43.3778 67.2738 43.6887C67.1516 44.2808 66.5932 46.799 66.4663 47.2246C66.4395 47.3143 66.3331 47.2936 66.3396 47.1938C66.3702 46.7302 66.8386 44.1075 66.9332 43.5137C67.1172 42.3621 67.3632 41.2214 67.67 40.0964C67.6772 40.0701 67.7153 40.0827 67.7143 40.1072Z" fill="#263238"/>
<path d="M63.4042 58.9274C62.3015 59.4966 60.8791 60.3785 54.4715 59.1152C54.0708 59.0338 53.6683 58.9351 53.2645 58.815C47.2553 57.0075 40.0479 49.9318 39.6416 49.4328C39.6416 49.4328 49.1852 33.9368 61.3946 29.0661C62.9036 28.4642 65.4023 29.6249 66.7853 31.07C67.2793 31.5862 68.351 35.3881 67.9395 38.4694C67.5244 41.5459 64.5147 58.3634 63.4042 58.9274Z" fill="#FFC727"/>
<path d="M62.5515 38.3281C62.5789 38.6547 62.5682 38.9833 62.5197 39.3074C62.4784 39.6325 62.399 39.9516 62.2831 40.2581C62.2553 39.9316 62.266 39.6029 62.315 39.2789C62.3568 38.9538 62.4362 38.6348 62.5515 38.3281Z" fill="white"/>
<path d="M58.3899 48.8805C58.4173 49.207 58.4066 49.5357 58.358 49.8598C58.3168 50.1849 58.2374 50.504 58.1215 50.8106C58.0937 50.484 58.1044 50.1553 58.1534 49.8313C58.1952 49.5062 58.2745 49.1871 58.3899 48.8805Z" fill="white"/>
<path d="M51.3147 40.9056C51.342 41.2321 51.3313 41.5607 51.2828 41.8848C51.2416 42.2099 51.1622 42.529 51.0464 42.8356C51.0185 42.509 51.0292 42.1803 51.0782 41.8563C51.12 41.5313 51.1993 41.2122 51.3147 40.9056Z" fill="white"/>
<path d="M65.2781 48.3452C65.3054 48.6717 65.2947 49.0003 65.2462 49.3244C65.205 49.6496 65.1256 49.9687 65.0097 50.2752C64.9819 49.9487 64.9926 49.62 65.0416 49.2959C65.0834 48.9709 65.1627 48.6518 65.2781 48.3452Z" fill="white"/>
<path d="M56.1934 39.5367C56.5195 39.5094 56.8477 39.5201 57.1713 39.5687C57.496 39.61 57.8147 39.6895 58.1209 39.8055C57.7947 39.8334 57.4665 39.8226 57.1429 39.7736C56.8183 39.7317 56.4996 39.6523 56.1934 39.5367Z" fill="white"/>
<path d="M48.1641 47.1609C48.4902 47.1335 48.8184 47.1442 49.142 47.1928C49.4667 47.2341 49.7854 47.3136 50.0915 47.4296C49.7654 47.4575 49.4371 47.4468 49.1135 47.3977C48.7889 47.3559 48.4703 47.2764 48.1641 47.1609Z" fill="white"/>
<path d="M57.6099 55.4121C57.936 55.3848 58.2642 55.3955 58.5879 55.444C58.9126 55.4854 59.2313 55.5649 59.5374 55.6809C59.2113 55.7087 58.883 55.698 58.5594 55.649C58.2348 55.6071 57.9161 55.5277 57.6099 55.4121Z" fill="white"/>
<path d="M45.689 52.4146C46.0151 52.3872 46.3433 52.3979 46.667 52.4465C46.9917 52.4878 47.3104 52.5673 47.6165 52.6833C47.2904 52.7112 46.9621 52.7005 46.6385 52.6514C46.3139 52.6096 45.9952 52.5301 45.689 52.4146Z" fill="white"/>
<path d="M62.4912 30.9114C62.8173 30.884 63.1455 30.8947 63.4692 30.9433C63.7939 30.9846 64.1126 31.0641 64.4187 31.1801C64.0925 31.208 63.7643 31.1973 63.4407 31.1482C63.1161 31.1064 62.7975 31.0269 62.4912 30.9114Z" fill="white"/>
<path d="M60.1577 33.5523C59.9464 33.8026 59.7068 34.0274 59.4436 34.2222C59.1848 34.4229 58.9034 34.5923 58.605 34.727C58.8159 34.4764 59.0556 34.2516 59.3191 34.0571C59.5781 33.8568 59.8596 33.6874 60.1577 33.5523Z" fill="white"/>
<path d="M47.4253 41.0562C47.214 41.3065 46.9744 41.5313 46.7112 41.7261C46.4524 41.9268 46.1709 42.0963 45.8726 42.231C46.0835 41.9803 46.3231 41.7555 46.5866 41.561C46.8457 41.3608 47.1271 41.1913 47.4253 41.0562Z" fill="white"/>
<path d="M63.3207 44.4458C63.1095 44.696 62.8698 44.9208 62.6067 45.1156C62.3479 45.3164 62.0665 45.4858 61.7681 45.6205C61.979 45.3699 62.2186 45.145 62.4821 44.9506C62.7412 44.7503 63.0226 44.5809 63.3207 44.4458Z" fill="white"/>
<path d="M53.0268 50.9362C52.8156 51.1865 52.5759 51.4113 52.3127 51.6061C52.054 51.8068 51.7725 51.9762 51.4741 52.1109C51.685 51.8603 51.9247 51.6355 52.1882 51.441C52.4472 51.2407 52.7287 51.0713 53.0268 50.9362Z" fill="white"/>
<path d="M67.2651 35.5758C67.0539 35.8261 66.8142 36.0509 66.5511 36.2457C66.2923 36.4464 66.0108 36.6159 65.7124 36.7506C65.9233 36.5 66.163 36.2751 66.4265 36.0807C66.6856 35.8804 66.967 35.711 67.2651 35.5758Z" fill="white"/>
<path d="M67.0497 43.0993C66.7997 42.8878 66.5752 42.6478 66.3806 42.3843C66.1802 42.1252 66.011 41.8433 65.8765 41.5445C66.1268 41.7557 66.3513 41.9957 66.5455 42.2596C66.7455 42.519 66.9147 42.8008 67.0497 43.0993Z" fill="white"/>
<path d="M44.1063 48.2802C43.8564 48.0687 43.6319 47.8287 43.4373 47.5652C43.2369 47.3061 43.0677 47.0242 42.9331 46.7255C43.1834 46.9366 43.408 47.1767 43.6021 47.4405C43.8022 47.6999 43.9714 47.9817 44.1063 48.2802Z" fill="white"/>
<path d="M64.2611 54.4478C64.0112 54.2362 63.7867 53.9963 63.5921 53.7328C63.3917 53.4736 63.2224 53.1918 63.0879 52.893C63.3382 53.1042 63.5627 53.3442 63.7569 53.608C63.9569 53.8674 64.1261 54.1493 64.2611 54.4478Z" fill="white"/>
<path d="M54.1605 36.8732C53.9105 36.6616 53.686 36.4216 53.4915 36.1581C53.291 35.899 53.1218 35.6172 52.9873 35.3184C53.2376 35.5296 53.4621 35.7696 53.6563 36.0334C53.8563 36.2928 54.0255 36.5746 54.1605 36.8732Z" fill="white"/>
<path d="M54.3387 57.9571C54.0888 57.7456 53.8642 57.5056 53.6697 57.2421C53.4693 56.983 53.3 56.7011 53.1655 56.4024C53.4158 56.6136 53.6403 56.8536 53.8345 57.1174C54.0345 57.3768 54.2037 57.6586 54.3387 57.9571Z" fill="white"/>
<path d="M56.056 45.5197C55.8061 45.3082 55.5816 45.0682 55.387 44.8047C55.1866 44.5456 55.0174 44.2637 54.8828 43.965C55.1331 44.1762 55.3577 44.4162 55.5518 44.68C55.7519 44.9394 55.9211 45.2212 56.056 45.5197Z" fill="white"/>
<path d="M64.5408 35.1947C62.9851 34.9051 61.5184 31.6803 61.3341 29.5112C61.3223 29.3624 62.0626 28.1814 62.8942 26.7036C63.3954 25.8048 63.9323 24.7922 64.3556 23.8328C64.4415 23.6354 64.9515 24.2935 64.9515 24.2935L66.0591 25.142L69.72 27.953C68.8478 29.001 68.1071 30.1518 67.5142 31.38C67.4575 31.513 67.4131 31.6509 67.3817 31.792C67.3758 31.811 67.3714 31.8352 67.3617 31.861C67.1534 32.6628 66.0446 35.4736 64.5408 35.1947Z" fill="#EB9481"/>
<path d="M67.3816 31.7921C67.3757 31.811 67.3713 31.8352 67.3616 31.8611C67.1447 31.7983 66.9332 31.7179 66.7294 31.6206C62.723 29.7404 64.4904 24.365 64.4904 24.365L66.059 25.142L69.7199 27.953C68.8477 29.001 68.107 30.1519 67.514 31.38C67.4574 31.513 67.413 31.6509 67.3816 31.7921Z" fill="#263238"/>
<path d="M73.9224 16.4964C73.9224 16.4964 75.7525 17.6603 75.7645 19.7297C75.7765 21.7992 74.9534 23.8236 74.7622 23.8962C74.571 23.9688 73.9224 16.4964 73.9224 16.4964Z" fill="#263238"/>
<path d="M64.8369 17.5702C63.7364 19.7458 63.7919 26.5955 65.1663 28.3606C67.1587 30.9195 70.997 31.8013 73.3136 29.2712C75.5594 26.8187 75.3292 17.8933 73.7404 16.2298C71.4001 13.7798 66.4627 14.3567 64.8369 17.5702Z" fill="#EB9481"/>
<path d="M70.6737 23.0581C70.6696 23.0405 70.6377 23.0811 70.6389 23.1002C70.6644 23.5667 70.6152 24.1052 70.197 24.27C70.1841 24.275 70.186 24.2985 70.2016 24.2959C70.7146 24.2115 70.7726 23.4959 70.6737 23.0581Z" fill="#263238"/>
<path d="M70.2464 22.5802C69.4954 22.5406 69.4714 24.0479 70.1674 24.0845C70.8522 24.1206 70.8761 22.6134 70.2464 22.5802Z" fill="#263238"/>
<path d="M73.2249 23.0408C73.2287 23.023 73.2611 23.0635 73.2602 23.0826C73.238 23.5492 73.291 24.0874 73.7103 24.2491C73.7234 24.2542 73.7217 24.2776 73.7061 24.2751C73.1925 24.1944 73.1292 23.4793 73.2249 23.0408Z" fill="#263238"/>
<path d="M73.6491 22.5599C74.3998 22.5148 74.4347 24.0218 73.7391 24.0635C73.0545 24.1046 73.0196 22.5976 73.6491 22.5599Z" fill="#263238"/>
<path d="M69.7747 21.433C69.9734 21.378 70.1691 21.3124 70.3609 21.2367C70.577 21.1964 70.7737 21.0859 70.9207 20.9223C70.9568 20.8619 70.972 20.7912 70.9639 20.7213C70.9557 20.6514 70.9246 20.5861 70.8756 20.5357C70.7635 20.4506 70.6308 20.397 70.4912 20.3805C70.3516 20.3639 70.2101 20.385 70.0813 20.4416C69.8028 20.5156 69.5617 20.6909 69.4052 20.9332C69.3727 20.9904 69.3575 21.0559 69.3615 21.1216C69.3654 21.1874 69.3883 21.2506 69.4275 21.3035C69.4666 21.3565 69.5202 21.3969 69.5819 21.4199C69.6435 21.4429 69.7105 21.4474 69.7747 21.433Z" fill="#263238"/>
<path d="M74.1711 22.101C73.9697 22.0566 73.7709 22.0015 73.5753 21.936C73.3575 21.9073 73.1552 21.8074 72.9998 21.6518C72.9605 21.5935 72.9415 21.5237 72.9459 21.4534C72.9504 21.3831 72.9779 21.3163 73.0243 21.2634C73.1317 21.1724 73.2613 21.1119 73.3999 21.088C73.5384 21.064 73.6809 21.0776 73.8124 21.1272C74.0945 21.1863 74.3445 21.3485 74.5136 21.5822C74.5491 21.6377 74.5678 21.7022 74.5673 21.7681C74.5668 21.834 74.5472 21.8983 74.511 21.9532C74.4747 22.0082 74.4233 22.0514 74.3629 22.0776C74.3026 22.1038 74.236 22.112 74.1711 22.101Z" fill="#263238"/>
<path d="M69.6125 27.4818C69.7224 27.5929 69.8315 27.7452 70.0004 27.7622C70.1739 27.7615 70.3454 27.7242 70.5035 27.6527C70.5068 27.6513 70.5104 27.651 70.5138 27.6519C70.5172 27.6528 70.5202 27.6547 70.5225 27.6574C70.5247 27.6601 70.526 27.6635 70.5261 27.667C70.5263 27.6705 70.5253 27.674 70.5233 27.6769C70.4552 27.7677 70.3639 27.8383 70.259 27.8813C70.154 27.9242 70.0395 27.938 69.9274 27.921C69.8327 27.8947 69.748 27.8409 69.6838 27.7663C69.6197 27.6918 69.5791 27.5999 69.5672 27.5023C69.5606 27.475 69.5964 27.4657 69.6125 27.4818Z" fill="#263238"/>
<path d="M72.3201 25.4857C72.3201 25.4857 72.34 26.1845 72.3046 26.5092C71.6701 26.4428 71.0295 26.4657 70.4013 26.5774C70.2536 26.61 70.268 26.4899 70.4387 26.4111C70.9445 26.1791 71.508 26.1043 72.0567 26.1963C72.0894 26.1089 72.0063 25.1211 72.0581 25.1228C72.3075 25.1728 72.5491 25.2561 72.7763 25.3705C72.7772 23.9137 72.5448 22.4687 72.5674 21.0181C72.5677 21.0076 72.5717 20.9975 72.5788 20.9896C72.5858 20.9818 72.5954 20.9767 72.6059 20.9753C72.6163 20.9739 72.6269 20.9762 72.6358 20.9819C72.6446 20.9876 72.6512 20.9963 72.6543 21.0064C72.9508 22.5478 73.0929 24.1149 73.0784 25.6845C73.0849 25.8721 72.4439 25.5552 72.3201 25.4857Z" fill="#263238"/>
<path d="M71.3903 26.2608C71.2237 26.6938 70.9183 27.0592 70.522 27.2996C69.8969 27.5528 69.6826 26.9864 70.3207 26.4856C70.6497 26.3134 71.0199 26.2356 71.3903 26.2608Z" fill="#263238"/>
<path d="M70.7396 27.1719C70.6734 27.2254 70.5995 27.2687 70.5204 27.3002C69.9457 27.532 69.7183 27.0725 70.1814 26.6089C70.4956 26.6337 70.8388 26.7496 70.7396 27.1719Z" fill="#FF99BA"/>
<path d="M64.5206 23.4304C65.2763 23.6626 66.1464 21.3864 66.3922 20.5111C66.609 19.7397 66.8588 17.293 66.8957 17.1261C66.9325 16.9594 70.1916 19.2913 72.0971 18.7337C74.0027 18.1761 75.2762 16.4636 75.3024 15.6645C75.3285 14.8655 72.9627 12.8365 70.9154 12.7328C68.8681 12.629 66.0968 15.2345 66.0968 15.2345C66.4319 14.8534 66.736 14.4461 67.0062 14.0165C66.9742 13.9241 65.6516 14.4533 65.4081 15.3968C65.4081 15.3968 65.6699 14.2125 65.57 14.1903C65.4699 14.1682 64.442 15.1827 64.6739 15.9515C64.6739 15.9515 63.4849 16.9828 63.3749 18.1132C63.2649 19.2437 63.6324 23.1576 64.5206 23.4304Z" fill="#263238"/>
<path d="M73.4514 18.335C72.8871 18.6393 72.2802 18.8567 71.6512 18.98C70.9497 19.0406 70.2441 18.9274 69.5967 18.6503C68.9423 18.3944 68.3338 18.0337 67.7949 17.5824C67.3184 17.1896 66.8956 16.7156 66.3868 16.3656C66.2596 16.2781 66.1121 16.4616 66.1903 16.5791C67.0403 17.7776 68.2524 18.6709 69.6479 19.1273C70.2959 19.3397 70.9878 19.3798 71.6559 19.2435C72.3239 19.1072 72.9451 18.7994 73.4585 18.3501C73.4651 18.3447 73.4608 18.3306 73.4514 18.335Z" fill="#263238"/>
<path d="M65.3112 23.2276C65.3112 23.2276 64.1381 20.8423 63.0796 21.229C62.0212 21.6157 62.6726 24.9118 63.7528 25.5154C63.886 25.6023 64.0354 25.6614 64.192 25.689C64.3486 25.7166 64.5091 25.7122 64.664 25.6761C64.8189 25.64 64.9648 25.5729 65.0931 25.4788C65.2214 25.3847 65.3293 25.2656 65.4104 25.1286L65.3112 23.2276Z" fill="#EB9481"/>
<path d="M63.2899 22.1692C63.2862 22.1685 63.2823 22.1692 63.2791 22.1711C63.2758 22.1729 63.2732 22.1759 63.2719 22.1795C63.2707 22.1831 63.2707 22.187 63.272 22.1906C63.2733 22.1941 63.2759 22.1971 63.2792 22.199C64.0326 22.6485 64.3409 23.4597 64.5183 24.2787C64.484 24.1909 64.4311 24.1117 64.3632 24.0464C64.2953 23.9811 64.2141 23.9314 64.1252 23.9005C64.0363 23.8697 63.9417 23.8585 63.8481 23.8678C63.7545 23.8771 63.6639 23.9066 63.5828 23.9543C63.5596 23.9661 63.5746 24.002 63.598 24.0007C63.7461 23.9774 63.8978 24.0006 64.0322 24.0673C64.1666 24.1339 64.2771 24.2406 64.3484 24.3726C64.4663 24.5943 64.56 24.828 64.628 25.0698C64.6545 25.1474 64.7902 25.1289 64.7756 25.0419L64.7718 25.0222C64.9496 23.9998 64.3739 22.4417 63.2899 22.1692Z" fill="#263238"/>
<path d="M57.5589 33.874C56.7506 38.5638 61.8075 54.3664 65.0632 57.3179C69.905 61.7074 78.8573 64.5937 82.1011 65.5328C83.5145 65.942 87.4262 55.9803 85.9959 55.3242C82.9325 53.9191 73.4151 50.9467 72.5192 50.1835C71.6231 49.4203 66.1542 41.5413 63.723 36.9971C60.4612 30.9003 57.9678 31.5018 57.5589 33.874Z" fill="#EB9481"/>
<path d="M83.5869 54.4478C83.5869 54.4478 87.8085 55.5251 90.5361 56.3595C92.0578 56.825 94.5957 57.8562 95.5574 58.7102C96.9959 59.9877 102.197 66.2503 100.708 67.5457C99.36 68.7185 95.5736 62.7699 95.5736 62.7699C95.5736 62.7699 99.9243 68.4342 98.0418 69.5474C96.1593 70.6605 92.7738 63.37 92.7738 63.37C92.7738 63.37 97.1136 69.2902 94.991 70.1306C93.3869 70.7658 89.949 64.3355 89.949 64.3355C89.949 64.3355 93.644 69.45 92.0225 70.1743C90.2307 70.9748 86.6853 65.2386 86.6853 65.2386C82.254 66.3851 79.6756 65.1159 77.9489 63.9944C77.5309 63.7228 83.5869 54.4478 83.5869 54.4478Z" fill="#EB9481"/>
<path d="M94.1941 60.7144C94.7291 61.3611 95.2752 62.0123 95.751 62.7045C96.227 63.3968 96.679 64.1062 97.0884 64.8397C97.6423 65.7877 98.0858 66.7963 98.41 67.8455C97.698 66.0256 96.0329 63.5211 95.5568 62.8286C95.082 62.1378 94.6417 61.423 94.1671 60.7315C94.1551 60.7141 94.1814 60.6989 94.1941 60.7144Z" fill="#263238"/>
<path d="M91.6668 62.3894C92.5837 63.1173 94.5078 65.8276 95.2497 67.6431C95.2808 67.7193 95.2399 67.7132 95.1949 67.6438C94.6137 66.7466 92.2666 63.2679 91.6453 62.4032C91.6356 62.3897 91.6541 62.3793 91.6668 62.3894Z" fill="#263238"/>
<path d="M89.2392 63.4366C90.3821 64.636 91.2832 66.0448 91.8934 67.5859C91.9251 67.661 91.8652 67.6493 91.8215 67.5783C90.9652 66.1823 90.3033 65.081 89.1954 63.4733C89.1781 63.4482 89.2146 63.4122 89.2392 63.4366Z" fill="#263238"/>
<path d="M62.1602 34.2191C58.385 28.8729 56.1295 30.8548 56.8865 36.6576C57.5944 42.0847 59.4941 48.5498 59.4941 48.5498L69.0202 43.9297C69.0202 43.9297 64.5761 37.6405 62.1602 34.2191Z" fill="#FFC727"/>
<path d="M64.4672 36.3209C64.5928 36.6235 64.6828 36.9398 64.7353 37.2633C64.7951 37.5855 64.8168 37.9136 64.7999 38.2409C64.6739 37.9385 64.5839 37.6222 64.5318 37.2986C64.4725 36.9763 64.4508 36.6482 64.4672 36.3209Z" fill="white"/>
<path d="M58.8311 39.5712C59.1333 39.4455 59.4491 39.3554 59.7721 39.3028C60.0939 39.2429 60.4216 39.2212 60.7485 39.2381C60.4464 39.3643 60.1306 39.4544 59.8074 39.5066C59.4856 39.566 59.1579 39.5876 58.8311 39.5712Z" fill="white"/>
<path d="M59.0762 31.2579C58.9513 31.5608 58.7916 31.8481 58.6004 32.1141C58.4151 32.3843 58.1987 32.6317 57.9556 32.8512C58.0801 32.5481 58.2398 32.2607 58.4314 31.995C58.6171 31.7251 58.8335 31.4778 59.0762 31.2579Z" fill="white"/>
<path d="M67.1143 42.0681C66.9893 42.371 66.8296 42.6583 66.6384 42.9242C66.4532 43.1944 66.2368 43.4418 65.9937 43.6612C66.1181 43.3581 66.2778 43.0707 66.4695 42.8051C66.6551 42.5352 66.8715 42.2879 67.1143 42.0681Z" fill="white"/>
<path d="M60.5237 45.3108C60.2212 45.1857 59.9343 45.0258 59.6687 44.8343C59.3988 44.6488 59.1518 44.4321 58.9326 44.1887C59.2353 44.3133 59.5223 44.4732 59.7876 44.6652C60.0572 44.851 60.3042 45.0677 60.5237 45.3108Z" fill="white"/>
<path d="M63.4262 35.8281C63.9332 36.5264 64.4585 37.2112 64.9819 37.8972C64.8491 37.5501 64.734 37.1998 64.6315 36.8417C64.6306 36.8384 64.631 36.8349 64.6326 36.8319C64.6343 36.8289 64.637 36.8266 64.6402 36.8256C64.6435 36.8246 64.647 36.8248 64.65 36.8263C64.6531 36.8278 64.6555 36.8305 64.6566 36.8337C64.7624 37.1084 64.8799 37.3788 64.9812 37.6551C65.0299 37.7879 65.0798 37.9202 65.1307 38.0522C65.1417 38.0806 65.1529 38.1089 65.164 38.1373C65.5713 38.6725 65.9767 39.209 66.3688 39.7553C66.8365 40.4073 67.2879 41.0705 67.7415 41.7325C68.2101 42.4165 68.6545 43.2183 69.1492 43.8832C68.8563 44.0668 68.5462 44.2215 68.2235 44.3452C68.1388 44.3925 68.0812 44.3102 68.1714 44.2827C68.2544 44.2574 68.9561 43.8256 68.9649 43.817C68.5117 43.1496 67.9849 42.5326 67.5104 41.88C67.0383 41.2304 66.5641 40.5827 66.106 39.9229C65.1759 38.5833 64.3215 37.1914 63.3985 35.8458C63.3864 35.8283 63.4139 35.8112 63.4262 35.8281Z" fill="#263238"/>
<path d="M57.1206 40.4966C57.2655 40.7789 57.4212 41.0582 57.5495 41.3486C57.6024 41.4686 57.6546 41.5889 57.7076 41.7089C57.4905 40.6755 57.2766 39.6414 57.0661 38.6066C57.0637 38.5944 57.0817 38.5881 57.085 38.6006C57.5215 40.2761 57.9626 41.9498 58.368 43.633C58.8083 45.2359 59.167 46.8602 59.4426 48.4996C59.732 48.3743 60.0312 48.2731 60.3372 48.197C60.0316 48.3975 59.7013 48.5576 59.3547 48.6733C58.855 47.0076 58.4411 45.3173 58.1146 43.609C58.0113 43.1454 57.915 42.6803 57.8162 42.2158C57.7088 41.9359 57.5784 41.6662 57.4513 41.3945C57.3168 41.1067 57.2085 40.8056 57.091 40.5105C57.0842 40.4933 57.112 40.4799 57.1206 40.4966Z" fill="#263238"/>
<path d="M59.6447 46.9541C60.9681 46.2067 66.4972 43.3409 67.7345 42.8007C67.8202 42.7632 67.8652 42.8072 67.781 42.8574C65.1565 44.3857 62.451 45.77 59.6765 47.0041C59.643 47.0208 59.611 46.9732 59.6447 46.9541Z" fill="#263238"/>
<path d="M211.142 155.79H85.1758L103.39 52.3551H229.356L211.142 155.79Z" fill="#FFC727"/>
<path d="M146.502 41.6432H105.276L103.39 52.3551H147.509L146.502 41.6432Z" fill="#FFC727"/>
<g opacity="0.1">
<path opacity="0.1" d="M211.142 155.79H85.1758L103.39 52.3551H229.356L211.142 155.79Z" fill="black"/>
<path opacity="0.1" d="M146.502 41.6432H105.276L103.39 52.3551H147.509L146.502 41.6432Z" fill="black"/>
</g>
<path d="M100.828 46.013C100.682 45.4239 100.613 44.8185 100.621 44.2117C100.612 43.6048 100.682 42.9993 100.828 42.4103C100.975 42.9993 101.044 43.6048 101.035 44.2117C101.043 44.8185 100.974 45.4239 100.828 46.013Z" fill="#263238"/>
<path d="M97.1647 47.0738C96.7445 46.6365 96.382 46.147 96.0863 45.6172C95.7752 45.0963 95.533 44.5372 95.3657 43.9538C95.7867 44.3905 96.1492 44.8801 96.4441 45.4104C96.7545 45.9317 96.9967 46.4907 97.1647 47.0738Z" fill="#263238"/>
<path d="M94.5217 49.8266C93.9394 49.6583 93.3811 49.4159 92.8605 49.1051C92.3309 48.8098 91.8419 48.4468 91.4058 48.0253C91.9884 48.1927 92.5469 48.4353 93.0671 48.7468C93.5961 49.0429 94.085 49.4058 94.5217 49.8266Z" fill="#263238"/>
<path d="M93.6077 53.5338C93.0194 53.6796 92.4147 53.7491 91.8087 53.7407C91.2027 53.75 90.5979 53.6805 90.0098 53.5338C90.5979 53.3871 91.2027 53.3176 91.8087 53.3269C92.4147 53.3185 93.0193 53.388 93.6077 53.5338Z" fill="#263238"/>
<path d="M94.6672 57.202C94.2305 57.6228 93.7416 57.9857 93.2125 58.2818C92.6923 58.5934 92.1339 58.8359 91.5513 59.0033C91.9874 58.5818 92.4764 58.2188 93.0059 57.9235C93.5265 57.6128 94.0849 57.3703 94.6672 57.202Z" fill="#263238"/>
<path d="M97.4167 59.8483C97.2486 60.4314 97.0064 60.9904 96.6961 61.5118C96.4012 62.042 96.0387 62.5316 95.6177 62.9683C95.7849 62.3849 96.0271 61.8258 96.3383 61.3049C96.634 60.7751 96.9964 60.2856 97.4167 59.8483Z" fill="#263238"/>
<path d="M101.119 60.7637C101.264 61.3528 101.334 61.9582 101.325 62.5651C101.334 63.1719 101.265 63.7774 101.119 64.3664C100.972 63.7775 100.903 63.1719 100.912 62.5651C100.904 61.9582 100.973 61.3528 101.119 60.7637Z" fill="#263238"/>
<path d="M104.782 59.7029C105.202 60.1402 105.565 60.6297 105.861 61.1595C106.172 61.6804 106.414 62.2395 106.581 62.8229C106.16 62.3862 105.798 61.8966 105.503 61.3663C105.192 60.845 104.95 60.286 104.782 59.7029Z" fill="#263238"/>
<path d="M107.425 56.9501C108.007 57.1184 108.565 57.3609 109.086 57.6716C109.616 57.967 110.105 58.33 110.541 58.7514C109.958 58.584 109.4 58.3415 108.879 58.03C108.35 57.7339 107.862 57.3709 107.425 56.9501Z" fill="#263238"/>
<path d="M108.339 53.2429C108.927 53.0971 109.532 53.0276 110.138 53.0361C110.744 53.0267 111.349 53.0963 111.937 53.2429C111.349 53.3896 110.744 53.4592 110.138 53.4498C109.532 53.4583 108.927 53.3887 108.339 53.2429Z" fill="#263238"/>
<path d="M107.28 49.5748C107.717 49.1539 108.205 48.791 108.734 48.4949C109.255 48.1834 109.813 47.9409 110.396 47.7734C109.96 48.1949 109.471 48.5579 108.941 48.8533C108.42 49.164 107.862 49.4065 107.28 49.5748Z" fill="#263238"/>
<path d="M104.53 46.9284C104.698 46.3453 104.94 45.7863 105.251 45.2649C105.546 44.7347 105.908 44.2451 106.329 43.8084C106.162 44.3918 105.92 44.9509 105.609 45.4718C105.313 46.0016 104.951 46.4911 104.53 46.9284Z" fill="#263238"/>
<path d="M211.161 155.679H84.923L67 56H193.238L211.161 155.679Z" fill="#FFC727"/>
<path d="M110.541 117.045C113.439 117.045 115.788 114.693 115.788 111.791C115.788 108.89 113.439 106.537 110.541 106.537C107.643 106.537 105.294 108.89 105.294 111.791C105.294 114.693 107.643 117.045 110.541 117.045Z" fill="#263238"/>
<path d="M152.019 117.045C154.917 117.045 157.266 114.693 157.266 111.791C157.266 108.89 154.917 106.537 152.019 106.537C149.122 106.537 146.772 108.89 146.772 111.791C146.772 114.693 149.122 117.045 152.019 117.045Z" fill="#263238"/>
<path d="M138.816 117.884L138.528 117.334C138.502 117.284 135.792 112.267 130.338 112.267C125.364 112.267 124.151 116.991 124.102 117.192L123.954 117.794L122.751 117.503L122.896 116.9C122.91 116.842 124.374 111.025 130.338 111.025C136.554 111.025 139.504 116.523 139.627 116.757L139.915 117.307L138.816 117.884Z" fill="#263238"/>
<path d="M202.58 111.188C202.849 111.13 203.117 111.067 203.385 110.999" stroke="#263238" stroke-miterlimit="10"/>
<path d="M204.972 110.528C211.296 108.39 216.592 103.409 217.09 97.5884C218.189 84.7548 202.58 77.6658 204.192 62.8358C205.73 48.6896 220.549 47.68 226.489 49.6356C233.05 51.7955 230.802 58.1098 224.862 57.295C214.563 55.8824 208.089 44.6712 212.981 31.9538C216.635 22.4525 225.745 18.869 229.446 17.7762" stroke="#263238" stroke-miterlimit="10" stroke-dasharray="4 4"/>
<path d="M230.242 17.5553C230.754 17.4231 231.046 17.3683 231.046 17.3683" stroke="#263238" stroke-miterlimit="10"/>
<path d="M237.603 15.0816C236.548 11.8094 229.486 12.9852 230.865 17.2601C232.243 21.535 238.658 18.3537 237.603 15.0816Z" fill="#263238"/>
<path d="M227.024 13.7624C227.077 12.3273 229.071 11.2232 231.889 11.7328C234.707 12.2422 237.361 14.1428 237.361 14.1428C237.361 14.1428 234.574 15.8497 231.727 16.1507C228.879 16.4517 226.971 15.204 227.024 13.7624Z" fill="#EBEBEB"/>
<path d="M237.361 14.1428C235.898 14.1529 234.437 14.1037 232.976 14.059C231.515 13.9963 230.054 13.9384 228.596 13.8202C230.059 13.8095 231.52 13.8592 232.981 13.904C234.442 13.9668 235.903 14.0251 237.361 14.1428Z" fill="#263238"/>
<path d="M229.857 12.4918C230.273 12.6897 230.676 12.9122 231.066 13.1581C231.457 13.4011 231.833 13.6675 232.193 13.9559C231.777 13.7583 231.373 13.5358 230.984 13.2895C230.593 13.0462 230.216 12.7798 229.857 12.4918Z" fill="#263238"/>
<path d="M233.688 14.0076C233.313 14.3124 232.921 14.5956 232.514 14.856C232.109 15.1192 231.689 15.359 231.257 15.574C231.631 15.269 232.023 14.9857 232.43 14.7256C232.835 14.4627 233.255 14.2229 233.688 14.0076Z" fill="#263238"/>
<path d="M234.113 13.1995C234.321 13.2998 234.517 13.4244 234.696 13.5707C234.877 13.7147 235.04 13.8798 235.182 14.0626C234.973 13.9626 234.778 13.838 234.599 13.6914C234.418 13.5472 234.255 13.382 234.113 13.1995Z" fill="#263238"/>
<path d="M229.71 22.2789C230.591 23.4121 232.853 23.1402 234.841 21.0766C236.83 19.013 237.873 15.917 237.873 15.917C237.873 15.917 234.615 16.1643 232.129 17.5878C229.643 19.0114 228.825 21.1405 229.71 22.2789Z" fill="#EBEBEB"/>
<path d="M237.872 15.9171C236.679 16.7657 235.523 17.6613 234.364 18.5532C233.215 19.4594 232.064 20.3618 230.95 21.3118C232.143 20.4636 233.3 19.5677 234.459 18.6756C235.607 17.7693 236.758 16.8666 237.872 15.9171Z" fill="#263238"/>
<path d="M232.749 21.6509C232.971 21.2468 233.168 20.8299 233.341 20.4024C233.516 19.9761 233.666 19.5397 233.789 19.0954C233.567 19.4993 233.369 19.9162 233.197 20.3439C233.022 20.7702 232.872 21.2067 232.749 21.6509Z" fill="#263238"/>
<path d="M234.972 18.178C234.489 18.1502 234.006 18.1499 233.524 18.1769C233.042 18.2006 232.561 18.2519 232.085 18.3307C232.567 18.3588 233.05 18.3591 233.532 18.3317C234.015 18.3078 234.495 18.2564 234.972 18.178Z" fill="#263238"/>
<path d="M235.788 18.5845C235.898 18.3811 235.984 18.1654 236.044 17.9419C236.107 17.7191 236.143 17.4897 236.151 17.2584C236.04 17.4616 235.954 17.6773 235.895 17.9009C235.833 18.1238 235.797 18.3532 235.788 18.5845Z" fill="#263238"/>
<path d="M237.603 15.0816C237.37 15.157 237.119 15.1614 236.884 15.0944C236.648 15.0274 236.438 14.8919 236.279 14.705C236.12 14.5182 236.02 14.2884 235.992 14.0447C235.963 13.801 236.008 13.5544 236.119 13.336C236.231 13.1177 236.405 12.9373 236.619 12.8178C236.833 12.6984 237.077 12.6451 237.322 12.6648C237.566 12.6845 237.799 12.7763 237.991 12.9285C238.183 13.0807 238.326 13.2866 238.401 13.5201C238.451 13.6751 238.47 13.8384 238.457 14.0008C238.444 14.1631 238.399 14.3213 238.325 14.4663C238.251 14.6113 238.149 14.7403 238.025 14.8459C237.901 14.9514 237.758 15.0315 237.603 15.0816Z" fill="#455A64"/>
<path d="M238.364 17.4423C238.131 17.5177 237.881 17.5222 237.645 17.4552C237.41 17.3881 237.199 17.2526 237.04 17.0658C236.882 16.879 236.782 16.6492 236.753 16.4055C236.725 16.1618 236.77 15.9152 236.881 15.6968C236.993 15.4784 237.167 15.2981 237.381 15.1786C237.595 15.0591 237.839 15.0059 238.083 15.0256C238.328 15.0453 238.56 15.137 238.753 15.2893C238.945 15.4415 239.087 15.6474 239.163 15.8808C239.213 16.0358 239.232 16.1992 239.219 16.3615C239.206 16.5239 239.161 16.6821 239.087 16.8271C239.012 16.9721 238.911 17.1011 238.787 17.2066C238.663 17.3122 238.519 17.3923 238.364 17.4423Z" fill="#455A64"/>
<path d="M102.82 16.3883C102.622 18.29 101.9 20.0993 100.735 21.614C99.5693 23.1287 98.0065 24.2894 96.2207 24.9663C94.4349 25.6433 92.4963 25.8099 90.6214 25.4476C88.7464 25.0853 87.009 24.2084 85.603 22.9147L80.4478 23.6723L83.0272 19.2097C82.4358 17.7571 82.183 16.1885 82.2879 14.6233C82.3929 13.0581 82.8529 11.5374 83.6329 10.177C84.4129 8.81648 85.4924 7.65199 86.7894 6.77202C88.0864 5.89205 89.5667 5.31976 91.1177 5.09866C92.6687 4.87756 94.2497 5.01347 95.7404 5.49605C97.2311 5.97864 98.5922 6.7952 99.7204 7.88365C100.849 8.97211 101.714 10.3038 102.251 11.7775C102.788 13.2512 102.983 14.8281 102.82 16.3883Z" fill="white"/>
<path d="M102.82 16.3883C102.62 18.2902 101.901 20.1002 100.74 21.6188C100.172 22.3845 99.4902 23.0586 98.7183 23.6174C97.9588 24.1938 97.122 24.6603 96.2326 25.0032C95.3431 25.352 94.4093 25.575 93.4583 25.6656C92.9823 25.7085 92.5039 25.7176 92.0266 25.6929C91.5481 25.6812 91.0713 25.6315 90.6006 25.5443C88.7004 25.1948 86.935 24.322 85.5026 23.0238L85.6245 23.0615L80.4743 23.8532L80.1006 23.9107L80.2898 23.5808L82.8539 19.1094L82.842 19.2859C82.2372 17.8067 81.9799 16.2082 82.09 14.6137C82.2 13.0192 82.6745 11.4713 83.4767 10.0894C84.2792 8.71308 85.3825 7.5366 86.704 6.64831C88.0237 5.77322 89.5242 5.20875 91.0928 4.99725C92.6615 4.78576 94.2576 4.93273 95.7615 5.42713C97.2516 5.93283 98.6095 6.7666 99.7354 7.86712C100.86 8.96139 101.721 10.2968 102.256 11.7728C102.79 13.2488 102.983 14.8269 102.82 16.3883ZM102.82 16.3883C102.984 14.8344 102.791 13.2633 102.253 11.7961C101.716 10.329 100.85 9.00495 99.7205 7.9261C98.5915 6.84724 97.2301 6.04237 95.7414 5.57351C94.2527 5.10464 92.6763 4.98431 91.1338 5.2218C89.6056 5.45045 88.1498 6.02629 86.8781 6.90523C85.6188 7.79065 84.5668 8.93962 83.7949 10.2725C83.0352 11.6102 82.588 13.1029 82.487 14.6385C82.3912 16.1722 82.639 17.708 83.2123 19.1335L83.2495 19.2258L83.2003 19.3102L80.6058 23.7639L80.4213 23.4915L85.5814 22.7679L85.6527 22.7579L85.7034 22.8056C87.0801 24.0965 88.7887 24.9778 90.6377 25.3506C91.0985 25.4444 91.5659 25.5013 92.0357 25.5208C92.5052 25.5534 92.9764 25.5527 93.4458 25.5186C94.3869 25.4454 95.3132 25.2411 96.198 24.9119C97.088 24.5899 97.9256 24.1379 98.6835 23.5705C99.4556 23.0196 100.139 22.3534 100.709 21.595C101.878 20.087 102.608 18.2853 102.82 16.3883Z" fill="#263238"/>
<path d="M87.5324 20.1258C87.5246 19.9888 87.5448 19.8516 87.592 19.7227C87.6393 19.5938 87.7124 19.476 87.8069 19.3766C87.9014 19.2771 88.0153 19.1982 88.1415 19.1446C88.2677 19.0909 88.4035 19.0638 88.5406 19.0649C88.8125 19.0784 89.0688 19.1961 89.2565 19.3935C89.4441 19.591 89.5488 19.8532 89.5488 20.1258C89.5488 20.3984 89.4441 20.6605 89.2565 20.858C89.0688 21.0555 88.8125 21.1731 88.5406 21.1866C88.4035 21.1878 88.2676 21.1607 88.1414 21.1071C88.0152 21.0535 87.9013 20.9746 87.8068 20.8751C87.7123 20.7757 87.6392 20.6579 87.592 20.529C87.5448 20.4001 87.5245 20.2629 87.5324 20.1258ZM87.9597 17.6789L87.7204 9.46574H89.3608L89.1216 17.6789H87.9597Z" fill="#FFC727"/>
<path d="M91.4631 20.1258C91.4552 19.9888 91.4755 19.8516 91.5227 19.7227C91.5699 19.5938 91.643 19.476 91.7375 19.3766C91.832 19.2771 91.9459 19.1982 92.0721 19.1446C92.1983 19.0909 92.3342 19.0638 92.4713 19.0649C92.7432 19.0784 92.9995 19.196 93.1872 19.3935C93.375 19.591 93.4796 19.8531 93.4796 20.1258C93.4796 20.3984 93.375 20.6606 93.1872 20.858C92.9995 21.0555 92.7432 21.1732 92.4713 21.1866C92.3342 21.1878 92.1983 21.1607 92.0721 21.1071C91.9459 21.0535 91.832 20.9746 91.7375 20.8751C91.643 20.7757 91.5698 20.6579 91.5226 20.529C91.4755 20.4001 91.4552 20.2629 91.4631 20.1258ZM91.8903 17.6789L91.651 9.46574H93.2915L93.0524 17.6789H91.8903Z" fill="#FFC727"/>
<path d="M95.3938 20.1258C95.3859 19.9888 95.4062 19.8516 95.4534 19.7227C95.5006 19.5938 95.5737 19.476 95.6682 19.3766C95.7627 19.2771 95.8766 19.1982 96.0028 19.1446C96.129 19.0909 96.2649 19.0638 96.4019 19.0649C96.6738 19.0784 96.9301 19.1961 97.1178 19.3936C97.3054 19.591 97.4101 19.8532 97.4101 20.1258C97.4101 20.3983 97.3054 20.6605 97.1178 20.858C96.9301 21.0554 96.6738 21.1731 96.4019 21.1866C96.2648 21.1878 96.129 21.1607 96.0028 21.1071C95.8765 21.0535 95.7626 20.9746 95.6681 20.8751C95.5736 20.7757 95.5005 20.6579 95.4533 20.529C95.4061 20.4001 95.3858 20.2629 95.3938 20.1258ZM95.821 17.6789L95.5817 9.46574H97.2222L96.983 17.6789H95.821Z" fill="#FFC727"/>
</g>
<defs>
<clipPath id="clip0_3978_6506">
<rect width="253" height="166" fill="white"/>
</clipPath>
</defs>
</svg>
