<svg width="24" height="25" viewBox="0 0 24 25" fill="none" xmlns="http://www.w3.org/2000/svg">
<g clip-path="url(#clip0_3311_1148)">
<path d="M20.0472 17.4381C18.8435 15.9648 17.9936 15.2148 17.9936 11.1531C17.9936 7.43359 16.0943 6.10844 14.531 5.46484C14.3233 5.37953 14.1279 5.18359 14.0646 4.97031C13.7904 4.03703 13.0216 3.21484 11.9997 3.21484C10.9779 3.21484 10.2086 4.0375 9.93724 4.97125C9.87396 5.18688 9.67849 5.37953 9.47084 5.46484C7.90568 6.10938 6.00818 7.42984 6.00818 11.1531C6.00584 15.2148 5.15599 15.9648 3.95224 17.4381C3.45349 18.0484 3.89037 18.9648 4.76271 18.9648H19.2415C20.1091 18.9648 20.5432 18.0456 20.0472 17.4381Z" stroke="#4A525A" stroke-width="1.3" stroke-linecap="round" stroke-linejoin="round"/>
<path d="M15 18.9648V19.7148C15 20.5105 14.6839 21.2736 14.1213 21.8362C13.5587 22.3988 12.7956 22.7148 12 22.7148C11.2044 22.7148 10.4413 22.3988 9.87868 21.8362C9.31607 21.2736 9 20.5105 9 19.7148V18.9648" stroke="#4A525A" stroke-width="1.3" stroke-linecap="round" stroke-linejoin="round"/>
<circle cx="19.5" cy="5.46484" r="4" fill="#FF647C" stroke="#F7F7F7"/>
</g>
<defs>
<clipPath id="clip0_3311_1148">
<rect width="24" height="24" fill="white" transform="translate(0 0.964844)"/>
</clipPath>
</defs>
</svg>
