<svg width="25" height="25" viewBox="0 0 25 25" fill="none" xmlns="http://www.w3.org/2000/svg">
<path d="M20.1019 17.4554C18.8982 15.9821 18.0483 15.2321 18.0483 11.1704C18.0483 7.45087 16.149 6.12572 14.5857 5.48212C14.378 5.39681 14.1826 5.20087 14.1193 4.98759C13.8451 4.05431 13.0763 3.23212 12.0544 3.23212C11.0326 3.23212 10.2633 4.05478 9.99193 4.98853C9.92865 5.20416 9.73318 5.39681 9.52552 5.48212C7.96037 6.12666 6.06287 7.44712 6.06287 11.1704C6.06052 15.2321 5.21068 15.9821 4.00693 17.4554C3.50818 18.0657 3.94506 18.9821 4.8174 18.9821H19.2961C20.1638 18.9821 20.5979 18.0629 20.1019 17.4554Z" stroke="#4A525A" stroke-width="1.3" stroke-linecap="round" stroke-linejoin="round"/>
<path d="M15.0544 18.9821V19.7321C15.0544 20.5278 14.7384 21.2908 14.1758 21.8534C13.6132 22.4161 12.8501 22.7321 12.0544 22.7321C11.2588 22.7321 10.4957 22.4161 9.93312 21.8534C9.37051 21.2908 9.05444 20.5278 9.05444 19.7321V18.9821" stroke="#4A525A" stroke-width="1.3" stroke-linecap="round" stroke-linejoin="round"/>
</svg>
