<svg width="30" height="31" viewBox="0 0 30 31" fill="none" xmlns="http://www.w3.org/2000/svg">
<circle cx="15" cy="15.5" r="15" fill="#FFB238" fill-opacity="0.2"/>
<path d="M20.3652 18.4822C19.5627 17.5 18.9961 17 18.9961 14.2922C18.9961 11.8125 17.7298 10.9291 16.6877 10.5C16.5492 10.4431 16.4189 10.3125 16.3767 10.1703C16.1939 9.54812 15.6814 9 15.0002 9C14.3189 9 13.8061 9.54844 13.6252 10.1709C13.583 10.3147 13.4527 10.4431 13.3142 10.5C12.2708 10.9297 11.0058 11.81 11.0058 14.2922C11.0042 17 10.4377 17.5 9.63515 18.4822C9.30265 18.8891 9.5939 19.5 10.1755 19.5H19.828C20.4064 19.5 20.6958 18.8872 20.3652 18.4822Z" stroke="#FFB238" stroke-linecap="round" stroke-linejoin="round"/>
<path d="M17 19.5V20C17 20.5304 16.7893 21.0391 16.4142 21.4142C16.0391 21.7893 15.5304 22 15 22C14.4696 22 13.9609 21.7893 13.5858 21.4142C13.2107 21.0391 13 20.5304 13 20V19.5" stroke="#FFB238" stroke-linecap="round" stroke-linejoin="round"/>
</svg>
