<svg width="29" height="28" viewBox="0 0 29 28" fill="none" xmlns="http://www.w3.org/2000/svg">
<path d="M11.1182 24.8889C12.0847 24.8889 12.8682 24.1054 12.8682 23.1389C12.8682 22.1724 12.0847 21.3889 11.1182 21.3889C10.1517 21.3889 9.36816 22.1724 9.36816 23.1389C9.36816 24.1054 10.1517 24.8889 11.1182 24.8889Z" fill="#292424"/>
<path d="M21.75 24.8889C22.7165 24.8889 23.5 24.1054 23.5 23.1389C23.5 22.1724 22.7165 21.3889 21.75 21.3889C20.7835 21.3889 20 22.1724 20 23.1389C20 24.1054 20.7835 24.8889 21.75 24.8889Z" fill="#292424"/>
<path d="M10.1923 5.54454H24.7365L22.7043 14.6779H11.1911L7.65874 3.49331L7.65857 3.49279C7.61518 3.35801 7.53983 3.23573 7.43895 3.13638C7.3381 3.03706 7.21473 2.9636 7.07936 2.92227C7.07932 2.92226 7.07927 2.92224 7.07923 2.92223L3.89053 1.94229L3.89053 1.94229C3.77992 1.9083 3.66371 1.89643 3.54851 1.90735C3.43332 1.91828 3.3214 1.95179 3.21916 2.00597C3.01267 2.11538 2.8581 2.30234 2.78946 2.52572C2.72081 2.7491 2.74372 2.9906 2.85314 3.1971C2.96255 3.40359 3.14951 3.55816 3.37289 3.6268L3.37297 3.62682L6.115 4.467L9.64868 15.63L8.42566 16.6293L8.42534 16.6289L8.41822 16.6361L8.31711 16.7372L8.31693 16.737L8.31229 16.7423C7.98153 17.1235 7.79404 17.6081 7.78214 18.1126C7.77023 18.6172 7.93465 19.1101 8.24706 19.5064L8.24705 19.5065L8.24836 19.5081C8.47026 19.7779 8.75224 19.9921 9.07173 20.1335C9.39047 20.2745 9.73771 20.3392 10.0858 20.3223H23.0645C23.2973 20.3223 23.5206 20.2298 23.6852 20.0652C23.8498 19.9006 23.9423 19.6773 23.9423 19.4445C23.9423 19.2117 23.8498 18.9885 23.6852 18.8239C23.5206 18.6592 23.2973 18.5668 23.0645 18.5668H9.96071C9.88891 18.564 9.81899 18.543 9.75761 18.5056C9.69577 18.4679 9.64469 18.4149 9.6093 18.3517C9.57392 18.2885 9.55543 18.2173 9.55561 18.1449C9.55579 18.0782 9.57176 18.0127 9.60212 17.9536L11.4339 16.4334H23.4056C23.608 16.4381 23.8059 16.3726 23.9656 16.248C24.1256 16.1232 24.2375 15.9467 24.282 15.7487L26.7476 4.85996L26.7476 4.85996L26.748 4.85786C26.7747 4.727 26.7712 4.59178 26.7377 4.46248C26.7044 4.33361 26.6422 4.21402 26.5558 4.11275C26.4742 4.01253 26.3715 3.93154 26.2551 3.87557C26.1382 3.81942 26.0104 3.78985 25.8807 3.78899H25.88H9.68671H9.54906L9.59161 3.9199L10.0972 5.47545L10.1196 5.54454H10.1923Z" fill="#292424" stroke="#292424" stroke-width="0.2"/>
</svg>
