<svg width="21" height="21" viewBox="0 0 21 21" fill="none" xmlns="http://www.w3.org/2000/svg">
<g clip-path="url(#clip0_4028_7730)">
<path d="M20.8556 10.7281C20.6981 10.4989 16.9131 5.13135 10.9296 5.13135C5.79538 5.13135 1.22031 10.4681 1.0278 10.6956C0.896982 10.8506 0.896982 11.0781 1.0278 11.2339C1.22031 11.4614 5.79538 16.7982 10.9296 16.7982C16.0639 16.7982 20.6389 11.4614 20.8314 11.2339C20.9523 11.0906 20.9631 10.8831 20.8556 10.7281ZM10.9296 15.9649C6.81375 15.9649 2.90033 12.0398 1.90618 10.9648C2.89869 9.88896 6.80793 5.96472 10.9296 5.96472C15.7455 5.96472 19.1448 9.88396 19.9748 10.9423C19.0164 11.9831 15.0805 15.9649 10.9296 15.9649Z" fill="#333333"/>
<path d="M10.9291 7.63135C9.09073 7.63135 7.5957 9.12637 7.5957 10.9647C7.5957 12.8031 9.09073 14.2981 10.9291 14.2981C12.7674 14.2981 14.2625 12.8031 14.2625 10.9647C14.2625 9.12637 12.7674 7.63135 10.9291 7.63135ZM10.9291 13.4648C9.55074 13.4648 8.42904 12.3431 8.42904 10.9648C8.42904 9.58642 9.55074 8.46472 10.9291 8.46472C12.3074 8.46472 13.4291 9.58642 13.4291 10.9648C13.4291 12.3431 12.3074 13.4648 10.9291 13.4648Z" fill="#333333"/>
</g>
<defs>
<clipPath id="clip0_4028_7730">
<rect width="20" height="20" fill="white" transform="translate(0.929688 0.964844)"/>
</clipPath>
</defs>
</svg>
