<svg width="29" height="28" viewBox="0 0 29 28" fill="none" xmlns="http://www.w3.org/2000/svg">
<path d="M24.2247 20.8797C23.7089 19.6579 22.9603 18.5481 22.0208 17.6121C21.0841 16.6734 19.9744 15.925 18.7532 15.4082C18.7423 15.4027 18.7313 15.4 18.7204 15.3945C20.4239 14.1641 21.5313 12.1598 21.5313 9.89844C21.5313 6.15234 18.4962 3.11719 14.7501 3.11719C11.004 3.11719 7.96882 6.15234 7.96882 9.89844C7.96882 12.1598 9.07624 14.1641 10.7798 15.3973C10.7688 15.4027 10.7579 15.4055 10.7469 15.4109C9.52194 15.9277 8.42272 16.6688 7.47937 17.6148C6.54068 18.5516 5.79227 19.6612 5.27546 20.8824C4.76775 22.078 4.49393 23.3599 4.46882 24.6586C4.46809 24.6878 4.47321 24.7168 4.48387 24.744C4.49454 24.7712 4.51054 24.7959 4.53092 24.8168C4.55131 24.8377 4.57567 24.8543 4.60257 24.8657C4.62948 24.877 4.65838 24.8828 4.68757 24.8828H6.32819C6.44851 24.8828 6.54421 24.7871 6.54694 24.6695C6.60163 22.5586 7.44929 20.5816 8.94772 19.0832C10.4981 17.5328 12.5571 16.6797 14.7501 16.6797C16.943 16.6797 19.002 17.5328 20.5524 19.0832C22.0508 20.5816 22.8985 22.5586 22.9532 24.6695C22.9559 24.7898 23.0516 24.8828 23.1719 24.8828H24.8126C24.8418 24.8828 24.8707 24.877 24.8976 24.8657C24.9245 24.8543 24.9488 24.8377 24.9692 24.8168C24.9896 24.7959 25.0056 24.7712 25.0163 24.744C25.0269 24.7168 25.032 24.6878 25.0313 24.6586C25.004 23.3516 24.7333 22.0801 24.2247 20.8797ZM14.7501 14.6016C13.495 14.6016 12.3137 14.1121 11.4251 13.2234C10.5364 12.3348 10.0469 11.1535 10.0469 9.89844C10.0469 8.64336 10.5364 7.46211 11.4251 6.57344C12.3137 5.68477 13.495 5.19531 14.7501 5.19531C16.0051 5.19531 17.1864 5.68477 18.0751 6.57344C18.9637 7.46211 19.4532 8.64336 19.4532 9.89844C19.4532 11.1535 18.9637 12.3348 18.0751 13.2234C17.1864 14.1121 16.0051 14.6016 14.7501 14.6016Z" fill="#292424"/>
</svg>
