<svg width="24" height="22" viewBox="0 0 24 22" fill="none" xmlns="http://www.w3.org/2000/svg">
<path d="M8.37652 0.0741591C6.8866 0.0741591 5.54783 0.889555 4.57629 1.68214C3.60474 2.47472 2.98574 3.27028 2.98574 3.27028L2.70803 3.62674L3.14143 3.75477C3.14143 3.75477 3.31076 3.801 3.51172 4.00724C3.71267 4.21347 3.92829 4.56393 3.92829 5.2299C3.92829 6.09179 4.06006 6.78722 4.12605 7.08193C3.95469 7.23861 3.84413 7.45912 3.84413 7.70709C3.84413 7.90709 3.90372 8.07692 3.95293 8.24448C3.97754 8.32826 4.00121 8.40652 4.01725 8.46569C4.0333 8.52487 4.03649 8.5821 4.03649 8.53782C4.03649 8.95663 4.3875 9.28298 4.8005 9.29763C4.85772 10.4908 5.43193 11.5439 6.30629 12.2377V13.3858C5.86208 13.5203 4.7971 13.8643 3.71249 14.3764C3.00526 14.7104 2.29312 15.113 1.73903 15.5901C1.18495 16.0672 0.766434 16.6388 0.766434 17.3093V19.1559H13.8881C14.6893 20.7929 16.3674 21.9258 18.3093 21.9258C21.0245 21.9258 23.2336 19.7166 23.2336 17.0015C23.2336 14.2863 21.0245 12.0772 18.3093 12.0772C17.5119 12.0772 16.7606 12.2718 16.0936 12.6098V11.6804C16.8744 11.0541 17.3876 10.11 17.4443 9.04096C17.8183 9.01253 18.1356 8.72118 18.1356 8.33765C18.1356 8.38525 18.1376 8.33305 18.1518 8.28055C18.1661 8.22804 18.1879 8.15837 18.2101 8.08278C18.2546 7.9316 18.3087 7.77881 18.3087 7.58987C18.3087 7.35935 18.2074 7.15426 18.049 7.00799C18.0859 6.80047 18.3093 5.52265 18.3093 4.59813C18.3093 3.59554 17.9328 2.87199 17.4239 2.42451C16.961 2.01755 16.4152 1.8542 15.9343 1.824C15.8722 1.71947 15.7977 1.55419 15.4835 1.30884C15.0804 0.99418 14.4317 0.689697 13.4938 0.689697C12.6639 0.689697 11.8866 0.973233 11.209 1.35212C11.1759 1.34866 11.1412 1.34064 11.1086 1.3383C11.0248 1.20582 10.8761 0.996427 10.5664 0.754618C10.1239 0.409174 9.41142 0.0741577 8.37652 0.0741577L8.37652 0.0741591ZM8.37652 0.689698C9.28119 0.689698 9.84175 0.970221 10.1877 1.24032C10.5336 1.51041 10.6469 1.74886 10.6469 1.74886L10.7317 1.92078H10.9228C11.3329 1.92078 11.8842 2.0775 12.3144 2.45577C12.7446 2.83404 13.0772 3.42566 13.0772 4.38293C13.0772 5.24187 12.8723 6.49459 12.8133 6.84569C12.8115 6.84568 12.8098 6.84509 12.8079 6.84509C12.782 6.84509 12.7866 6.85148 12.7695 6.85351V5.92178C12.7695 4.86863 12.339 4.16002 11.9063 3.74095C11.4735 3.32187 11.0208 3.16808 11.0208 3.16808L10.8447 3.10857L10.71 3.23721C10.71 3.23721 10.517 3.42721 10.0488 3.64116C9.58065 3.85511 8.85769 4.07516 7.84514 4.07516C7.29127 4.07516 6.5607 4.2711 5.92759 4.71354C5.29614 5.15482 4.77141 5.87653 4.76864 6.85411C4.75122 6.85195 4.7557 6.84509 4.72897 6.84509C4.72159 6.84509 4.71467 6.84731 4.70733 6.84749C4.6446 6.55004 4.54382 5.97068 4.54382 5.2299C4.54382 4.42351 4.25579 3.88886 3.95293 3.57804C3.82523 3.44699 3.79566 3.46864 3.68423 3.40372C3.89667 3.1531 4.29207 2.70905 4.96581 2.15942C5.88058 1.41315 7.11621 0.689697 8.37652 0.689697L8.37652 0.689698ZM13.4938 1.30524C14.3015 1.30524 14.7982 1.55462 15.1048 1.79394C15.4113 2.03326 15.5093 2.24177 15.5093 2.24177L15.5941 2.41309H15.7858C16.1475 2.41309 16.6367 2.55197 17.0175 2.88677C17.3983 3.22156 17.6938 3.74396 17.6938 4.59813C17.6938 5.29535 17.549 6.2301 17.478 6.66716V5.9831C17.478 5.0272 17.086 4.38006 16.6917 3.99822C16.2974 3.61639 15.8832 3.47586 15.8832 3.47586L15.7065 3.41635L15.5718 3.54499C15.5718 3.54499 15.4287 3.68712 15.0705 3.86298C14.7625 4.01418 14.2997 4.17185 13.6861 4.24528C13.6525 3.21294 13.2551 2.46333 12.7208 1.99351C12.5291 1.82504 12.3243 1.69578 12.1154 1.59738C12.5593 1.41787 13.0245 1.30524 13.4938 1.30524V1.30524ZM10.9222 3.81548C10.997 3.84442 11.1918 3.90532 11.4783 4.18276C11.8149 4.5088 12.1539 5.03106 12.1539 5.92178V7.86217L12.6174 7.59107C12.6966 7.5447 12.7697 7.50371 12.8211 7.47746C12.8277 7.47414 12.8292 7.47366 12.835 7.47085C12.9765 7.48513 13.0772 7.58359 13.0772 7.70709C13.0772 7.73021 13.0406 7.91085 12.9937 8.07076C12.9702 8.15071 12.9458 8.23073 12.9257 8.30459C12.9057 8.37845 12.8849 8.42907 12.8849 8.53783C12.8849 8.6192 12.8176 8.69171 12.7117 8.69171H12.1539V9.11249C12.1539 10.7813 10.9502 12.16 9.36595 12.4427L9.27879 12.4577L9.21267 12.5178C9.09215 12.6273 8.94019 12.6927 8.76845 12.6927C8.59671 12.6927 8.44468 12.6275 8.32422 12.5178L8.2587 12.4577L8.17094 12.4421C6.5867 12.1597 5.38298 10.7813 5.38298 9.11249V8.69171H4.82514C4.7198 8.69171 4.65203 8.6192 4.65203 8.53783C4.65203 8.42907 4.63117 8.37845 4.61115 8.30459C4.59113 8.23073 4.56671 8.15071 4.54322 8.07076C4.49626 7.91085 4.45967 7.73021 4.45967 7.70709C4.45967 7.58359 4.56043 7.48513 4.70192 7.47085C4.70767 7.47365 4.70922 7.47414 4.71574 7.47746C4.76724 7.50371 4.8403 7.5447 4.91952 7.59107L5.38298 7.86217V6.86132C5.38298 6.09317 5.76559 5.57786 6.27984 5.21848C6.79409 4.85911 7.44861 4.69071 7.84514 4.69071C8.94727 4.69071 9.76288 4.4491 10.3049 4.2014C10.7077 4.01733 10.8137 3.90472 10.9222 3.81549L10.9222 3.81548ZM15.7882 4.12626C15.8625 4.1558 16.0175 4.20275 16.2631 4.44064C16.5613 4.72944 16.8624 5.18963 16.8624 5.9831V7.78343L17.3253 7.51233C17.393 7.47268 17.4539 7.4388 17.499 7.41555C17.6091 7.42863 17.6932 7.49606 17.6932 7.58987C17.6932 7.60191 17.6614 7.76555 17.6192 7.90906C17.5981 7.98081 17.5762 8.05225 17.5579 8.11945C17.5397 8.18665 17.52 8.23204 17.52 8.33765C17.52 8.39425 17.4747 8.44525 17.395 8.44525H16.8624V8.85521C16.8624 10.3421 15.7899 11.5701 14.3786 11.8217L14.2909 11.8373L14.2253 11.8968C14.1227 11.9904 13.9926 12.0465 13.846 12.0465C13.6995 12.0465 13.5701 11.9907 13.4667 11.8968L13.4012 11.8373L13.3141 11.8217C12.8615 11.741 12.4478 11.5542 12.089 11.2957C12.4676 10.7172 12.7011 10.0345 12.7364 9.29763C13.1495 9.28298 13.5004 8.95663 13.5004 8.53782C13.5004 8.5821 13.5036 8.52486 13.5196 8.46569C13.5357 8.40652 13.5594 8.32826 13.584 8.24448C13.6332 8.07692 13.6928 7.90709 13.6928 7.70709C13.6928 7.45516 13.5785 7.23176 13.4024 7.07472C13.4501 6.80173 13.6218 5.7738 13.6753 4.87164C14.4063 4.7955 14.9608 4.60262 15.3422 4.41539C15.6309 4.27366 15.6902 4.2051 15.7882 4.12626H15.7882ZM7.07571 7.46063C6.82075 7.46063 6.61406 7.66732 6.61406 7.92229C6.61406 8.17725 6.82075 8.38394 7.07571 8.38394C7.33068 8.38394 7.53737 8.17725 7.53737 7.92229C7.53737 7.66732 7.33068 7.46063 7.07571 7.46063ZM10.4612 7.46063C10.2062 7.46063 9.99953 7.66732 9.99953 7.92229C9.99953 8.17725 10.2062 8.38394 10.4612 8.38394C10.7161 8.38394 10.9228 8.17725 10.9228 7.92229C10.9228 7.66732 10.7161 7.46063 10.4612 7.46063ZM15.3855 7.46063C15.1305 7.46063 14.9238 7.66732 14.9238 7.92229C14.9238 8.17725 15.1305 8.38394 15.3855 8.38394C15.6405 8.38394 15.8471 8.17725 15.8471 7.92229C15.8471 7.66732 15.6405 7.46063 15.3855 7.46063ZM11.7103 11.7808C12.1286 12.0839 12.6125 12.3013 13.1385 12.406C13.3359 12.5574 13.5759 12.6621 13.846 12.6621C14.1208 12.6621 14.3666 12.555 14.5656 12.3988C14.8886 12.3332 15.1938 12.2232 15.4781 12.0784V12.9788C14.9093 13.3804 14.4313 13.8996 14.0751 14.5003C12.8854 13.9086 11.6855 13.5229 11.2306 13.3864V12.2383C11.4042 12.1005 11.5621 11.9452 11.7103 11.7808H11.7103ZM6.92183 12.638C7.25047 12.8111 7.60506 12.9427 7.98159 13.0185C8.19822 13.1914 8.46747 13.3083 8.76845 13.3083C9.06812 13.3083 9.33555 13.1916 9.5517 13.0203C9.92953 12.9446 10.2854 12.8129 10.6151 12.6392V14.4426C10.5773 14.5179 10.0903 15.4626 8.76845 15.4626C7.44656 15.4626 6.95962 14.5179 6.92183 14.4426V12.638ZM18.3093 12.6927C20.6853 12.6927 22.6181 14.6255 22.6181 17.0015C22.6181 19.3775 20.6853 21.3103 18.3093 21.3103C16.4953 21.3103 14.9427 20.1823 14.3083 18.592V18.5403H14.2897C14.1058 18.0617 14.0005 17.5441 14.0005 17.0015C14.0005 14.6255 15.9333 12.6927 18.3093 12.6927ZM6.30629 14.0326V14.6121L6.33875 14.677C6.33875 14.677 7.06545 16.0782 8.76845 16.0782C10.4714 16.0782 11.1981 14.677 11.1981 14.677L11.2306 14.6121V14.0326C11.7683 14.2021 12.7948 14.5554 13.7907 15.0491C13.5309 15.6482 13.385 16.308 13.385 17.0015C13.385 17.5392 13.475 18.0555 13.6351 18.5403H1.38197V17.3093C1.38197 16.9026 1.65594 16.4739 2.14058 16.0565C2.62522 15.6392 3.29804 15.2531 3.97578 14.9331C4.90694 14.4933 5.8117 14.1881 6.30629 14.0326ZM18.1218 14.484V14.8862C17.3006 14.956 16.8053 15.4072 16.8053 16.0944C16.8053 16.6767 17.1698 17.073 17.8422 17.2389L18.1218 17.3057V18.5463C17.717 18.5026 17.4518 18.2697 17.4257 17.9434H16.7152C16.7179 18.6304 17.2536 19.0903 18.1212 19.1427V19.5189H18.5233V19.1402C19.3998 19.0676 19.9035 18.6162 19.9035 17.8941C19.9038 17.2795 19.5514 16.9039 18.8118 16.7322L18.5233 16.6709V15.4921C18.8726 15.5386 19.117 15.7772 19.1256 16.077H19.8217C19.8072 15.4217 19.3007 14.9557 18.5233 14.8862V14.484L18.1218 14.484ZM18.1218 15.4885V16.5861C17.7315 16.5046 17.5249 16.3126 17.5249 16.0331C17.5249 15.7358 17.7755 15.5091 18.1218 15.4885V15.4885ZM2.61305 17.3093C2.44308 17.3093 2.30528 17.4471 2.30528 17.617C2.30528 17.787 2.44308 17.9248 2.61305 17.9248C2.78303 17.9248 2.92082 17.787 2.92082 17.617C2.92082 17.4471 2.78303 17.3093 2.61305 17.3093ZM3.84413 17.3093C3.67415 17.3093 3.53636 17.4471 3.53636 17.617C3.53636 17.787 3.67415 17.9248 3.84413 17.9248C4.01411 17.9248 4.1519 17.787 4.1519 17.617C4.1519 17.4471 4.01411 17.3093 3.84413 17.3093ZM5.07521 17.3093C4.90523 17.3093 4.76744 17.4471 4.76744 17.617C4.76744 17.787 4.90523 17.9248 5.07521 17.9248C5.24519 17.9248 5.38298 17.787 5.38298 17.617C5.38298 17.4471 5.24519 17.3093 5.07521 17.3093ZM6.30629 17.3093C6.13631 17.3093 5.99852 17.4471 5.99852 17.617C5.99852 17.787 6.13631 17.9248 6.30629 17.9248C6.47626 17.9248 6.61406 17.787 6.61406 17.617C6.61406 17.4471 6.47626 17.3093 6.30629 17.3093ZM7.53737 17.3093C7.36739 17.3093 7.2296 17.4471 7.2296 17.617C7.2296 17.787 7.36739 17.9248 7.53737 17.9248C7.70734 17.9248 7.84514 17.787 7.84514 17.617C7.84514 17.4471 7.70734 17.3093 7.53737 17.3093ZM8.76845 17.3093C8.59847 17.3093 8.46068 17.4471 8.46068 17.617C8.46068 17.787 8.59847 17.9248 8.76845 17.9248C8.93842 17.9248 9.07622 17.787 9.07622 17.617C9.07622 17.4471 8.93842 17.3093 8.76845 17.3093ZM9.99953 17.3093C9.82955 17.3093 9.69176 17.4471 9.69176 17.617C9.69176 17.787 9.82955 17.9248 9.99953 17.9248C10.1695 17.9248 10.3073 17.787 10.3073 17.617C10.3073 17.4471 10.1695 17.3093 9.99953 17.3093ZM11.2306 17.3093C11.0606 17.3093 10.9228 17.4471 10.9228 17.617C10.9228 17.787 11.0606 17.9248 11.2306 17.9248C11.4006 17.9248 11.5384 17.787 11.5384 17.617C11.5384 17.4471 11.4006 17.3093 11.2306 17.3093ZM12.4617 17.3093C12.2917 17.3093 12.1539 17.4471 12.1539 17.617C12.1539 17.787 12.2917 17.9248 12.4617 17.9248C12.6317 17.9248 12.7695 17.787 12.7695 17.617C12.7695 17.4471 12.6317 17.3093 12.4617 17.3093ZM18.5233 17.3814C18.9834 17.4716 19.1929 17.6575 19.1929 17.9693C19.1929 18.3131 18.9486 18.5256 18.5233 18.5518V17.3814Z" fill="#333333"/>
</svg>
