<svg width="29" height="28" viewBox="0 0 29 28" fill="none" xmlns="http://www.w3.org/2000/svg">
<path d="M7.75 1.75C5.82733 1.75 4.25 3.32733 4.25 5.25C4.25 6.20692 4.64242 7.07699 5.27197 7.71094C3.6486 8.60617 2.5 10.2734 2.5 12.25H4.25C4.25 10.3072 5.80717 8.75 7.75 8.75C9.69283 8.75 11.25 10.3072 11.25 12.25H13C13 10.2734 11.8514 8.60617 10.228 7.71094C10.8576 7.07699 11.25 6.20692 11.25 5.25C11.25 3.32733 9.67267 1.75 7.75 1.75ZM7.75 3.5C8.72708 3.5 9.5 4.27292 9.5 5.25C9.5 6.22708 8.72708 7 7.75 7C6.77292 7 6 6.22708 6 5.25C6 4.27292 6.77292 3.5 7.75 3.5ZM14.75 3.5C14.0393 3.5 13.3428 3.56454 12.6667 3.6897L12.9846 5.41064C13.5563 5.3048 14.1465 5.25 14.75 5.25C20.0757 5.25 24.375 9.54933 24.375 14.875H26.125C26.125 8.60342 21.0216 3.5 14.75 3.5ZM3.375 14.875C3.375 15.552 3.43492 16.2152 3.54761 16.8591V16.8608C4.4882 22.1972 9.15509 26.25 14.75 26.25V24.5C9.99969 24.5 6.06827 21.0699 5.27197 16.5584C5.17641 16.0123 5.125 15.4492 5.125 14.875H3.375ZM21.75 15.75C19.8273 15.75 18.25 17.3273 18.25 19.25C18.25 20.2069 18.6424 21.077 19.272 21.7109C17.6486 22.6062 16.5 24.2734 16.5 26.25H18.25C18.25 24.3072 19.8072 22.75 21.75 22.75C23.6928 22.75 25.25 24.3072 25.25 26.25H27C27 24.2734 25.8514 22.6062 24.228 21.7109C24.8576 21.077 25.25 20.2069 25.25 19.25C25.25 17.3273 23.6727 15.75 21.75 15.75ZM21.75 17.5C22.7271 17.5 23.5 18.2729 23.5 19.25C23.5 20.2271 22.7271 21 21.75 21C20.7729 21 20 20.2271 20 19.25C20 18.2729 20.7729 17.5 21.75 17.5Z" fill="#292424"/>
</svg>
