<svg width="20" height="20" viewBox="0 0 20 20" fill="none" xmlns="http://www.w3.org/2000/svg">
<path d="M17.5448 16.7052C17.7767 16.937 17.7767 17.313 17.5448 17.5448C17.313 17.7767 16.937 17.7767 16.7052 17.5448L13.8552 14.6948C13.6233 14.463 13.6233 14.087 13.8552 13.8552C14.087 13.6233 14.463 13.6233 14.6948 13.8552L17.5448 16.7052ZM8.575 14.8687C5.09906 14.8687 2.28125 12.0509 2.28125 8.575C2.28125 5.09906 5.09906 2.28125 8.575 2.28125C12.0509 2.28125 14.8687 5.09906 14.8687 8.575C14.8687 12.0509 12.0509 14.8687 8.575 14.8687ZM8.575 13.6812C11.3951 13.6812 13.6812 11.3951 13.6812 8.575C13.6812 5.7549 11.3951 3.46875 8.575 3.46875C5.7549 3.46875 3.46875 5.7549 3.46875 8.575C3.46875 11.3951 5.7549 13.6812 8.575 13.6812ZM5.64583 8.1C5.64583 8.31861 5.46861 8.49583 5.25 8.49583C5.03139 8.49583 4.85417 8.31861 4.85417 8.1C4.85417 6.30737 6.30737 4.85417 8.1 4.85417C8.31861 4.85417 8.49583 5.03139 8.49583 5.25C8.49583 5.46861 8.31861 5.64583 8.1 5.64583C6.7446 5.64583 5.64583 6.7446 5.64583 8.1Z" fill="#292424"/>
</svg>
