<?xml version="1.0" encoding="utf-8"?>
<!-- Svg Vector Icons : http://www.onlinewebfonts.com/icon -->
<!DOCTYPE svg PUBLIC "-//W3C//DTD SVG 1.1//EN" "http://www.w3.org/Graphics/SVG/1.1/DTD/svg11.dtd">
<svg version="1.1" xmlns="http://www.w3.org/2000/svg" xmlns:xlink="http://www.w3.org/1999/xlink" x="0px" y="0px" viewBox="0 0 1000 1000" height="16" width="16" enable-background="new 0 0 1000 1000" xml:space="preserve">
<metadata> Svg Vector Icons : http://www.onlinewebfonts.com/icon </metadata>
<g><path d="M64.5,219.9h100.7h187h0.3c6.8,0,12.3,5.5,12.3,12.2c0,4.2-2.2,7.9-5.5,10.1c-12.3,8.2-24.4,16.9-36.2,26.2l-0.1,0.1c-2.6,2-5.2,4.1-7.8,6.3c-15.9,11.5-35.4,18.2-56.6,18.2H109c-13.3,0-24,10.2-24.7,23.1v1.2v1.3v523.6v1.2v1.2c0.7,12.3,10.5,22.2,22.8,23.1h1.9h1.9h634h1.9h1.9c12.4-0.9,22.2-10.8,22.8-23.1c0-0.4,0-0.8,0-1.2c0-0.4,0-0.8,0-1.2V670.6v-3.8c0.5-14.9,7-28.3,17.3-37.9c0.4-0.4,0.8-0.7,1.2-1l34.4-31.4l0.9-0.8c0-0.1,0.1-0.1,0.1-0.2c2.2-1.7,4.9-2.8,7.9-2.8c6.8,0,12.4,5.5,12.4,12.2v12.2v103.4v166.9c0,29.6-24.4,53.6-54.4,53.6h-727c-30.1,0-54.5-24-54.5-53.6V273.6C10,243.9,34.4,219.9,64.5,219.9z M771.6,561.7l-64.3,58.6c-0.4,0.4-0.7,0.7-1,1c-4.4,3.8-10.1,6.1-16.5,6.1c-13.7,0-24.7-10.9-24.7-24.3H665v-95.8c0.1-0.7,0.1-1.2,0.1-1.9c0-0.6,0-1.2-0.1-1.9c-1-29.4-25.5-53-55.7-53c-151.9,3-276,22-375.4,111.3v0c-1.9,1.7-3.7,3.4-5.6,5v0.1c-4,2.6-8.8,4.1-13.9,4.1c-13.7,0-24.8-10.9-24.8-24.4c0-3.8,0.9-7.4,2.5-10.6c38.3-80.1,101.5-176.8,201.3-243.2c53-35.2,116.2-61.9,191.5-73.1c9.8-1.4,19.8-2.7,30-3.6c27.5-2.7,49-25.2,50-52.7c0.1-0.6,0.1-1.2,0.1-1.9c0-0.6,0-1.2-0.1-1.8V83.3h0.1c0-13.5,11-24.3,24.7-24.3c6,0,11.5,2.1,15.7,5.5c0.3,0.3,0.6,0.6,0.9,0.8l263.2,231.5c0,0,0.1,0,0.1,0.1l3.3,2.9c10.5,10,17.1,23.9,17.1,39.4c0,13.6-5.1,26.1-13.4,35.6l-9.5,8.7L845.9,494L771.6,561.7z" fill="#292424"/></g>
</svg>