<svg width="24" height="22" viewBox="0 0 24 22" fill="none" xmlns="http://www.w3.org/2000/svg">
<path d="M5.75998 0.119995C3.02494 0.119995 0.79998 2.27327 0.79998 4.91999C0.79998 7.51443 2.93938 9.62911 5.59998 9.71187V12.2881C2.93938 12.3709 0.79998 14.4856 0.79998 17.08C0.79998 19.7267 3.02494 21.88 5.75998 21.88C8.49502 21.88 10.72 19.7267 10.72 17.08C10.72 16.3585 10.5503 15.6764 10.2544 15.0619L13.5269 12.9506L14.0531 13.8619L11.5406 15.3125C11.4641 15.3567 11.4383 15.4548 11.4825 15.5312C11.5122 15.5828 11.5659 15.6112 11.6212 15.6112C11.6481 15.6112 11.6756 15.6038 11.7012 15.5894L14.3519 14.0587C14.3675 14.0496 14.3809 14.0372 14.3925 14.0237C15.3027 15.1066 16.6885 15.8 18.24 15.8C20.975 15.8 23.2 13.6467 23.2 11C23.2 8.35328 20.975 6.2 18.24 6.2C16.7346 6.2 15.3866 6.85466 14.4762 7.8825L12.2231 6.58125C12.1463 6.53677 12.0485 6.5632 12.0044 6.64C11.9602 6.71648 11.9866 6.81459 12.0631 6.85875L14.2712 8.13375C14.0556 8.41264 13.8696 8.71346 13.72 9.03437L10.2487 6.95C10.5481 6.33251 10.72 5.64599 10.72 4.92C10.72 2.27328 8.49502 0.119999 5.75998 0.119999L5.75998 0.119995ZM5.75998 0.759995C8.14206 0.759995 10.08 2.62623 10.08 4.91999C10.08 7.21376 8.14206 9.08 5.75998 9.08C3.3779 9.08 1.43998 7.21376 1.43998 4.91999C1.43998 2.62623 3.3779 0.759995 5.75998 0.759995ZM5.66248 1.57874C3.82696 1.57874 2.33373 3.07197 2.33373 4.9075C2.33373 6.74301 3.82696 8.23624 5.66248 8.23624C7.498 8.23624 8.99092 6.74301 8.9906 4.9075C8.9906 4.81917 8.91892 4.74749 8.8306 4.74749C8.74228 4.74749 8.6706 4.81917 8.6706 4.9075C8.6706 6.56637 7.32136 7.91624 5.66248 7.91624C4.0036 7.91624 2.65373 6.56637 2.65373 4.9075C2.65373 3.24861 4.0036 1.89874 5.66248 1.89874C5.7508 1.89874 5.82248 1.82706 5.82248 1.73874C5.82248 1.65042 5.7508 1.57874 5.66248 1.57874ZM6.89623 1.82812C6.83392 1.82812 6.77441 1.86442 6.74873 1.92562C6.71449 2.0069 6.75245 2.10075 6.83373 2.13499C7.32173 2.34171 7.74873 2.67564 8.06873 3.10124C8.10009 3.14284 8.14821 3.16499 8.19685 3.16499C8.23013 3.16499 8.2643 3.15457 8.2931 3.13249C8.36382 3.07937 8.37747 2.97946 8.32435 2.90874C7.97043 2.43834 7.49826 2.0691 6.9581 1.84062C6.93786 1.83206 6.917 1.82812 6.89623 1.82812L6.89623 1.82812ZM18.24 6.83999C20.6221 6.83999 22.56 8.70623 22.56 11C22.56 13.2938 20.6221 15.16 18.24 15.16C15.8579 15.16 13.92 13.2938 13.92 11C13.92 8.70623 15.8579 6.83999 18.24 6.83999ZM10.1025 7.235L13.595 9.33312C13.3949 9.85333 13.28 10.4132 13.28 11C13.28 11.5495 13.381 12.0754 13.5575 12.5675C13.5355 12.571 13.5141 12.5783 13.495 12.5906L10.1087 14.775C9.28896 13.3323 7.72433 12.3442 5.91998 12.2881V9.72H6.87998V12.12C6.87998 12.2083 6.95166 12.28 7.03998 12.28C7.1283 12.28 7.19998 12.2083 7.19998 12.12V9.56C7.19998 9.5437 7.19514 9.52919 7.1906 9.51437C8.43983 9.14946 9.48186 8.32093 10.1025 7.235ZM18.2575 7.78999C16.422 7.78999 14.9294 9.28323 14.9294 11.1187C14.9294 12.9543 16.422 14.4475 18.2575 14.4475C20.093 14.4475 21.5862 12.9543 21.5862 11.1187C21.5862 11.0304 21.5145 10.9587 21.4262 10.9587C21.3379 10.9587 21.2662 11.0304 21.2662 11.1187C21.2662 12.7776 19.9164 14.1275 18.2575 14.1275C16.5986 14.1275 15.2494 12.7776 15.2494 11.1187C15.2494 9.45987 16.5986 8.10999 18.2575 8.10999C18.3458 8.10999 18.4175 8.03831 18.4175 7.94999C18.4175 7.86167 18.3458 7.78999 18.2575 7.78999ZM19.4912 8.03937C19.4289 8.03937 19.3694 8.07567 19.3437 8.13687C19.3095 8.21815 19.3474 8.31263 19.4287 8.34687C19.917 8.55327 20.3444 8.88721 20.6644 9.31249C20.6957 9.35441 20.7432 9.37624 20.7919 9.37624C20.8255 9.37624 20.8593 9.36613 20.8881 9.34437C20.9588 9.29125 20.9731 9.19071 20.92 9.11999C20.5664 8.64959 20.0933 8.28035 19.5531 8.05187C19.5329 8.04331 19.512 8.03937 19.4912 8.03937H19.4912ZM5.75998 12.92C8.14206 12.92 10.08 14.7862 10.08 17.08C10.08 19.3738 8.14206 21.24 5.75998 21.24C3.3779 21.24 1.43998 19.3738 1.43998 17.08C1.43998 14.7862 3.3779 12.92 5.75998 12.92ZM5.66248 13.6562C3.82696 13.6562 2.33373 15.1495 2.33373 16.985C2.33373 18.8205 3.82696 20.3137 5.66248 20.3137C7.498 20.3137 8.99092 18.8205 8.9906 16.985C8.9906 16.8967 8.91892 16.825 8.8306 16.825C8.74228 16.825 8.6706 16.8967 8.6706 16.985C8.6706 18.6439 7.32136 19.9937 5.66248 19.9937C4.0036 19.9937 2.65373 18.6439 2.65373 16.985C2.65373 15.3261 4.0036 13.9762 5.66248 13.9762C5.7508 13.9762 5.82248 13.9046 5.82248 13.8162C5.82248 13.7279 5.7508 13.6562 5.66248 13.6562ZM6.89623 13.9056C6.83392 13.9056 6.77441 13.9419 6.74873 14.0031C6.71449 14.0844 6.75245 14.1789 6.83373 14.2131C7.32173 14.4198 7.74873 14.7531 8.06873 15.1787C8.10009 15.2203 8.14821 15.2425 8.19685 15.2425C8.23013 15.2425 8.2643 15.2324 8.2931 15.2106C8.36382 15.1575 8.37747 15.057 8.32435 14.9862C7.97043 14.5158 7.49826 14.1466 6.9581 13.9181C6.93786 13.9096 6.917 13.9056 6.89623 13.9056H6.89623Z" fill="#333333"/>
</svg>
