<svg width="33" height="32" viewBox="0 0 33 32" fill="none" xmlns="http://www.w3.org/2000/svg">
<path d="M24.2292 20.75C23.3386 20.75 22.5167 21.0625 21.8729 21.5844L15.3979 16.9C15.5064 16.3049 15.5064 15.6951 15.3979 15.1L21.8729 10.4156C22.5167 10.9375 23.3386 11.25 24.2292 11.25C26.2979 11.25 27.9792 9.56875 27.9792 7.5C27.9792 5.43125 26.2979 3.75 24.2292 3.75C22.1604 3.75 20.4792 5.43125 20.4792 7.5C20.4792 7.8625 20.5292 8.20937 20.6261 8.54062L14.4761 12.9937C13.5636 11.7844 12.1136 11 10.4792 11C7.71669 11 5.47919 13.2375 5.47919 16C5.47919 18.7625 7.71669 21 10.4792 21C12.1136 21 13.5636 20.2156 14.4761 19.0063L20.6261 23.4594C20.5292 23.7906 20.4792 24.1406 20.4792 24.5C20.4792 26.5688 22.1604 28.25 24.2292 28.25C26.2979 28.25 27.9792 26.5688 27.9792 24.5C27.9792 22.4312 26.2979 20.75 24.2292 20.75ZM24.2292 5.875C25.1261 5.875 25.8542 6.60313 25.8542 7.5C25.8542 8.39687 25.1261 9.125 24.2292 9.125C23.3323 9.125 22.6042 8.39687 22.6042 7.5C22.6042 6.60313 23.3323 5.875 24.2292 5.875ZM10.4792 18.75C8.96356 18.75 7.72919 17.5156 7.72919 16C7.72919 14.4844 8.96356 13.25 10.4792 13.25C11.9948 13.25 13.2292 14.4844 13.2292 16C13.2292 17.5156 11.9948 18.75 10.4792 18.75ZM24.2292 26.125C23.3323 26.125 22.6042 25.3969 22.6042 24.5C22.6042 23.6031 23.3323 22.875 24.2292 22.875C25.1261 22.875 25.8542 23.6031 25.8542 24.5C25.8542 25.3969 25.1261 26.125 24.2292 26.125Z" fill="#333333"/>
</svg>
