<svg width="25" height="25" viewBox="0 0 25 25" fill="none" xmlns="http://www.w3.org/2000/svg">
<path d="M21.4537 7.15659C21.2809 6.85721 21.0334 6.60772 20.7355 6.43247C20.4376 6.25721 20.0993 6.16216 19.7537 6.15659H6.95366L6.37366 3.89659C6.31506 3.67843 6.18432 3.48654 6.00273 3.35216C5.82115 3.21779 5.59942 3.14886 5.37366 3.15659H3.37366C3.10844 3.15659 2.85409 3.26195 2.66655 3.44949C2.47901 3.63702 2.37366 3.89138 2.37366 4.15659C2.37366 4.42181 2.47901 4.67616 2.66655 4.8637C2.85409 5.05124 3.10844 5.15659 3.37366 5.15659H4.61366L7.37366 15.4166C7.43226 15.6348 7.563 15.8266 7.74458 15.961C7.92617 16.0954 8.1479 16.1643 8.37366 16.1566H17.3737C17.5583 16.156 17.7392 16.1044 17.8963 16.0073C18.0534 15.9102 18.1806 15.7715 18.2637 15.6066L21.5437 9.04659C21.6858 8.74861 21.752 8.42006 21.7363 8.09028C21.7206 7.76049 21.6235 7.43972 21.4537 7.15659ZM16.7537 14.1566H9.13366L7.50366 8.15659H19.7537L16.7537 14.1566Z" fill="white"/>
<path d="M7.87366 21.1565C8.70208 21.1565 9.37366 20.4849 9.37366 19.6565C9.37366 18.8281 8.70208 18.1565 7.87366 18.1565C7.04523 18.1565 6.37366 18.8281 6.37366 19.6565C6.37366 20.4849 7.04523 21.1565 7.87366 21.1565Z" fill="white"/>
<path d="M17.8737 21.1565C18.7021 21.1565 19.3737 20.4849 19.3737 19.6565C19.3737 18.8281 18.7021 18.1565 17.8737 18.1565C17.0452 18.1565 16.3737 18.8281 16.3737 19.6565C16.3737 20.4849 17.0452 21.1565 17.8737 21.1565Z" fill="white"/>
</svg>
