<svg width="27" height="27" viewBox="0 0 27 27" fill="none" xmlns="http://www.w3.org/2000/svg">
<g clip-path="url(#clip0_4300_7196)">
<path d="M15.3665 6.45896C16.4277 6.40686 17.4889 6.25054 18.5502 6.04213C17.4889 5.83371 16.4277 5.7295 15.3665 5.62529C13.2971 5.46898 11.2277 5.46898 8.99911 5.62529C7.93788 5.6774 6.87666 5.83371 5.81543 6.04213C6.87666 6.25054 7.93788 6.35475 8.99911 6.45896C11.2277 6.61527 13.2971 6.56317 15.3665 6.45896Z" fill="#292424"/>
<path d="M12.1828 11.2002C12.8726 11.1481 13.6154 10.9918 14.3052 10.7833C13.6154 10.5749 12.8726 10.4707 12.1828 10.3665C10.8032 10.2102 9.4236 10.2102 7.93788 10.3665C7.24808 10.4186 6.50523 10.5749 5.81543 10.7833C6.50523 10.9918 7.24808 11.096 7.93788 11.2002C9.4236 11.3565 10.8032 11.3565 12.1828 11.2002Z" fill="#292424"/>
<path d="M15.3665 15.9939C16.4277 15.9418 17.4889 15.7855 18.5502 15.577C17.4889 15.3686 16.4277 15.2644 15.3665 15.1602C13.2971 15.0039 11.2277 15.0039 8.99911 15.1602C7.93788 15.2123 6.87666 15.3686 5.81543 15.577C6.87666 15.7855 7.93788 15.8897 8.99911 15.9939C11.2277 16.1502 13.2971 16.1502 15.3665 15.9939Z" fill="#292424"/>
<path d="M26.9762 18.8076C26.9232 18.8076 26.817 18.8076 26.764 18.7555H26.6048H25.4374C25.3313 18.7555 24.0579 18.7555 24.164 18.7555C24.1109 18.7555 24.1109 18.7555 24.0579 18.7555C23.8987 18.7034 23.7925 18.6513 23.7395 18.495C23.5272 18.0781 23.2619 17.4008 22.6783 16.2024C23.1027 17.505 23.315 18.1823 23.4742 18.5992C23.5272 18.8076 23.7395 19.016 23.9517 19.0681C24.0048 19.0681 24.0579 19.1202 24.1109 19.1202C24.217 19.1202 25.4905 19.2765 25.3844 19.2765L26.5517 19.3807H26.7109C26.764 19.3807 26.764 19.3807 26.764 19.3807C26.817 19.3807 26.817 19.4328 26.8701 19.4328C26.9232 19.4849 26.9762 19.5892 26.9232 19.6934C26.9232 19.7455 26.8701 19.7455 26.8701 19.7976C26.8701 19.8497 26.817 19.8497 26.7109 19.9018C26.6048 20.006 25.2783 20.996 25.3313 20.9439L24.8538 21.3086C24.8007 21.3607 24.6946 21.4128 24.5885 21.517C24.3762 21.7775 24.2701 22.0902 24.3232 22.4028L24.3762 22.7154L24.5354 23.2364C24.5354 23.2886 24.9599 24.9559 24.9599 24.8517C24.9599 24.9559 24.9599 24.9038 24.9599 24.9559C24.9599 24.9559 24.9599 24.9559 24.9599 25.008C24.9599 25.0601 24.9068 25.0601 24.8538 25.0601C24.8538 25.0601 24.8538 25.0601 24.8007 25.0601C24.8007 25.0601 24.7476 25.0601 24.6946 25.008C24.5885 24.9559 23.5272 24.2785 23.6334 24.3306C23.5803 24.2785 22.5721 23.6533 22.6252 23.6533C22.5721 23.6533 22.5721 23.6012 22.5191 23.6012C22.413 23.5491 22.3599 23.5491 22.2538 23.497C22.0946 23.4449 21.8823 23.4449 21.7232 23.497C21.564 23.5491 21.3517 23.6533 21.2987 23.7054L21.0334 23.8617L19.1762 25.0601C19.1232 25.1122 19.0701 25.0601 19.0701 25.008C19.0701 25.008 19.0701 25.008 19.0701 24.9559L19.1232 24.6954L19.2823 24.1743L19.5476 23.0801L19.7068 22.507C19.7599 22.1423 19.6538 21.7775 19.3354 21.517L19.2823 21.4649L19.1762 21.3607L18.964 21.2044L18.5395 20.8397L17.6374 20.1623C17.3191 19.7455 17.3191 19.7455 17.3191 19.5892C17.3191 19.537 17.3721 19.4849 17.4783 19.4328C17.4783 19.4328 17.5844 19.4328 17.6905 19.4328C17.9028 19.4328 19.7599 19.2244 19.7068 19.2244L19.9721 19.1723H20.1313C20.1844 19.1723 20.2905 19.1723 20.3436 19.1202C20.6089 19.016 20.8211 18.8076 20.8742 18.5992C20.9272 18.495 21.4579 16.9318 21.4048 16.9839L21.564 16.4629C21.617 16.2545 21.6701 16.0982 21.7762 15.994C21.9885 15.7334 22.5191 15.7855 22.6783 16.1503C22.6252 15.8898 22.3599 15.7334 22.0946 15.7334C22.2007 12.503 22.2538 9.27252 22.3599 6.04206L22.413 3.59316C22.466 2.60318 21.617 1.71741 20.6089 1.6132C20.3436 1.6132 20.1844 1.6132 19.9721 1.6132H19.3354H18.115L15.6211 1.5611L5.69867 1.40479H4.47826C4.26602 1.40479 4.10683 1.40479 3.84153 1.40479C3.57622 1.40479 3.31091 1.45689 3.04561 1.5611C2.30275 1.92583 1.77214 2.60318 1.66602 3.43685C1.66602 3.59316 1.66602 3.69737 1.66602 3.80158C1.66602 3.85368 1.66602 9.32462 1.66602 9.012L1.71908 18.7555L1.77214 23.6533V24.8517C1.77214 25.0601 1.77214 25.2164 1.77214 25.529C1.87826 26.2585 2.40887 26.988 3.15173 27.2485C3.41704 27.3527 3.62928 27.4048 3.89459 27.4048H4.53132L14.4538 27.2485L19.4415 27.1443C19.866 27.1443 20.2374 27.1443 20.715 27.0922C21.1395 27.0401 21.564 26.7795 21.8293 26.4669C22.0946 26.1543 22.2007 25.6853 22.2007 25.2685V24.5912C22.2538 24.6433 23.2619 25.2685 23.2089 25.2164C23.315 25.2685 24.3232 25.9459 24.2701 25.8938C24.3232 25.8938 24.3232 25.9459 24.4293 25.998C24.5885 26.1022 24.7476 26.1022 24.9599 26.1022C25.3313 26.1022 25.6497 25.9459 25.8619 25.6332C26.0742 25.3727 26.1272 24.9559 26.0211 24.6954C25.9681 24.5912 25.5436 22.9759 25.5436 23.0801C25.5436 23.028 25.2783 22.2465 25.3313 22.2986V22.2465C25.2783 22.1944 25.7027 21.8817 25.9681 21.6733L26.817 20.9439L27.2415 20.5791C27.2946 20.527 27.4007 20.4228 27.5068 20.3186C27.613 20.2144 27.666 20.0581 27.666 19.9018C27.666 19.5892 27.5599 19.3286 27.3476 19.1202C27.2415 18.9118 27.0823 18.8076 26.9762 18.8076ZM21.6701 26.2585C21.4048 26.5711 21.0334 26.7274 20.6619 26.7795C20.2905 26.8316 19.866 26.7795 19.4415 26.7795L14.4538 26.6753C12.2783 26.6232 19.9721 26.7795 3.89459 26.519C3.41704 26.519 2.99255 26.2585 2.7803 25.8417C2.62112 25.5811 2.62112 25.3206 2.67418 24.8517C2.67418 22.7154 2.72724 19.9539 2.72724 18.7555L2.7803 9.012V4.1142C2.7803 3.69737 2.7803 3.59316 2.7803 3.54106C2.83336 3.07212 3.09867 2.70739 3.52316 2.55108C3.68234 2.49897 3.78846 2.44687 3.94765 2.44687C4.10683 2.44687 4.37214 2.44687 4.53132 2.44687H5.75173L15.6742 2.34266L20.6089 2.29056C21.2987 2.34266 21.8823 2.91581 21.8823 3.59316L21.9354 6.04206C22.0415 9.27252 22.0946 12.503 22.2007 15.7334C22.0415 15.7334 21.8823 15.7334 21.7762 15.8376C21.6701 15.8898 21.617 15.994 21.564 16.0982L21.4579 16.3587C21.4048 16.4629 20.5028 18.495 20.5028 18.3908C20.4497 18.5471 20.3436 18.5992 20.2374 18.5992C20.1844 18.5992 20.1844 18.5992 20.1313 18.5992C20.0783 18.5992 17.9558 18.6513 18.0089 18.6513H17.7436C17.6374 18.6513 17.5844 18.6513 17.3721 18.7034C17.0538 18.7555 16.7885 19.016 16.6823 19.2765C16.5762 19.5371 16.5762 19.9018 16.7354 20.1623L16.7885 20.2144C15.2497 19.9539 13.2334 19.8497 11.6946 19.8497C10.7395 19.8497 9.73132 19.9018 8.77622 19.9539C7.82112 20.006 6.81295 20.1623 5.85785 20.3707C6.81295 20.5791 7.82112 20.6833 8.77622 20.7875C10.8456 20.9439 12.7028 20.9439 14.613 20.7875C15.4089 20.7354 16.2048 20.6312 17.0007 20.4749C17.0538 20.527 17.1599 20.5791 17.213 20.6312L18.9109 22.0381C18.9109 22.1423 18.9109 22.1944 18.9109 22.1944C18.9109 22.2465 18.4334 23.9138 18.4334 23.8096L18.2742 24.3306L18.2211 24.5912C18.2211 24.6433 18.1681 24.6954 18.1681 24.7996C18.1681 24.9038 18.1681 24.9559 18.1681 25.0601C18.2211 25.4248 18.4334 25.7374 18.7517 25.8938C19.0701 26.0501 19.4415 26.1022 19.7599 25.9459L19.866 25.8938L19.9721 25.8417C20.0783 25.7896 20.8742 25.2685 20.8211 25.3206L21.7762 24.6954C21.9354 24.5912 22.1476 24.4348 22.0946 24.4869C22.0946 25.1643 22.1476 25.7896 21.6701 26.2585Z" fill="#292424"/>
</g>
<defs>
<clipPath id="clip0_4300_7196">
<rect width="26" height="26" fill="white" transform="translate(0.929688 0.964844)"/>
</clipPath>
</defs>
</svg>
